<?xml version="1.0" encoding="UTF-8" standalone="no"?>
<!-- Created with Inkscape (http://www.inkscape.org/) -->

<svg width="200mm" height="106mm" viewBox="0 0 171 106" version="1.1" id="svg1" xml:space="preserve"
  inkscape:version="1.4 (e7c3feb1, 2024-10-09)" sodipodi:docname="brevdue.svg"
  xmlns:inkscape="http://www.inkscape.org/namespaces/inkscape"
  xmlns:sodipodi="http://sodipodi.sourceforge.net/DTD/sodipodi-0.dtd" xmlns="http://www.w3.org/2000/svg"
  xmlns:svg="http://www.w3.org/2000/svg">
  <sodipodi:namedview id="namedview1" pagecolor="#ffffff" bordercolor="#000000" borderopacity="0.25"
    inkscape:showpageshadow="2" inkscape:pageopacity="0.0" inkscape:pagecheckerboard="0" inkscape:deskcolor="#d1d1d1"
    inkscape:document-units="mm" inkscape:zoom="0.3577729" inkscape:cx="26.553157" inkscape:cy="479.35436"
    inkscape:window-width="1512" inkscape:window-height="740" inkscape:window-x="0" inkscape:window-y="34"
    inkscape:window-maximized="0" inkscape:current-layer="layer5" />
  <defs id="defs1" />
  <g inkscape:groupmode="layer" id="VenstreVinge" inkscape:label="VenstreVinge">
    <g id="g33" inkscape:label="VenstreVinge" transform="translate(-7.3952872,-141.98951)">
      <path
        style="vector-effect:non-scaling-stroke;fill:#ffffff;fill-opacity:1;stroke:none;stroke-width:0.264583;stroke-opacity:1;-inkscape-stroke:hairline"
        d="m 122.33265,222.19901 3.58463,-9.05592 4.3393,-22.26248 2.45264,-19.62116 -0.94332,-10.37658 -2.07531,-5.09396 -1.88666,-9.05592 -10.56524,11.8859 -9.99925,12.45189 -6.79194,13.58389 0.18867,7.5466 19.80983,30.18641 z"
        id="path30" inkscape:label="VenstreVingeHvit" />
      <path style="fill:#000000"
        d="m 128.49698,142.88498 c -0.35935,0.41728 -17.71142,21.4865 -22.70662,27.57093 -2.90414,3.53741 -3.97591,5.4599 -5.38727,9.66298 -0.28226,0.84058 -0.55174,1.52051 -0.75344,1.94406 l -1.39527,6.29574 c 1.05476,1.29126 1.86623,3.79781 2.96613,4.58384 l 0.43923,-2.48183 0.43924,-2.48183 0.44713,-1.21594 0.88109,-2.97449 c 1.21885,-4.11519 2.05453,-6.32314 2.90008,-7.66258 0.372,-0.58928 3.02605,-3.90791 5.89783,-7.37526 2.87177,-3.46734 7.41217,-8.95368 10.08982,-12.19151 2.67766,-3.23784 4.95943,-5.88698 5.07049,-5.88698 0.67862,0 1.04142,5.94184 0.52038,8.5199 -0.42245,2.09021 -3.06395,7.30759 -5.64048,11.14092 -1.25281,1.86391 -2.12897,3.30177 -1.94717,3.19515 2.86041,-1.67767 6.38823,-4.66128 8.40001,-7.10447 l 1.45521,-1.76734 0.37258,0.87954 c 0.43403,1.0233 -0.1977,17.24797 -1.77789,25.37632 -0.7901,4.06417 -2.204,12.59081 -3.9745,19.54727 -1.7705,6.95647 -4.03613,12.34277 -4.03613,12.34277 2.0788,3.88941 2.5046,0.79777 3.12466,1.25502 0.62007,0.45725 5.85004,-19.82686 6.62628,-24.70854 l 2.00324,-14.20353 1.5144,-16.50844 c -0.18543,-2.99 0.26865,-5.47043 -0.87243,-7.89543 -0.75743,-1.60969 -0.82999,-2.02163 -1.00304,-5.70353 -0.15315,-3.25848 -0.31602,-4.37123 -0.91054,-6.21771 -0.94832,-2.94525 -2.47433,-6.24702 -2.74299,-5.93504 z"
        id="path16-5" inkscape:label="VenstreVinge" sodipodi:nodetypes="ssscccccccsssssscsccsscscccsssss" />
    </g>
  </g>
  <g inkscape:groupmode="layer" id="Kropp" inkscape:label="Kropp">
    <g id="g32" inkscape:label="kropp" transform="translate(-7.3952872,-141.98951)">
      <path
        style="vector-effect:non-scaling-stroke;fill:#ffffff;fill-opacity:1;stroke:none;stroke-width:0.264583;stroke-opacity:1;-inkscape-stroke:hairline"
        d="m 71.67759,183.18601 -0.565995,-2.64131 3.584636,-1.88665 7.546602,-7.73527 6.414612,-0.94332 5.471287,3.20731 12.263228,11.69723 c 0,0 10.56524,10.94257 13.58389,14.90454 3.01864,3.96198 12.64055,17.92319 18.48917,19.9985 5.84862,2.07532 14.90454,2.26396 18.11185,1.88664 3.2073,-0.37732 5.84861,-0.75464 5.84861,-0.75464 l -0.37733,24.90377 c 0,0 -13.39521,-4.15062 -18.30051,-7.16928 -4.90529,-3.01863 -9.81058,-6.98061 -16.60252,-7.16926 -6.79194,-0.18867 -18.11185,0.75465 -25.84712,-4.3393 -7.735263,-5.09397 -13.20655,-12.26322 -15.470531,-18.30051 -2.26398,-6.03729 -2.075315,-20.56449 -6.414612,-22.63981 -4.339296,-2.07531 -7.735267,-3.01864 -7.735267,-3.01864 z"
        id="path31" inkscape:label="KroppHvit" />
      <path style="fill:#000000"
        d="m 160.99916,247.3774 c -8.55992,-1.76097 -14.15929,-4.14231 -22.19334,-9.43855 -5.45461,-3.5958 -5.61023,-3.63803 -14.53079,-3.94279 -9.52106,-0.32527 -12.90195,-0.78064 -17.88657,-2.40914 -6.624529,-2.16425 -13.464729,-7.11409 -17.658186,-12.77815 -3.8277,-5.17002 -5.77824,-10.64335 -7.20836,-20.22703 -0.97348,-6.52364 -2.44268,-9.91411 -5.26167,-12.14239 -1.13059,-0.89368 -1.67551,-1.11381 -3.65795,-1.47765 -3.87809,-0.71177 -1.53299,-4.79233 -1.53299,-4.79233 1.31197,-1.40293 2.39189,-2.90024 3.20265,-4.44044 3.93318,-7.47191 11.85459,-9.91997 18.866637,-5.83061 1.75987,1.02634 3.699557,3.93579 5.98202,5.97514 25.181109,22.49903 26.641809,31.96361 36.129319,39.60364 2.52982,2.0372 5.90489,3.03117 9.46003,3.61654 4.20753,0.6928 12.32006,0.21257 18.76279,-1.11068 l 0.85989,-0.17661 v 15.11432 c 0,8.31288 -0.0893,15.10222 -0.19843,15.08742 -0.10915,-0.0148 -1.51972,-0.29871 -3.13461,-0.63093 z m -1.00584,-24.40674 c -0.0616,-0.0616 -1.28343,0.0378 -2.7152,0.22097 -3.84946,0.49235 -11.09622,0.43497 -13.8668,-0.10981 -4.69057,-0.9223 -7.67737,-3.18925 -11.34844,-5.94444 -1.23812,-0.92922 -1.69307,-0.48566 -5.76704,-5.68952 -9.1605,-11.70112 -16.55056,-21.2118 -28.008027,-31.83326 -3.218296,-2.98347 -5.630022,-5.29228 -7.853902,-6.47769 -1.370567,-0.73057 -1.993107,-0.89285 -3.786457,-0.98702 -1.90928,-0.10027 -2.32472,-0.0326 -3.76301,0.61286 -1.98969,0.89292 -3.89906,2.83621 -5.0744,5.16455 l -0.8478,1.67948 0.5579,1.14833 c 0.30685,0.63158 0.5579,1.36308 0.5579,1.62556 0,0.26248 0.51611,0.84788 1.14692,1.30089 1.33798,0.96087 3.0037,3.05597 3.97966,5.00554 1.03712,2.07173 1.88616,5.32865 2.53875,9.73864 1.49241,10.08521 4.237267,16.24496 9.669517,21.69938 4.56874,4.58738 10.774549,7.70974 17.854729,8.98332 1.27756,0.22981 5.44888,0.52262 9.65729,0.67792 9.74026,0.35941 12.47387,0.88245 15.61042,2.98683 0.7276,0.48816 2.4725,1.66314 3.87756,2.61107 4.55445,3.07267 8.92114,5.08778 14.51098,6.69641 l 3.04271,0.87563 0.0694,-9.93689 c 0.0382,-5.46528 0.019,-9.98728 -0.0426,-10.04887 z M 83.993334,180.30413 c -0.72205,-0.29138 -1.41737,-1.27733 -1.41737,-2.00979 0,-0.3118 0.24676,-0.88062 0.54837,-1.26405 0.42298,-0.53773 0.78159,-0.69714 1.56829,-0.69714 2.18964,0 2.96058,2.85277 1.03941,3.84625 -0.84419,0.43655 -0.94763,0.44397 -1.7387,0.12473 z m -8.56211,1.916 c -0.002,-0.34573 -1.04075,-1.9192 -1.25189,-1.89583 -0.11128,0.0123 -0.60309,0.48856 -1.09291,1.05833 l -0.89059,1.03594 h 1.61819 c 0.89,0 1.61774,-0.0893 1.6172,-0.19844 z"
        id="path16-9" sodipodi:nodetypes="cssssssscsssssscssccccsssssssscssssssssssscsccsssssscsscsc"
        inkscape:label="Kropp" />
    </g>
  </g>
  <g inkscape:groupmode="HoyreVinge" id="HoyreVinge" inkscape:label="HoyreVinge">
    <g id="g34" inkscape:label="HoyreVinge" transform="translate(-7.3952872,-141.98951)">
      <path
        style="vector-effect:non-scaling-stroke;fill:#ffffff;fill-opacity:1;stroke:none;stroke-width:0.264583;stroke-opacity:1;-inkscape-stroke:hairline"
        d="m 127.12453,216.86761 -16.5196,-17.18539 16.82232,-17.06436 22.63146,-12.34443 21.90532,-15.37003 4.84095,-0.4841 -2.78355,15.24901 -2.0574,15.12798 -8.83474,11.37624 -4.23584,8.5927 c -1.18082,-0.008 -0.49689,-1.97812 -11.49727,8.35064 z"
        id="path29" inkscape:label="HoyreVingeHvit" sodipodi:nodetypes="cccccccccccc" />
      <path style="fill:#000000;fill-opacity:1"
        d="m 178.18336,150.03618 c -0.044,-0.044 -4.648,2.67956 -10.2309,6.05286 -5.58289,3.37331 -13.66314,8.25527 -17.95601,10.84843 l -7.54631,4.55786 -0.2589,0.15658 -5.1e-4,-0.0119 -4.64623,2.59313 c -0.56368,0.54485 -1.87206,1.39548 -4.39198,2.86546 -6.82907,3.98373 -8.08067,4.9165 -12.26075,9.13742 -2.8898,2.55613 -5.53551,5.15848 -8.00571,8.12354 0.0846,0.25382 -3.42668,3.73134 -4.95836,4.91081 l 3.64517,2.77013 c 1.36627,-0.25094 3.52208,-4.08363 6.21521,-6.5514 0.92779,-0.85016 2.75023,-2.76161 4.04937,-4.2478 3.98245,-4.55583 5.84352,-5.96654 15.54065,-11.77964 4.83001,-2.89542 13.66294,-8.22828 19.62929,-11.85044 13.64688,-8.28499 17.31191,-10.48411 17.46974,-10.48411 0.29654,0 0.0793,2.96841 -0.38034,5.19554 -0.66276,3.21143 -2.19131,6.37892 -4.15582,8.61343 -3.04393,3.46231 -8.76529,8.25484 -16.30701,13.66015 -2.29195,1.6427 -4.16719,3.0369 -4.16719,3.098 0,0.18522 4.1761,-1.40827 7.40833,-2.8267 4.25617,-1.86778 8.11336,-3.96236 11.46494,-6.22598 1.57622,-1.06455 2.91566,-1.93528 2.97656,-1.93528 0.59527,0 -0.69991,4.88083 -1.9973,7.52616 -3.04414,6.20688 -7.38861,9.48707 -19.32595,14.59084 -3.3366,1.42655 -6.01726,2.64268 -5.95726,2.70268 0.16563,0.16562 6.03486,-0.43482 8.82117,-0.90228 1.35517,-0.22736 3.52806,-0.74669 4.82865,-1.15445 1.30058,-0.40771 2.36419,-0.6297 2.36419,-0.49299 0,0.59644 -2.38084,3.70065 -4.34443,5.66425 -4.38724,4.38723 -10.08767,7.26037 -17.61598,8.87905 -2.45449,0.52778 -18.08871,2.20418 -7.47758,4.71439 0.26658,0.045 0.44112,0.0839 0.64388,0.12402 l 0.006,-0.006 1.30793,0.25425 2.5063,-0.10904 4.46846,-1.12603 0.0832,0.0243 c 12.63897,-2.66069 22.62242,-10.51339 26.13536,-20.60701 0.5924,-1.70215 0.95175,-2.23607 2.73988,-4.07521 3.29153,-3.38545 5.30714,-7.00012 6.54947,-11.74295 0.53509,-2.0428 0.69382,-3.40599 0.80306,-6.91017 0.12365,-3.96622 0.19604,-4.48479 0.79065,-5.66529 0.97723,-1.94015 1.93247,-6.03266 2.10529,-9.01909 0.12693,-2.19336 -0.29115,-9.0627 -0.56844,-9.33999 z"
        id="path23" inkscape:label="HoyreVinge" sodipodi:nodetypes="cscccccsccccsssssssssssssssssssssccccccsssssscc" />
    </g>
  </g>
  <g inkscape:groupmode="layer" id="layer5" inkscape:label="Konvolutt">
    <g id="g35" inkscape:label="Konvolutt">
      <path
        style="vector-effect:non-scaling-stroke;fill:#ffffff;fill-opacity:1;stroke:none;stroke-width:0.264583;stroke-opacity:1;-inkscape-stroke:hairline"
        d="m 1.5573579,41.227196 0.244793,39.90089 H 62.755046 l 0.24479,-40.14568 z" id="path32"
        inkscape:label="KonvoluttHvit" />
      <path id="path1-4" style="fill:#010002;stroke-width:0.132411"
        d="m 0.8233089,40.194596 v 42.60535 H 65.097676 V 40.194596 Z M 32.960811,66.505146 6.5980668,43.354866 H 59.322916 Z M 22.459085,61.489786 3.9835678,77.714156 v -32.44883 z m 2.394657,2.10324 8.106257,7.11877 8.106301,-7.11877 18.273156,16.04665 H 6.5815318 Z m 18.607385,-2.10242 18.476149,-16.22528 v 32.44883 z"
        inkscape:label="Konvolutt" />
    </g>
  </g>
</svg>