%TF.GenerationSoftware,KiCad,Pcbnew,8.0.1*%
%TF.CreationDate,2024-04-18T20:01:48+02:00*%
%TF.ProjectId,jump,6a756d70-2e6b-4696-9361-645f70636258,rev?*%
%TF.SameCoordinates,Original*%
%TF.FileFunction,Drillmap*%
%TF.FilePolarity,Positive*%
%FSLAX45Y45*%
G04 Gerber Fmt 4.5, Leading zero omitted, Abs format (unit mm)*
G04 Created by KiCad (PCBNEW 8.0.1) date 2024-04-18 20:01:48*
%MOMM*%
%LPD*%
G01*
G04 APERTURE LIST*
%ADD10C,0.050000*%
%ADD11C,0.200000*%
%ADD12C,0.100000*%
G04 APERTURE END LIST*
D10*
X6350000Y-5200000D02*
X8350000Y-5200000D01*
X8350000Y-8950000D01*
X6350000Y-8950000D01*
X6350000Y-5200000D01*
D11*
D12*
X6762500Y-8012500D02*
X6837500Y-8087500D01*
X6837500Y-8012500D02*
X6762500Y-8087500D01*
X6962500Y-8012500D02*
X7037500Y-8087500D01*
X7037500Y-8012500D02*
X6962500Y-8087500D01*
X6600000Y-5576000D02*
G75*
G02*
X6500000Y-5576000I-50000J0D01*
G01*
X6500000Y-5576000D02*
G75*
G02*
X6600000Y-5576000I50000J0D01*
G01*
X6600000Y-5830000D02*
G75*
G02*
X6500000Y-5830000I-50000J0D01*
G01*
X6500000Y-5830000D02*
G75*
G02*
X6600000Y-5830000I50000J0D01*
G01*
X6600000Y-6084000D02*
G75*
G02*
X6500000Y-6084000I-50000J0D01*
G01*
X6500000Y-6084000D02*
G75*
G02*
X6600000Y-6084000I50000J0D01*
G01*
X6600000Y-6338000D02*
G75*
G02*
X6500000Y-6338000I-50000J0D01*
G01*
X6500000Y-6338000D02*
G75*
G02*
X6600000Y-6338000I50000J0D01*
G01*
X6600000Y-6592000D02*
G75*
G02*
X6500000Y-6592000I-50000J0D01*
G01*
X6500000Y-6592000D02*
G75*
G02*
X6600000Y-6592000I50000J0D01*
G01*
X6600000Y-6846000D02*
G75*
G02*
X6500000Y-6846000I-50000J0D01*
G01*
X6500000Y-6846000D02*
G75*
G02*
X6600000Y-6846000I50000J0D01*
G01*
X6600000Y-7100000D02*
G75*
G02*
X6500000Y-7100000I-50000J0D01*
G01*
X6500000Y-7100000D02*
G75*
G02*
X6600000Y-7100000I50000J0D01*
G01*
X8150000Y-5600000D02*
G75*
G02*
X8050000Y-5600000I-50000J0D01*
G01*
X8050000Y-5600000D02*
G75*
G02*
X8150000Y-5600000I50000J0D01*
G01*
X8150000Y-5854000D02*
G75*
G02*
X8050000Y-5854000I-50000J0D01*
G01*
X8050000Y-5854000D02*
G75*
G02*
X8150000Y-5854000I50000J0D01*
G01*
X8150000Y-6108000D02*
G75*
G02*
X8050000Y-6108000I-50000J0D01*
G01*
X8050000Y-6108000D02*
G75*
G02*
X8150000Y-6108000I50000J0D01*
G01*
X8150000Y-6362000D02*
G75*
G02*
X8050000Y-6362000I-50000J0D01*
G01*
X8050000Y-6362000D02*
G75*
G02*
X8150000Y-6362000I50000J0D01*
G01*
X8150000Y-6616000D02*
G75*
G02*
X8050000Y-6616000I-50000J0D01*
G01*
X8050000Y-6616000D02*
G75*
G02*
X8150000Y-6616000I50000J0D01*
G01*
X8150000Y-6870000D02*
G75*
G02*
X8050000Y-6870000I-50000J0D01*
G01*
X8050000Y-6870000D02*
G75*
G02*
X8150000Y-6870000I50000J0D01*
G01*
X8150000Y-7124000D02*
G75*
G02*
X8050000Y-7124000I-50000J0D01*
G01*
X8050000Y-7124000D02*
G75*
G02*
X8150000Y-7124000I50000J0D01*
G01*
D11*
X6608277Y-9263984D02*
X6608277Y-9063984D01*
X6608277Y-9063984D02*
X6655896Y-9063984D01*
X6655896Y-9063984D02*
X6684467Y-9073508D01*
X6684467Y-9073508D02*
X6703515Y-9092555D01*
X6703515Y-9092555D02*
X6713039Y-9111603D01*
X6713039Y-9111603D02*
X6722562Y-9149698D01*
X6722562Y-9149698D02*
X6722562Y-9178270D01*
X6722562Y-9178270D02*
X6713039Y-9216365D01*
X6713039Y-9216365D02*
X6703515Y-9235412D01*
X6703515Y-9235412D02*
X6684467Y-9254460D01*
X6684467Y-9254460D02*
X6655896Y-9263984D01*
X6655896Y-9263984D02*
X6608277Y-9263984D01*
X6808277Y-9263984D02*
X6808277Y-9130650D01*
X6808277Y-9168746D02*
X6817801Y-9149698D01*
X6817801Y-9149698D02*
X6827324Y-9140174D01*
X6827324Y-9140174D02*
X6846372Y-9130650D01*
X6846372Y-9130650D02*
X6865420Y-9130650D01*
X6932086Y-9263984D02*
X6932086Y-9130650D01*
X6932086Y-9063984D02*
X6922562Y-9073508D01*
X6922562Y-9073508D02*
X6932086Y-9083031D01*
X6932086Y-9083031D02*
X6941610Y-9073508D01*
X6941610Y-9073508D02*
X6932086Y-9063984D01*
X6932086Y-9063984D02*
X6932086Y-9083031D01*
X7055896Y-9263984D02*
X7036848Y-9254460D01*
X7036848Y-9254460D02*
X7027324Y-9235412D01*
X7027324Y-9235412D02*
X7027324Y-9063984D01*
X7160658Y-9263984D02*
X7141610Y-9254460D01*
X7141610Y-9254460D02*
X7132086Y-9235412D01*
X7132086Y-9235412D02*
X7132086Y-9063984D01*
X7389229Y-9263984D02*
X7389229Y-9063984D01*
X7389229Y-9063984D02*
X7455896Y-9206841D01*
X7455896Y-9206841D02*
X7522562Y-9063984D01*
X7522562Y-9063984D02*
X7522562Y-9263984D01*
X7703515Y-9263984D02*
X7703515Y-9159222D01*
X7703515Y-9159222D02*
X7693991Y-9140174D01*
X7693991Y-9140174D02*
X7674943Y-9130650D01*
X7674943Y-9130650D02*
X7636848Y-9130650D01*
X7636848Y-9130650D02*
X7617801Y-9140174D01*
X7703515Y-9254460D02*
X7684467Y-9263984D01*
X7684467Y-9263984D02*
X7636848Y-9263984D01*
X7636848Y-9263984D02*
X7617801Y-9254460D01*
X7617801Y-9254460D02*
X7608277Y-9235412D01*
X7608277Y-9235412D02*
X7608277Y-9216365D01*
X7608277Y-9216365D02*
X7617801Y-9197317D01*
X7617801Y-9197317D02*
X7636848Y-9187793D01*
X7636848Y-9187793D02*
X7684467Y-9187793D01*
X7684467Y-9187793D02*
X7703515Y-9178270D01*
X7798753Y-9130650D02*
X7798753Y-9330650D01*
X7798753Y-9140174D02*
X7817801Y-9130650D01*
X7817801Y-9130650D02*
X7855896Y-9130650D01*
X7855896Y-9130650D02*
X7874943Y-9140174D01*
X7874943Y-9140174D02*
X7884467Y-9149698D01*
X7884467Y-9149698D02*
X7893991Y-9168746D01*
X7893991Y-9168746D02*
X7893991Y-9225889D01*
X7893991Y-9225889D02*
X7884467Y-9244936D01*
X7884467Y-9244936D02*
X7874943Y-9254460D01*
X7874943Y-9254460D02*
X7855896Y-9263984D01*
X7855896Y-9263984D02*
X7817801Y-9263984D01*
X7817801Y-9263984D02*
X7798753Y-9254460D01*
X7979705Y-9244936D02*
X7989229Y-9254460D01*
X7989229Y-9254460D02*
X7979705Y-9263984D01*
X7979705Y-9263984D02*
X7970182Y-9254460D01*
X7970182Y-9254460D02*
X7979705Y-9244936D01*
X7979705Y-9244936D02*
X7979705Y-9263984D01*
X7979705Y-9140174D02*
X7989229Y-9149698D01*
X7989229Y-9149698D02*
X7979705Y-9159222D01*
X7979705Y-9159222D02*
X7970182Y-9149698D01*
X7970182Y-9149698D02*
X7979705Y-9140174D01*
X7979705Y-9140174D02*
X7979705Y-9159222D01*
D12*
X6272500Y-9555000D02*
X6347500Y-9630000D01*
X6347500Y-9555000D02*
X6272500Y-9630000D01*
D11*
X6646372Y-9483984D02*
X6665420Y-9483984D01*
X6665420Y-9483984D02*
X6684467Y-9493508D01*
X6684467Y-9493508D02*
X6693991Y-9503031D01*
X6693991Y-9503031D02*
X6703515Y-9522079D01*
X6703515Y-9522079D02*
X6713039Y-9560174D01*
X6713039Y-9560174D02*
X6713039Y-9607793D01*
X6713039Y-9607793D02*
X6703515Y-9645889D01*
X6703515Y-9645889D02*
X6693991Y-9664936D01*
X6693991Y-9664936D02*
X6684467Y-9674460D01*
X6684467Y-9674460D02*
X6665420Y-9683984D01*
X6665420Y-9683984D02*
X6646372Y-9683984D01*
X6646372Y-9683984D02*
X6627324Y-9674460D01*
X6627324Y-9674460D02*
X6617801Y-9664936D01*
X6617801Y-9664936D02*
X6608277Y-9645889D01*
X6608277Y-9645889D02*
X6598753Y-9607793D01*
X6598753Y-9607793D02*
X6598753Y-9560174D01*
X6598753Y-9560174D02*
X6608277Y-9522079D01*
X6608277Y-9522079D02*
X6617801Y-9503031D01*
X6617801Y-9503031D02*
X6627324Y-9493508D01*
X6627324Y-9493508D02*
X6646372Y-9483984D01*
X6798753Y-9664936D02*
X6808277Y-9674460D01*
X6808277Y-9674460D02*
X6798753Y-9683984D01*
X6798753Y-9683984D02*
X6789229Y-9674460D01*
X6789229Y-9674460D02*
X6798753Y-9664936D01*
X6798753Y-9664936D02*
X6798753Y-9683984D01*
X6874943Y-9483984D02*
X7008277Y-9483984D01*
X7008277Y-9483984D02*
X6922562Y-9683984D01*
X7179705Y-9483984D02*
X7084467Y-9483984D01*
X7084467Y-9483984D02*
X7074943Y-9579222D01*
X7074943Y-9579222D02*
X7084467Y-9569698D01*
X7084467Y-9569698D02*
X7103515Y-9560174D01*
X7103515Y-9560174D02*
X7151134Y-9560174D01*
X7151134Y-9560174D02*
X7170182Y-9569698D01*
X7170182Y-9569698D02*
X7179705Y-9579222D01*
X7179705Y-9579222D02*
X7189229Y-9598270D01*
X7189229Y-9598270D02*
X7189229Y-9645889D01*
X7189229Y-9645889D02*
X7179705Y-9664936D01*
X7179705Y-9664936D02*
X7170182Y-9674460D01*
X7170182Y-9674460D02*
X7151134Y-9683984D01*
X7151134Y-9683984D02*
X7103515Y-9683984D01*
X7103515Y-9683984D02*
X7084467Y-9674460D01*
X7084467Y-9674460D02*
X7074943Y-9664936D01*
X7313039Y-9483984D02*
X7332086Y-9483984D01*
X7332086Y-9483984D02*
X7351134Y-9493508D01*
X7351134Y-9493508D02*
X7360658Y-9503031D01*
X7360658Y-9503031D02*
X7370182Y-9522079D01*
X7370182Y-9522079D02*
X7379705Y-9560174D01*
X7379705Y-9560174D02*
X7379705Y-9607793D01*
X7379705Y-9607793D02*
X7370182Y-9645889D01*
X7370182Y-9645889D02*
X7360658Y-9664936D01*
X7360658Y-9664936D02*
X7351134Y-9674460D01*
X7351134Y-9674460D02*
X7332086Y-9683984D01*
X7332086Y-9683984D02*
X7313039Y-9683984D01*
X7313039Y-9683984D02*
X7293991Y-9674460D01*
X7293991Y-9674460D02*
X7284467Y-9664936D01*
X7284467Y-9664936D02*
X7274943Y-9645889D01*
X7274943Y-9645889D02*
X7265420Y-9607793D01*
X7265420Y-9607793D02*
X7265420Y-9560174D01*
X7265420Y-9560174D02*
X7274943Y-9522079D01*
X7274943Y-9522079D02*
X7284467Y-9503031D01*
X7284467Y-9503031D02*
X7293991Y-9493508D01*
X7293991Y-9493508D02*
X7313039Y-9483984D01*
X7465420Y-9683984D02*
X7465420Y-9550650D01*
X7465420Y-9569698D02*
X7474943Y-9560174D01*
X7474943Y-9560174D02*
X7493991Y-9550650D01*
X7493991Y-9550650D02*
X7522563Y-9550650D01*
X7522563Y-9550650D02*
X7541610Y-9560174D01*
X7541610Y-9560174D02*
X7551134Y-9579222D01*
X7551134Y-9579222D02*
X7551134Y-9683984D01*
X7551134Y-9579222D02*
X7560658Y-9560174D01*
X7560658Y-9560174D02*
X7579705Y-9550650D01*
X7579705Y-9550650D02*
X7608277Y-9550650D01*
X7608277Y-9550650D02*
X7627324Y-9560174D01*
X7627324Y-9560174D02*
X7636848Y-9579222D01*
X7636848Y-9579222D02*
X7636848Y-9683984D01*
X7732086Y-9683984D02*
X7732086Y-9550650D01*
X7732086Y-9569698D02*
X7741610Y-9560174D01*
X7741610Y-9560174D02*
X7760658Y-9550650D01*
X7760658Y-9550650D02*
X7789229Y-9550650D01*
X7789229Y-9550650D02*
X7808277Y-9560174D01*
X7808277Y-9560174D02*
X7817801Y-9579222D01*
X7817801Y-9579222D02*
X7817801Y-9683984D01*
X7817801Y-9579222D02*
X7827324Y-9560174D01*
X7827324Y-9560174D02*
X7846372Y-9550650D01*
X7846372Y-9550650D02*
X7874943Y-9550650D01*
X7874943Y-9550650D02*
X7893991Y-9560174D01*
X7893991Y-9560174D02*
X7903515Y-9579222D01*
X7903515Y-9579222D02*
X7903515Y-9683984D01*
X8293991Y-9474460D02*
X8122563Y-9731603D01*
X8551134Y-9483984D02*
X8570182Y-9483984D01*
X8570182Y-9483984D02*
X8589229Y-9493508D01*
X8589229Y-9493508D02*
X8598753Y-9503031D01*
X8598753Y-9503031D02*
X8608277Y-9522079D01*
X8608277Y-9522079D02*
X8617801Y-9560174D01*
X8617801Y-9560174D02*
X8617801Y-9607793D01*
X8617801Y-9607793D02*
X8608277Y-9645889D01*
X8608277Y-9645889D02*
X8598753Y-9664936D01*
X8598753Y-9664936D02*
X8589229Y-9674460D01*
X8589229Y-9674460D02*
X8570182Y-9683984D01*
X8570182Y-9683984D02*
X8551134Y-9683984D01*
X8551134Y-9683984D02*
X8532087Y-9674460D01*
X8532087Y-9674460D02*
X8522563Y-9664936D01*
X8522563Y-9664936D02*
X8513039Y-9645889D01*
X8513039Y-9645889D02*
X8503515Y-9607793D01*
X8503515Y-9607793D02*
X8503515Y-9560174D01*
X8503515Y-9560174D02*
X8513039Y-9522079D01*
X8513039Y-9522079D02*
X8522563Y-9503031D01*
X8522563Y-9503031D02*
X8532087Y-9493508D01*
X8532087Y-9493508D02*
X8551134Y-9483984D01*
X8703515Y-9664936D02*
X8713039Y-9674460D01*
X8713039Y-9674460D02*
X8703515Y-9683984D01*
X8703515Y-9683984D02*
X8693991Y-9674460D01*
X8693991Y-9674460D02*
X8703515Y-9664936D01*
X8703515Y-9664936D02*
X8703515Y-9683984D01*
X8836848Y-9483984D02*
X8855896Y-9483984D01*
X8855896Y-9483984D02*
X8874944Y-9493508D01*
X8874944Y-9493508D02*
X8884468Y-9503031D01*
X8884468Y-9503031D02*
X8893991Y-9522079D01*
X8893991Y-9522079D02*
X8903515Y-9560174D01*
X8903515Y-9560174D02*
X8903515Y-9607793D01*
X8903515Y-9607793D02*
X8893991Y-9645889D01*
X8893991Y-9645889D02*
X8884468Y-9664936D01*
X8884468Y-9664936D02*
X8874944Y-9674460D01*
X8874944Y-9674460D02*
X8855896Y-9683984D01*
X8855896Y-9683984D02*
X8836848Y-9683984D01*
X8836848Y-9683984D02*
X8817801Y-9674460D01*
X8817801Y-9674460D02*
X8808277Y-9664936D01*
X8808277Y-9664936D02*
X8798753Y-9645889D01*
X8798753Y-9645889D02*
X8789229Y-9607793D01*
X8789229Y-9607793D02*
X8789229Y-9560174D01*
X8789229Y-9560174D02*
X8798753Y-9522079D01*
X8798753Y-9522079D02*
X8808277Y-9503031D01*
X8808277Y-9503031D02*
X8817801Y-9493508D01*
X8817801Y-9493508D02*
X8836848Y-9483984D01*
X8979706Y-9503031D02*
X8989229Y-9493508D01*
X8989229Y-9493508D02*
X9008277Y-9483984D01*
X9008277Y-9483984D02*
X9055896Y-9483984D01*
X9055896Y-9483984D02*
X9074944Y-9493508D01*
X9074944Y-9493508D02*
X9084468Y-9503031D01*
X9084468Y-9503031D02*
X9093991Y-9522079D01*
X9093991Y-9522079D02*
X9093991Y-9541127D01*
X9093991Y-9541127D02*
X9084468Y-9569698D01*
X9084468Y-9569698D02*
X8970182Y-9683984D01*
X8970182Y-9683984D02*
X9093991Y-9683984D01*
X9189229Y-9683984D02*
X9227325Y-9683984D01*
X9227325Y-9683984D02*
X9246372Y-9674460D01*
X9246372Y-9674460D02*
X9255896Y-9664936D01*
X9255896Y-9664936D02*
X9274944Y-9636365D01*
X9274944Y-9636365D02*
X9284468Y-9598270D01*
X9284468Y-9598270D02*
X9284468Y-9522079D01*
X9284468Y-9522079D02*
X9274944Y-9503031D01*
X9274944Y-9503031D02*
X9265420Y-9493508D01*
X9265420Y-9493508D02*
X9246372Y-9483984D01*
X9246372Y-9483984D02*
X9208277Y-9483984D01*
X9208277Y-9483984D02*
X9189229Y-9493508D01*
X9189229Y-9493508D02*
X9179706Y-9503031D01*
X9179706Y-9503031D02*
X9170182Y-9522079D01*
X9170182Y-9522079D02*
X9170182Y-9569698D01*
X9170182Y-9569698D02*
X9179706Y-9588746D01*
X9179706Y-9588746D02*
X9189229Y-9598270D01*
X9189229Y-9598270D02*
X9208277Y-9607793D01*
X9208277Y-9607793D02*
X9246372Y-9607793D01*
X9246372Y-9607793D02*
X9265420Y-9598270D01*
X9265420Y-9598270D02*
X9274944Y-9588746D01*
X9274944Y-9588746D02*
X9284468Y-9569698D01*
X9465420Y-9483984D02*
X9370182Y-9483984D01*
X9370182Y-9483984D02*
X9360658Y-9579222D01*
X9360658Y-9579222D02*
X9370182Y-9569698D01*
X9370182Y-9569698D02*
X9389229Y-9560174D01*
X9389229Y-9560174D02*
X9436849Y-9560174D01*
X9436849Y-9560174D02*
X9455896Y-9569698D01*
X9455896Y-9569698D02*
X9465420Y-9579222D01*
X9465420Y-9579222D02*
X9474944Y-9598270D01*
X9474944Y-9598270D02*
X9474944Y-9645889D01*
X9474944Y-9645889D02*
X9465420Y-9664936D01*
X9465420Y-9664936D02*
X9455896Y-9674460D01*
X9455896Y-9674460D02*
X9436849Y-9683984D01*
X9436849Y-9683984D02*
X9389229Y-9683984D01*
X9389229Y-9683984D02*
X9370182Y-9674460D01*
X9370182Y-9674460D02*
X9360658Y-9664936D01*
X9551134Y-9483984D02*
X9551134Y-9522079D01*
X9627325Y-9483984D02*
X9627325Y-9522079D01*
X9922563Y-9760174D02*
X9913039Y-9750650D01*
X9913039Y-9750650D02*
X9893991Y-9722079D01*
X9893991Y-9722079D02*
X9884468Y-9703031D01*
X9884468Y-9703031D02*
X9874944Y-9674460D01*
X9874944Y-9674460D02*
X9865420Y-9626841D01*
X9865420Y-9626841D02*
X9865420Y-9588746D01*
X9865420Y-9588746D02*
X9874944Y-9541127D01*
X9874944Y-9541127D02*
X9884468Y-9512555D01*
X9884468Y-9512555D02*
X9893991Y-9493508D01*
X9893991Y-9493508D02*
X9913039Y-9464936D01*
X9913039Y-9464936D02*
X9922563Y-9455412D01*
X9989230Y-9503031D02*
X9998753Y-9493508D01*
X9998753Y-9493508D02*
X10017801Y-9483984D01*
X10017801Y-9483984D02*
X10065420Y-9483984D01*
X10065420Y-9483984D02*
X10084468Y-9493508D01*
X10084468Y-9493508D02*
X10093991Y-9503031D01*
X10093991Y-9503031D02*
X10103515Y-9522079D01*
X10103515Y-9522079D02*
X10103515Y-9541127D01*
X10103515Y-9541127D02*
X10093991Y-9569698D01*
X10093991Y-9569698D02*
X9979706Y-9683984D01*
X9979706Y-9683984D02*
X10103515Y-9683984D01*
X10341611Y-9683984D02*
X10341611Y-9483984D01*
X10427325Y-9683984D02*
X10427325Y-9579222D01*
X10427325Y-9579222D02*
X10417801Y-9560174D01*
X10417801Y-9560174D02*
X10398753Y-9550650D01*
X10398753Y-9550650D02*
X10370182Y-9550650D01*
X10370182Y-9550650D02*
X10351134Y-9560174D01*
X10351134Y-9560174D02*
X10341611Y-9569698D01*
X10551134Y-9683984D02*
X10532087Y-9674460D01*
X10532087Y-9674460D02*
X10522563Y-9664936D01*
X10522563Y-9664936D02*
X10513039Y-9645889D01*
X10513039Y-9645889D02*
X10513039Y-9588746D01*
X10513039Y-9588746D02*
X10522563Y-9569698D01*
X10522563Y-9569698D02*
X10532087Y-9560174D01*
X10532087Y-9560174D02*
X10551134Y-9550650D01*
X10551134Y-9550650D02*
X10579706Y-9550650D01*
X10579706Y-9550650D02*
X10598753Y-9560174D01*
X10598753Y-9560174D02*
X10608277Y-9569698D01*
X10608277Y-9569698D02*
X10617801Y-9588746D01*
X10617801Y-9588746D02*
X10617801Y-9645889D01*
X10617801Y-9645889D02*
X10608277Y-9664936D01*
X10608277Y-9664936D02*
X10598753Y-9674460D01*
X10598753Y-9674460D02*
X10579706Y-9683984D01*
X10579706Y-9683984D02*
X10551134Y-9683984D01*
X10732087Y-9683984D02*
X10713039Y-9674460D01*
X10713039Y-9674460D02*
X10703515Y-9655412D01*
X10703515Y-9655412D02*
X10703515Y-9483984D01*
X10884468Y-9674460D02*
X10865420Y-9683984D01*
X10865420Y-9683984D02*
X10827325Y-9683984D01*
X10827325Y-9683984D02*
X10808277Y-9674460D01*
X10808277Y-9674460D02*
X10798753Y-9655412D01*
X10798753Y-9655412D02*
X10798753Y-9579222D01*
X10798753Y-9579222D02*
X10808277Y-9560174D01*
X10808277Y-9560174D02*
X10827325Y-9550650D01*
X10827325Y-9550650D02*
X10865420Y-9550650D01*
X10865420Y-9550650D02*
X10884468Y-9560174D01*
X10884468Y-9560174D02*
X10893992Y-9579222D01*
X10893992Y-9579222D02*
X10893992Y-9598270D01*
X10893992Y-9598270D02*
X10798753Y-9617317D01*
X10970182Y-9674460D02*
X10989230Y-9683984D01*
X10989230Y-9683984D02*
X11027325Y-9683984D01*
X11027325Y-9683984D02*
X11046373Y-9674460D01*
X11046373Y-9674460D02*
X11055896Y-9655412D01*
X11055896Y-9655412D02*
X11055896Y-9645889D01*
X11055896Y-9645889D02*
X11046373Y-9626841D01*
X11046373Y-9626841D02*
X11027325Y-9617317D01*
X11027325Y-9617317D02*
X10998753Y-9617317D01*
X10998753Y-9617317D02*
X10979706Y-9607793D01*
X10979706Y-9607793D02*
X10970182Y-9588746D01*
X10970182Y-9588746D02*
X10970182Y-9579222D01*
X10970182Y-9579222D02*
X10979706Y-9560174D01*
X10979706Y-9560174D02*
X10998753Y-9550650D01*
X10998753Y-9550650D02*
X11027325Y-9550650D01*
X11027325Y-9550650D02*
X11046373Y-9560174D01*
X11122563Y-9760174D02*
X11132087Y-9750650D01*
X11132087Y-9750650D02*
X11151134Y-9722079D01*
X11151134Y-9722079D02*
X11160658Y-9703031D01*
X11160658Y-9703031D02*
X11170182Y-9674460D01*
X11170182Y-9674460D02*
X11179706Y-9626841D01*
X11179706Y-9626841D02*
X11179706Y-9588746D01*
X11179706Y-9588746D02*
X11170182Y-9541127D01*
X11170182Y-9541127D02*
X11160658Y-9512555D01*
X11160658Y-9512555D02*
X11151134Y-9493508D01*
X11151134Y-9493508D02*
X11132087Y-9464936D01*
X11132087Y-9464936D02*
X11122563Y-9455412D01*
D12*
X6347500Y-9856500D02*
G75*
G02*
X6247500Y-9856500I-50000J0D01*
G01*
X6247500Y-9856500D02*
G75*
G02*
X6347500Y-9856500I50000J0D01*
G01*
D11*
X6713039Y-9947984D02*
X6598753Y-9947984D01*
X6655896Y-9947984D02*
X6655896Y-9747984D01*
X6655896Y-9747984D02*
X6636848Y-9776555D01*
X6636848Y-9776555D02*
X6617801Y-9795603D01*
X6617801Y-9795603D02*
X6598753Y-9805127D01*
X6798753Y-9928936D02*
X6808277Y-9938460D01*
X6808277Y-9938460D02*
X6798753Y-9947984D01*
X6798753Y-9947984D02*
X6789229Y-9938460D01*
X6789229Y-9938460D02*
X6798753Y-9928936D01*
X6798753Y-9928936D02*
X6798753Y-9947984D01*
X6932086Y-9747984D02*
X6951134Y-9747984D01*
X6951134Y-9747984D02*
X6970182Y-9757508D01*
X6970182Y-9757508D02*
X6979705Y-9767031D01*
X6979705Y-9767031D02*
X6989229Y-9786079D01*
X6989229Y-9786079D02*
X6998753Y-9824174D01*
X6998753Y-9824174D02*
X6998753Y-9871793D01*
X6998753Y-9871793D02*
X6989229Y-9909889D01*
X6989229Y-9909889D02*
X6979705Y-9928936D01*
X6979705Y-9928936D02*
X6970182Y-9938460D01*
X6970182Y-9938460D02*
X6951134Y-9947984D01*
X6951134Y-9947984D02*
X6932086Y-9947984D01*
X6932086Y-9947984D02*
X6913039Y-9938460D01*
X6913039Y-9938460D02*
X6903515Y-9928936D01*
X6903515Y-9928936D02*
X6893991Y-9909889D01*
X6893991Y-9909889D02*
X6884467Y-9871793D01*
X6884467Y-9871793D02*
X6884467Y-9824174D01*
X6884467Y-9824174D02*
X6893991Y-9786079D01*
X6893991Y-9786079D02*
X6903515Y-9767031D01*
X6903515Y-9767031D02*
X6913039Y-9757508D01*
X6913039Y-9757508D02*
X6932086Y-9747984D01*
X7122562Y-9747984D02*
X7141610Y-9747984D01*
X7141610Y-9747984D02*
X7160658Y-9757508D01*
X7160658Y-9757508D02*
X7170182Y-9767031D01*
X7170182Y-9767031D02*
X7179705Y-9786079D01*
X7179705Y-9786079D02*
X7189229Y-9824174D01*
X7189229Y-9824174D02*
X7189229Y-9871793D01*
X7189229Y-9871793D02*
X7179705Y-9909889D01*
X7179705Y-9909889D02*
X7170182Y-9928936D01*
X7170182Y-9928936D02*
X7160658Y-9938460D01*
X7160658Y-9938460D02*
X7141610Y-9947984D01*
X7141610Y-9947984D02*
X7122562Y-9947984D01*
X7122562Y-9947984D02*
X7103515Y-9938460D01*
X7103515Y-9938460D02*
X7093991Y-9928936D01*
X7093991Y-9928936D02*
X7084467Y-9909889D01*
X7084467Y-9909889D02*
X7074943Y-9871793D01*
X7074943Y-9871793D02*
X7074943Y-9824174D01*
X7074943Y-9824174D02*
X7084467Y-9786079D01*
X7084467Y-9786079D02*
X7093991Y-9767031D01*
X7093991Y-9767031D02*
X7103515Y-9757508D01*
X7103515Y-9757508D02*
X7122562Y-9747984D01*
X7313039Y-9747984D02*
X7332086Y-9747984D01*
X7332086Y-9747984D02*
X7351134Y-9757508D01*
X7351134Y-9757508D02*
X7360658Y-9767031D01*
X7360658Y-9767031D02*
X7370182Y-9786079D01*
X7370182Y-9786079D02*
X7379705Y-9824174D01*
X7379705Y-9824174D02*
X7379705Y-9871793D01*
X7379705Y-9871793D02*
X7370182Y-9909889D01*
X7370182Y-9909889D02*
X7360658Y-9928936D01*
X7360658Y-9928936D02*
X7351134Y-9938460D01*
X7351134Y-9938460D02*
X7332086Y-9947984D01*
X7332086Y-9947984D02*
X7313039Y-9947984D01*
X7313039Y-9947984D02*
X7293991Y-9938460D01*
X7293991Y-9938460D02*
X7284467Y-9928936D01*
X7284467Y-9928936D02*
X7274943Y-9909889D01*
X7274943Y-9909889D02*
X7265420Y-9871793D01*
X7265420Y-9871793D02*
X7265420Y-9824174D01*
X7265420Y-9824174D02*
X7274943Y-9786079D01*
X7274943Y-9786079D02*
X7284467Y-9767031D01*
X7284467Y-9767031D02*
X7293991Y-9757508D01*
X7293991Y-9757508D02*
X7313039Y-9747984D01*
X7465420Y-9947984D02*
X7465420Y-9814650D01*
X7465420Y-9833698D02*
X7474943Y-9824174D01*
X7474943Y-9824174D02*
X7493991Y-9814650D01*
X7493991Y-9814650D02*
X7522563Y-9814650D01*
X7522563Y-9814650D02*
X7541610Y-9824174D01*
X7541610Y-9824174D02*
X7551134Y-9843222D01*
X7551134Y-9843222D02*
X7551134Y-9947984D01*
X7551134Y-9843222D02*
X7560658Y-9824174D01*
X7560658Y-9824174D02*
X7579705Y-9814650D01*
X7579705Y-9814650D02*
X7608277Y-9814650D01*
X7608277Y-9814650D02*
X7627324Y-9824174D01*
X7627324Y-9824174D02*
X7636848Y-9843222D01*
X7636848Y-9843222D02*
X7636848Y-9947984D01*
X7732086Y-9947984D02*
X7732086Y-9814650D01*
X7732086Y-9833698D02*
X7741610Y-9824174D01*
X7741610Y-9824174D02*
X7760658Y-9814650D01*
X7760658Y-9814650D02*
X7789229Y-9814650D01*
X7789229Y-9814650D02*
X7808277Y-9824174D01*
X7808277Y-9824174D02*
X7817801Y-9843222D01*
X7817801Y-9843222D02*
X7817801Y-9947984D01*
X7817801Y-9843222D02*
X7827324Y-9824174D01*
X7827324Y-9824174D02*
X7846372Y-9814650D01*
X7846372Y-9814650D02*
X7874943Y-9814650D01*
X7874943Y-9814650D02*
X7893991Y-9824174D01*
X7893991Y-9824174D02*
X7903515Y-9843222D01*
X7903515Y-9843222D02*
X7903515Y-9947984D01*
X8293991Y-9738460D02*
X8122563Y-9995603D01*
X8551134Y-9747984D02*
X8570182Y-9747984D01*
X8570182Y-9747984D02*
X8589229Y-9757508D01*
X8589229Y-9757508D02*
X8598753Y-9767031D01*
X8598753Y-9767031D02*
X8608277Y-9786079D01*
X8608277Y-9786079D02*
X8617801Y-9824174D01*
X8617801Y-9824174D02*
X8617801Y-9871793D01*
X8617801Y-9871793D02*
X8608277Y-9909889D01*
X8608277Y-9909889D02*
X8598753Y-9928936D01*
X8598753Y-9928936D02*
X8589229Y-9938460D01*
X8589229Y-9938460D02*
X8570182Y-9947984D01*
X8570182Y-9947984D02*
X8551134Y-9947984D01*
X8551134Y-9947984D02*
X8532087Y-9938460D01*
X8532087Y-9938460D02*
X8522563Y-9928936D01*
X8522563Y-9928936D02*
X8513039Y-9909889D01*
X8513039Y-9909889D02*
X8503515Y-9871793D01*
X8503515Y-9871793D02*
X8503515Y-9824174D01*
X8503515Y-9824174D02*
X8513039Y-9786079D01*
X8513039Y-9786079D02*
X8522563Y-9767031D01*
X8522563Y-9767031D02*
X8532087Y-9757508D01*
X8532087Y-9757508D02*
X8551134Y-9747984D01*
X8703515Y-9928936D02*
X8713039Y-9938460D01*
X8713039Y-9938460D02*
X8703515Y-9947984D01*
X8703515Y-9947984D02*
X8693991Y-9938460D01*
X8693991Y-9938460D02*
X8703515Y-9928936D01*
X8703515Y-9928936D02*
X8703515Y-9947984D01*
X8836848Y-9747984D02*
X8855896Y-9747984D01*
X8855896Y-9747984D02*
X8874944Y-9757508D01*
X8874944Y-9757508D02*
X8884468Y-9767031D01*
X8884468Y-9767031D02*
X8893991Y-9786079D01*
X8893991Y-9786079D02*
X8903515Y-9824174D01*
X8903515Y-9824174D02*
X8903515Y-9871793D01*
X8903515Y-9871793D02*
X8893991Y-9909889D01*
X8893991Y-9909889D02*
X8884468Y-9928936D01*
X8884468Y-9928936D02*
X8874944Y-9938460D01*
X8874944Y-9938460D02*
X8855896Y-9947984D01*
X8855896Y-9947984D02*
X8836848Y-9947984D01*
X8836848Y-9947984D02*
X8817801Y-9938460D01*
X8817801Y-9938460D02*
X8808277Y-9928936D01*
X8808277Y-9928936D02*
X8798753Y-9909889D01*
X8798753Y-9909889D02*
X8789229Y-9871793D01*
X8789229Y-9871793D02*
X8789229Y-9824174D01*
X8789229Y-9824174D02*
X8798753Y-9786079D01*
X8798753Y-9786079D02*
X8808277Y-9767031D01*
X8808277Y-9767031D02*
X8817801Y-9757508D01*
X8817801Y-9757508D02*
X8836848Y-9747984D01*
X8970182Y-9747984D02*
X9093991Y-9747984D01*
X9093991Y-9747984D02*
X9027325Y-9824174D01*
X9027325Y-9824174D02*
X9055896Y-9824174D01*
X9055896Y-9824174D02*
X9074944Y-9833698D01*
X9074944Y-9833698D02*
X9084468Y-9843222D01*
X9084468Y-9843222D02*
X9093991Y-9862270D01*
X9093991Y-9862270D02*
X9093991Y-9909889D01*
X9093991Y-9909889D02*
X9084468Y-9928936D01*
X9084468Y-9928936D02*
X9074944Y-9938460D01*
X9074944Y-9938460D02*
X9055896Y-9947984D01*
X9055896Y-9947984D02*
X8998753Y-9947984D01*
X8998753Y-9947984D02*
X8979706Y-9938460D01*
X8979706Y-9938460D02*
X8970182Y-9928936D01*
X9189229Y-9947984D02*
X9227325Y-9947984D01*
X9227325Y-9947984D02*
X9246372Y-9938460D01*
X9246372Y-9938460D02*
X9255896Y-9928936D01*
X9255896Y-9928936D02*
X9274944Y-9900365D01*
X9274944Y-9900365D02*
X9284468Y-9862270D01*
X9284468Y-9862270D02*
X9284468Y-9786079D01*
X9284468Y-9786079D02*
X9274944Y-9767031D01*
X9274944Y-9767031D02*
X9265420Y-9757508D01*
X9265420Y-9757508D02*
X9246372Y-9747984D01*
X9246372Y-9747984D02*
X9208277Y-9747984D01*
X9208277Y-9747984D02*
X9189229Y-9757508D01*
X9189229Y-9757508D02*
X9179706Y-9767031D01*
X9179706Y-9767031D02*
X9170182Y-9786079D01*
X9170182Y-9786079D02*
X9170182Y-9833698D01*
X9170182Y-9833698D02*
X9179706Y-9852746D01*
X9179706Y-9852746D02*
X9189229Y-9862270D01*
X9189229Y-9862270D02*
X9208277Y-9871793D01*
X9208277Y-9871793D02*
X9246372Y-9871793D01*
X9246372Y-9871793D02*
X9265420Y-9862270D01*
X9265420Y-9862270D02*
X9274944Y-9852746D01*
X9274944Y-9852746D02*
X9284468Y-9833698D01*
X9455896Y-9814650D02*
X9455896Y-9947984D01*
X9408277Y-9738460D02*
X9360658Y-9881317D01*
X9360658Y-9881317D02*
X9484468Y-9881317D01*
X9551134Y-9747984D02*
X9551134Y-9786079D01*
X9627325Y-9747984D02*
X9627325Y-9786079D01*
X9922563Y-10024174D02*
X9913039Y-10014650D01*
X9913039Y-10014650D02*
X9893991Y-9986079D01*
X9893991Y-9986079D02*
X9884468Y-9967031D01*
X9884468Y-9967031D02*
X9874944Y-9938460D01*
X9874944Y-9938460D02*
X9865420Y-9890841D01*
X9865420Y-9890841D02*
X9865420Y-9852746D01*
X9865420Y-9852746D02*
X9874944Y-9805127D01*
X9874944Y-9805127D02*
X9884468Y-9776555D01*
X9884468Y-9776555D02*
X9893991Y-9757508D01*
X9893991Y-9757508D02*
X9913039Y-9728936D01*
X9913039Y-9728936D02*
X9922563Y-9719412D01*
X10103515Y-9947984D02*
X9989230Y-9947984D01*
X10046372Y-9947984D02*
X10046372Y-9747984D01*
X10046372Y-9747984D02*
X10027325Y-9776555D01*
X10027325Y-9776555D02*
X10008277Y-9795603D01*
X10008277Y-9795603D02*
X9989230Y-9805127D01*
X10274944Y-9814650D02*
X10274944Y-9947984D01*
X10227325Y-9738460D02*
X10179706Y-9881317D01*
X10179706Y-9881317D02*
X10303515Y-9881317D01*
X10532087Y-9947984D02*
X10532087Y-9747984D01*
X10617801Y-9947984D02*
X10617801Y-9843222D01*
X10617801Y-9843222D02*
X10608277Y-9824174D01*
X10608277Y-9824174D02*
X10589230Y-9814650D01*
X10589230Y-9814650D02*
X10560658Y-9814650D01*
X10560658Y-9814650D02*
X10541611Y-9824174D01*
X10541611Y-9824174D02*
X10532087Y-9833698D01*
X10741611Y-9947984D02*
X10722563Y-9938460D01*
X10722563Y-9938460D02*
X10713039Y-9928936D01*
X10713039Y-9928936D02*
X10703515Y-9909889D01*
X10703515Y-9909889D02*
X10703515Y-9852746D01*
X10703515Y-9852746D02*
X10713039Y-9833698D01*
X10713039Y-9833698D02*
X10722563Y-9824174D01*
X10722563Y-9824174D02*
X10741611Y-9814650D01*
X10741611Y-9814650D02*
X10770182Y-9814650D01*
X10770182Y-9814650D02*
X10789230Y-9824174D01*
X10789230Y-9824174D02*
X10798753Y-9833698D01*
X10798753Y-9833698D02*
X10808277Y-9852746D01*
X10808277Y-9852746D02*
X10808277Y-9909889D01*
X10808277Y-9909889D02*
X10798753Y-9928936D01*
X10798753Y-9928936D02*
X10789230Y-9938460D01*
X10789230Y-9938460D02*
X10770182Y-9947984D01*
X10770182Y-9947984D02*
X10741611Y-9947984D01*
X10922563Y-9947984D02*
X10903515Y-9938460D01*
X10903515Y-9938460D02*
X10893992Y-9919412D01*
X10893992Y-9919412D02*
X10893992Y-9747984D01*
X11074944Y-9938460D02*
X11055896Y-9947984D01*
X11055896Y-9947984D02*
X11017801Y-9947984D01*
X11017801Y-9947984D02*
X10998753Y-9938460D01*
X10998753Y-9938460D02*
X10989230Y-9919412D01*
X10989230Y-9919412D02*
X10989230Y-9843222D01*
X10989230Y-9843222D02*
X10998753Y-9824174D01*
X10998753Y-9824174D02*
X11017801Y-9814650D01*
X11017801Y-9814650D02*
X11055896Y-9814650D01*
X11055896Y-9814650D02*
X11074944Y-9824174D01*
X11074944Y-9824174D02*
X11084468Y-9843222D01*
X11084468Y-9843222D02*
X11084468Y-9862270D01*
X11084468Y-9862270D02*
X10989230Y-9881317D01*
X11160658Y-9938460D02*
X11179706Y-9947984D01*
X11179706Y-9947984D02*
X11217801Y-9947984D01*
X11217801Y-9947984D02*
X11236849Y-9938460D01*
X11236849Y-9938460D02*
X11246372Y-9919412D01*
X11246372Y-9919412D02*
X11246372Y-9909889D01*
X11246372Y-9909889D02*
X11236849Y-9890841D01*
X11236849Y-9890841D02*
X11217801Y-9881317D01*
X11217801Y-9881317D02*
X11189230Y-9881317D01*
X11189230Y-9881317D02*
X11170182Y-9871793D01*
X11170182Y-9871793D02*
X11160658Y-9852746D01*
X11160658Y-9852746D02*
X11160658Y-9843222D01*
X11160658Y-9843222D02*
X11170182Y-9824174D01*
X11170182Y-9824174D02*
X11189230Y-9814650D01*
X11189230Y-9814650D02*
X11217801Y-9814650D01*
X11217801Y-9814650D02*
X11236849Y-9824174D01*
X11313039Y-10024174D02*
X11322563Y-10014650D01*
X11322563Y-10014650D02*
X11341611Y-9986079D01*
X11341611Y-9986079D02*
X11351134Y-9967031D01*
X11351134Y-9967031D02*
X11360658Y-9938460D01*
X11360658Y-9938460D02*
X11370182Y-9890841D01*
X11370182Y-9890841D02*
X11370182Y-9852746D01*
X11370182Y-9852746D02*
X11360658Y-9805127D01*
X11360658Y-9805127D02*
X11351134Y-9776555D01*
X11351134Y-9776555D02*
X11341611Y-9757508D01*
X11341611Y-9757508D02*
X11322563Y-9728936D01*
X11322563Y-9728936D02*
X11313039Y-9719412D01*
M02*
