%TF.GenerationSoftware,KiCad,Pcbnew,8.0.1*%
%TF.CreationDate,2024-04-18T20:01:48+02:00*%
%TF.ProjectId,jump,6a756d70-2e6b-4696-9361-645f70636258,rev?*%
%TF.SameCoordinates,Original*%
%TF.FileFunction,Drillmap*%
%TF.FilePolarity,Positive*%
%FSLAX45Y45*%
G04 Gerber Fmt 4.5, Leading zero omitted, Abs format (unit mm)*
G04 Created by KiCad (PCBNEW 8.0.1) date 2024-04-18 20:01:48*
%MOMM*%
%LPD*%
G01*
G04 APERTURE LIST*
%ADD10C,0.050000*%
%ADD11C,0.200000*%
G04 APERTURE END LIST*
D10*
X6350000Y-5200000D02*
X8350000Y-5200000D01*
X8350000Y-8950000D01*
X6350000Y-8950000D01*
X6350000Y-5200000D01*
D11*
X6608277Y-9263984D02*
X6608277Y-9063984D01*
X6608277Y-9063984D02*
X6655896Y-9063984D01*
X6655896Y-9063984D02*
X6684467Y-9073508D01*
X6684467Y-9073508D02*
X6703515Y-9092555D01*
X6703515Y-9092555D02*
X6713039Y-9111603D01*
X6713039Y-9111603D02*
X6722562Y-9149698D01*
X6722562Y-9149698D02*
X6722562Y-9178270D01*
X6722562Y-9178270D02*
X6713039Y-9216365D01*
X6713039Y-9216365D02*
X6703515Y-9235412D01*
X6703515Y-9235412D02*
X6684467Y-9254460D01*
X6684467Y-9254460D02*
X6655896Y-9263984D01*
X6655896Y-9263984D02*
X6608277Y-9263984D01*
X6808277Y-9263984D02*
X6808277Y-9130650D01*
X6808277Y-9168746D02*
X6817801Y-9149698D01*
X6817801Y-9149698D02*
X6827324Y-9140174D01*
X6827324Y-9140174D02*
X6846372Y-9130650D01*
X6846372Y-9130650D02*
X6865420Y-9130650D01*
X6932086Y-9263984D02*
X6932086Y-9130650D01*
X6932086Y-9063984D02*
X6922562Y-9073508D01*
X6922562Y-9073508D02*
X6932086Y-9083031D01*
X6932086Y-9083031D02*
X6941610Y-9073508D01*
X6941610Y-9073508D02*
X6932086Y-9063984D01*
X6932086Y-9063984D02*
X6932086Y-9083031D01*
X7055896Y-9263984D02*
X7036848Y-9254460D01*
X7036848Y-9254460D02*
X7027324Y-9235412D01*
X7027324Y-9235412D02*
X7027324Y-9063984D01*
X7160658Y-9263984D02*
X7141610Y-9254460D01*
X7141610Y-9254460D02*
X7132086Y-9235412D01*
X7132086Y-9235412D02*
X7132086Y-9063984D01*
X7389229Y-9263984D02*
X7389229Y-9063984D01*
X7389229Y-9063984D02*
X7455896Y-9206841D01*
X7455896Y-9206841D02*
X7522562Y-9063984D01*
X7522562Y-9063984D02*
X7522562Y-9263984D01*
X7703515Y-9263984D02*
X7703515Y-9159222D01*
X7703515Y-9159222D02*
X7693991Y-9140174D01*
X7693991Y-9140174D02*
X7674943Y-9130650D01*
X7674943Y-9130650D02*
X7636848Y-9130650D01*
X7636848Y-9130650D02*
X7617801Y-9140174D01*
X7703515Y-9254460D02*
X7684467Y-9263984D01*
X7684467Y-9263984D02*
X7636848Y-9263984D01*
X7636848Y-9263984D02*
X7617801Y-9254460D01*
X7617801Y-9254460D02*
X7608277Y-9235412D01*
X7608277Y-9235412D02*
X7608277Y-9216365D01*
X7608277Y-9216365D02*
X7617801Y-9197317D01*
X7617801Y-9197317D02*
X7636848Y-9187793D01*
X7636848Y-9187793D02*
X7684467Y-9187793D01*
X7684467Y-9187793D02*
X7703515Y-9178270D01*
X7798753Y-9130650D02*
X7798753Y-9330650D01*
X7798753Y-9140174D02*
X7817801Y-9130650D01*
X7817801Y-9130650D02*
X7855896Y-9130650D01*
X7855896Y-9130650D02*
X7874943Y-9140174D01*
X7874943Y-9140174D02*
X7884467Y-9149698D01*
X7884467Y-9149698D02*
X7893991Y-9168746D01*
X7893991Y-9168746D02*
X7893991Y-9225889D01*
X7893991Y-9225889D02*
X7884467Y-9244936D01*
X7884467Y-9244936D02*
X7874943Y-9254460D01*
X7874943Y-9254460D02*
X7855896Y-9263984D01*
X7855896Y-9263984D02*
X7817801Y-9263984D01*
X7817801Y-9263984D02*
X7798753Y-9254460D01*
X7979705Y-9244936D02*
X7989229Y-9254460D01*
X7989229Y-9254460D02*
X7979705Y-9263984D01*
X7979705Y-9263984D02*
X7970182Y-9254460D01*
X7970182Y-9254460D02*
X7979705Y-9244936D01*
X7979705Y-9244936D02*
X7979705Y-9263984D01*
X7979705Y-9140174D02*
X7989229Y-9149698D01*
X7989229Y-9149698D02*
X7979705Y-9159222D01*
X7979705Y-9159222D02*
X7970182Y-9149698D01*
X7970182Y-9149698D02*
X7979705Y-9140174D01*
X7979705Y-9140174D02*
X7979705Y-9159222D01*
M02*
