%TF.GenerationSoftware,KiCad,Pcbnew,8.0.1*%
%TF.CreationDate,2024-04-18T20:01:03+02:00*%
%TF.ProjectId,jump,6a756d70-2e6b-4696-9361-645f70636258,rev?*%
%TF.SameCoordinates,Original*%
%TF.FileFunction,Legend,Top*%
%TF.FilePolarity,Positive*%
%FSLAX46Y46*%
G04 Gerber Fmt 4.6, Leading zero omitted, Abs format (unit mm)*
G04 Created by KiCad (PCBNEW 8.0.1) date 2024-04-18 20:01:03*
%MOMM*%
%LPD*%
G01*
G04 APERTURE LIST*
%ADD10C,0.300000*%
%ADD11C,0.150000*%
%ADD12C,0.106680*%
%ADD13C,0.120000*%
%ADD14C,0.254000*%
%ADD15C,0.127000*%
%ADD16C,0.100000*%
G04 APERTURE END LIST*
D10*
G36*
X65060963Y-87402085D02*
G01*
X65298367Y-87383327D01*
X65313879Y-87443744D01*
X65339273Y-87499455D01*
X65377123Y-87546851D01*
X65385122Y-87553906D01*
X65435660Y-87584943D01*
X65497005Y-87603097D01*
X65562149Y-87608421D01*
X65623834Y-87604549D01*
X65681605Y-87591166D01*
X65735969Y-87562486D01*
X65739762Y-87559475D01*
X65780635Y-87513249D01*
X65799027Y-87456748D01*
X65799553Y-87444583D01*
X65784168Y-87386330D01*
X65774347Y-87372775D01*
X65725234Y-87337204D01*
X65686713Y-87321191D01*
X65628089Y-87303256D01*
X65568302Y-87286867D01*
X65509845Y-87271492D01*
X65491221Y-87266676D01*
X65432801Y-87250485D01*
X65370235Y-87229657D01*
X65315892Y-87207304D01*
X65262884Y-87179299D01*
X65216008Y-87144750D01*
X65172611Y-87098522D01*
X65139873Y-87048059D01*
X65117794Y-86993360D01*
X65106373Y-86934425D01*
X65104633Y-86898847D01*
X65110798Y-86836190D01*
X65129292Y-86776372D01*
X65156803Y-86724457D01*
X65194087Y-86677339D01*
X65240357Y-86637835D01*
X65295615Y-86605944D01*
X65307745Y-86600480D01*
X65366504Y-86579936D01*
X65424106Y-86567319D01*
X65486763Y-86560015D01*
X65545736Y-86557981D01*
X65614063Y-86560479D01*
X65676894Y-86567971D01*
X65734230Y-86580457D01*
X65795779Y-86602034D01*
X65849415Y-86630802D01*
X65888066Y-86660270D01*
X65933229Y-86708289D01*
X65967928Y-86762844D01*
X65992165Y-86823935D01*
X66004612Y-86881500D01*
X66009113Y-86933138D01*
X65764968Y-86933138D01*
X65748248Y-86872784D01*
X65715927Y-86820395D01*
X65697850Y-86803885D01*
X65642841Y-86776837D01*
X65579972Y-86765709D01*
X65543098Y-86764318D01*
X65481251Y-86768497D01*
X65423534Y-86782746D01*
X65376622Y-86807109D01*
X65340994Y-86856403D01*
X65337934Y-86880968D01*
X65358377Y-86937077D01*
X65374277Y-86952775D01*
X65427377Y-86982135D01*
X65483431Y-87002578D01*
X65546032Y-87021037D01*
X65598492Y-87034548D01*
X65662051Y-87050876D01*
X65719076Y-87067328D01*
X65777350Y-87086679D01*
X65833060Y-87109000D01*
X65861981Y-87123062D01*
X65911652Y-87154506D01*
X65957894Y-87196566D01*
X65995338Y-87246453D01*
X66022871Y-87304583D01*
X66037984Y-87364941D01*
X66043509Y-87425382D01*
X66043698Y-87439600D01*
X66038059Y-87503525D01*
X66021144Y-87564874D01*
X65992951Y-87623647D01*
X65985959Y-87635092D01*
X65949702Y-87682656D01*
X65905887Y-87722800D01*
X65854514Y-87755525D01*
X65822707Y-87770501D01*
X65766708Y-87789863D01*
X65704225Y-87803693D01*
X65644232Y-87811257D01*
X65579275Y-87814584D01*
X65559804Y-87814757D01*
X65490777Y-87812189D01*
X65426946Y-87804482D01*
X65368309Y-87791638D01*
X65304802Y-87769443D01*
X65248775Y-87739850D01*
X65207801Y-87709538D01*
X65165222Y-87666580D01*
X65129587Y-87616843D01*
X65100897Y-87560325D01*
X65079153Y-87497028D01*
X65066337Y-87439101D01*
X65060963Y-87402085D01*
G37*
G36*
X66131039Y-86914381D02*
G01*
X66377529Y-86914381D01*
X66587090Y-87538665D01*
X66791374Y-86914381D01*
X67031416Y-86914381D01*
X66722205Y-87764053D01*
X66667103Y-87926425D01*
X66642773Y-87980441D01*
X66612269Y-88033707D01*
X66608778Y-88038679D01*
X66569084Y-88083146D01*
X66545471Y-88101401D01*
X66491345Y-88128401D01*
X66457250Y-88138916D01*
X66397703Y-88149436D01*
X66338841Y-88152399D01*
X66276772Y-88149565D01*
X66215863Y-88141064D01*
X66207829Y-88139503D01*
X66187313Y-87971561D01*
X66245211Y-87981278D01*
X66285498Y-87983578D01*
X66344069Y-87974823D01*
X66394460Y-87942962D01*
X66404787Y-87930528D01*
X66435361Y-87878813D01*
X66457422Y-87820845D01*
X66464284Y-87796000D01*
X66131039Y-86914381D01*
G37*
G36*
X67093551Y-87552147D02*
G01*
X67325973Y-87514632D01*
X67348468Y-87571345D01*
X67386057Y-87612524D01*
X67440572Y-87637584D01*
X67503179Y-87645806D01*
X67513258Y-87645937D01*
X67574299Y-87641279D01*
X67633096Y-87622359D01*
X67648374Y-87612817D01*
X67678379Y-87560468D01*
X67678855Y-87550975D01*
X67662442Y-87507304D01*
X67605899Y-87482181D01*
X67584773Y-87476823D01*
X67517930Y-87461527D01*
X67457498Y-87446561D01*
X67390974Y-87428317D01*
X67334468Y-87410589D01*
X67272190Y-87386634D01*
X67229546Y-87363690D01*
X67184153Y-87324599D01*
X67148589Y-87272301D01*
X67129439Y-87211193D01*
X67125792Y-87165560D01*
X67132886Y-87104161D01*
X67154169Y-87048558D01*
X67189640Y-86998751D01*
X67215478Y-86973585D01*
X67266640Y-86939476D01*
X67321536Y-86917626D01*
X67385884Y-86903236D01*
X67448563Y-86896841D01*
X67494207Y-86895623D01*
X67558336Y-86897787D01*
X67624948Y-86905781D01*
X67682725Y-86919665D01*
X67737936Y-86942746D01*
X67761214Y-86957172D01*
X67806173Y-86996476D01*
X67842461Y-87045147D01*
X67870078Y-87103185D01*
X67881674Y-87139475D01*
X67663028Y-87176990D01*
X67637436Y-87121243D01*
X67609685Y-87093459D01*
X67555260Y-87069997D01*
X67498311Y-87064443D01*
X67437023Y-87068029D01*
X67378001Y-87083966D01*
X67367299Y-87089942D01*
X67340921Y-87137130D01*
X67364075Y-87179042D01*
X67420912Y-87202948D01*
X67479786Y-87219884D01*
X67547050Y-87236655D01*
X67580376Y-87244401D01*
X67645814Y-87260799D01*
X67703420Y-87278556D01*
X67760729Y-87300992D01*
X67813174Y-87328899D01*
X67838883Y-87347570D01*
X67880099Y-87395905D01*
X67904207Y-87455876D01*
X67911277Y-87520494D01*
X67903324Y-87585610D01*
X67879468Y-87645440D01*
X67844911Y-87694185D01*
X67810746Y-87728002D01*
X67762150Y-87761806D01*
X67704325Y-87787308D01*
X67647416Y-87802557D01*
X67583727Y-87811707D01*
X67513258Y-87814757D01*
X67448731Y-87812274D01*
X67389459Y-87804824D01*
X67326950Y-87789856D01*
X67271594Y-87768127D01*
X67229839Y-87744122D01*
X67182303Y-87705636D01*
X67143743Y-87660811D01*
X67114159Y-87609648D01*
X67093551Y-87552147D01*
G37*
G36*
X68510942Y-86914381D02*
G01*
X68510942Y-87083201D01*
X68352672Y-87083201D01*
X68352672Y-87465979D01*
X68353102Y-87529228D01*
X68355356Y-87588575D01*
X68357069Y-87601680D01*
X68377878Y-87633627D01*
X68416859Y-87645937D01*
X68474765Y-87635408D01*
X68510062Y-87623662D01*
X68529993Y-87784276D01*
X68471885Y-87801630D01*
X68408790Y-87811781D01*
X68347103Y-87814757D01*
X68287459Y-87809335D01*
X68233970Y-87793069D01*
X68181626Y-87761035D01*
X68160111Y-87737088D01*
X68135522Y-87681604D01*
X68127578Y-87644178D01*
X68122083Y-87581383D01*
X68120508Y-87520630D01*
X68120251Y-87476237D01*
X68120251Y-87083201D01*
X68013859Y-87083201D01*
X68013859Y-86914381D01*
X68120251Y-86914381D01*
X68120251Y-86745560D01*
X68352672Y-86614255D01*
X68352672Y-86914381D01*
X68510942Y-86914381D01*
G37*
G36*
X69061738Y-86898778D02*
G01*
X69127216Y-86910896D01*
X69186904Y-86932101D01*
X69240801Y-86962395D01*
X69288907Y-87001777D01*
X69310788Y-87024876D01*
X69349061Y-87078179D01*
X69379028Y-87141146D01*
X69397657Y-87201002D01*
X69410518Y-87267571D01*
X69417612Y-87340851D01*
X69419135Y-87404307D01*
X69418939Y-87420842D01*
X68838618Y-87420842D01*
X68845092Y-87482884D01*
X68863784Y-87540419D01*
X68894598Y-87586732D01*
X68942531Y-87625065D01*
X68999170Y-87643855D01*
X69028248Y-87645937D01*
X69086540Y-87636534D01*
X69119399Y-87619265D01*
X69158829Y-87573218D01*
X69175673Y-87533390D01*
X69406629Y-87570905D01*
X69381130Y-87626996D01*
X69344736Y-87681602D01*
X69300182Y-87727212D01*
X69265945Y-87752622D01*
X69208209Y-87782658D01*
X69150466Y-87801105D01*
X69086677Y-87811784D01*
X69025903Y-87814757D01*
X68957367Y-87811101D01*
X68894642Y-87800131D01*
X68837726Y-87781849D01*
X68777098Y-87750257D01*
X68724836Y-87708134D01*
X68687676Y-87664988D01*
X68653986Y-87609413D01*
X68628571Y-87547836D01*
X68613372Y-87490278D01*
X68604253Y-87428309D01*
X68601214Y-87361931D01*
X68603990Y-87295923D01*
X68607402Y-87270780D01*
X68842721Y-87270780D01*
X69188862Y-87270780D01*
X69182788Y-87212333D01*
X69163334Y-87154741D01*
X69136985Y-87117200D01*
X69089549Y-87081136D01*
X69029635Y-87064907D01*
X69016524Y-87064443D01*
X68955352Y-87075046D01*
X68904165Y-87106855D01*
X68891374Y-87119838D01*
X68859449Y-87171614D01*
X68844749Y-87230999D01*
X68842721Y-87270780D01*
X68607402Y-87270780D01*
X68612319Y-87234551D01*
X68629644Y-87167025D01*
X68654964Y-87106177D01*
X68688280Y-87052005D01*
X68714933Y-87019600D01*
X68759701Y-86977467D01*
X68808713Y-86944051D01*
X68861971Y-86919353D01*
X68919474Y-86903371D01*
X68981223Y-86896107D01*
X69002749Y-86895623D01*
X69061738Y-86898778D01*
G37*
G36*
X69594794Y-87796000D02*
G01*
X69594794Y-86576739D01*
X69826629Y-86576739D01*
X69826629Y-87224764D01*
X70097739Y-86914381D01*
X70382916Y-86914381D01*
X70083670Y-87236781D01*
X70404312Y-87796000D01*
X70154598Y-87796000D01*
X69934487Y-87398274D01*
X69826629Y-87513752D01*
X69826629Y-87796000D01*
X69594794Y-87796000D01*
G37*
G36*
X71441856Y-86576739D02*
G01*
X71685122Y-86576739D01*
X71685122Y-87347277D01*
X71683859Y-87410090D01*
X71679326Y-87473668D01*
X71670284Y-87534727D01*
X71658743Y-87579698D01*
X71634228Y-87636228D01*
X71600577Y-87686128D01*
X71557793Y-87729397D01*
X71530076Y-87750570D01*
X71472966Y-87781598D01*
X71414339Y-87800654D01*
X71348311Y-87811686D01*
X71284466Y-87814757D01*
X71220217Y-87811244D01*
X71161779Y-87800703D01*
X71100947Y-87779523D01*
X71048026Y-87748779D01*
X71008960Y-87714813D01*
X70971345Y-87666485D01*
X70942874Y-87609210D01*
X70925749Y-87552995D01*
X70915342Y-87490206D01*
X70911653Y-87420842D01*
X71141730Y-87402085D01*
X71147183Y-87464606D01*
X71161737Y-87523944D01*
X71172212Y-87545113D01*
X71214743Y-87588390D01*
X71273095Y-87607432D01*
X71292672Y-87608421D01*
X71350990Y-87600682D01*
X71401117Y-87569907D01*
X71407857Y-87561526D01*
X71429870Y-87506498D01*
X71439166Y-87441457D01*
X71441823Y-87375205D01*
X71441856Y-87366034D01*
X71441856Y-86576739D01*
G37*
G36*
X72514570Y-87796000D02*
G01*
X72514570Y-87664988D01*
X72474495Y-87713279D01*
X72425928Y-87753080D01*
X72388834Y-87774897D01*
X72334363Y-87797591D01*
X72272491Y-87811604D01*
X72224410Y-87814757D01*
X72160978Y-87809276D01*
X72102575Y-87792830D01*
X72066434Y-87775776D01*
X72015904Y-87738928D01*
X71978144Y-87691729D01*
X71965024Y-87666453D01*
X71945913Y-87605934D01*
X71936726Y-87543979D01*
X71933694Y-87479262D01*
X71933663Y-87471547D01*
X71933663Y-86914381D01*
X72165205Y-86914381D01*
X72165205Y-87323829D01*
X72165648Y-87389170D01*
X72167285Y-87452483D01*
X72171162Y-87513441D01*
X72177808Y-87554199D01*
X72207097Y-87605936D01*
X72224410Y-87621317D01*
X72279608Y-87643532D01*
X72310286Y-87645937D01*
X72369716Y-87636590D01*
X72416385Y-87612817D01*
X72460012Y-87570550D01*
X72480865Y-87530752D01*
X72492061Y-87467285D01*
X72496114Y-87404906D01*
X72497887Y-87335750D01*
X72498157Y-87290124D01*
X72498157Y-86914381D01*
X72729699Y-86914381D01*
X72729699Y-87796000D01*
X72514570Y-87796000D01*
G37*
G36*
X72946880Y-86914381D02*
G01*
X73160544Y-86914381D01*
X73160544Y-87033962D01*
X73205054Y-86986948D01*
X73252634Y-86949661D01*
X73312025Y-86918454D01*
X73375596Y-86900486D01*
X73433412Y-86895623D01*
X73493367Y-86900280D01*
X73551250Y-86915837D01*
X73579371Y-86928742D01*
X73629220Y-86963973D01*
X73667872Y-87008340D01*
X73680781Y-87028393D01*
X73725363Y-86983056D01*
X73772500Y-86947280D01*
X73805345Y-86928742D01*
X73861091Y-86907299D01*
X73919740Y-86896787D01*
X73947787Y-86895623D01*
X74010583Y-86900298D01*
X74071109Y-86916063D01*
X74111039Y-86935190D01*
X74159723Y-86973195D01*
X74197185Y-87023390D01*
X74210690Y-87050668D01*
X74226251Y-87107903D01*
X74232823Y-87167597D01*
X74234724Y-87232971D01*
X74234724Y-87796000D01*
X74002889Y-87796000D01*
X74002889Y-87286314D01*
X74001386Y-87225808D01*
X73995284Y-87166715D01*
X73978855Y-87114855D01*
X73935068Y-87075520D01*
X73880083Y-87064443D01*
X73821442Y-87076236D01*
X73788346Y-87094632D01*
X73747717Y-87137589D01*
X73726503Y-87183438D01*
X73714358Y-87242001D01*
X73709229Y-87302257D01*
X73707745Y-87367793D01*
X73707745Y-87796000D01*
X73476203Y-87796000D01*
X73476203Y-87307123D01*
X73475434Y-87247827D01*
X73471864Y-87185138D01*
X73463893Y-87139182D01*
X73433314Y-87089151D01*
X73425498Y-87082908D01*
X73368620Y-87064894D01*
X73355157Y-87064443D01*
X73295287Y-87074879D01*
X73258729Y-87094046D01*
X73216387Y-87138046D01*
X73197180Y-87178749D01*
X73184558Y-87241188D01*
X73179870Y-87302892D01*
X73178715Y-87362517D01*
X73178715Y-87796000D01*
X72946880Y-87796000D01*
X72946880Y-86914381D01*
G37*
G36*
X75004671Y-86901373D02*
G01*
X75064744Y-86918623D01*
X75120413Y-86947374D01*
X75171678Y-86987626D01*
X75198995Y-87015790D01*
X75235151Y-87064071D01*
X75263827Y-87119009D01*
X75285023Y-87180603D01*
X75298737Y-87248853D01*
X75304452Y-87310813D01*
X75305387Y-87350207D01*
X75302768Y-87416687D01*
X75294911Y-87478372D01*
X75278569Y-87546066D01*
X75254684Y-87606856D01*
X75223257Y-87660742D01*
X75198115Y-87692831D01*
X75156391Y-87734267D01*
X75103649Y-87771774D01*
X75046532Y-87797612D01*
X74985039Y-87811781D01*
X74938436Y-87814757D01*
X74877616Y-87809260D01*
X74818055Y-87791167D01*
X74806838Y-87786034D01*
X74754113Y-87752791D01*
X74707044Y-87711795D01*
X74682861Y-87686969D01*
X74682861Y-88133641D01*
X74451318Y-88133641D01*
X74451318Y-87339949D01*
X74680516Y-87339949D01*
X74683307Y-87404510D01*
X74693331Y-87468711D01*
X74713324Y-87528718D01*
X74738841Y-87571198D01*
X74782154Y-87613750D01*
X74836278Y-87640025D01*
X74881577Y-87645937D01*
X74942755Y-87634618D01*
X74994840Y-87600661D01*
X75015812Y-87577353D01*
X75044097Y-87525902D01*
X75060596Y-87464913D01*
X75068139Y-87399022D01*
X75069448Y-87352259D01*
X75066798Y-87291892D01*
X75057277Y-87231762D01*
X75038289Y-87175415D01*
X75014054Y-87135371D01*
X74969019Y-87092150D01*
X74911858Y-87067837D01*
X74877473Y-87064443D01*
X74817806Y-87074212D01*
X74766300Y-87103516D01*
X74736496Y-87133906D01*
X74704625Y-87189593D01*
X74688388Y-87246952D01*
X74681391Y-87306853D01*
X74680516Y-87339949D01*
X74451318Y-87339949D01*
X74451318Y-86914381D01*
X74667327Y-86914381D01*
X74667327Y-87043048D01*
X74706314Y-86993627D01*
X74751061Y-86955392D01*
X74781046Y-86936362D01*
X74837086Y-86911537D01*
X74897495Y-86898169D01*
X74940195Y-86895623D01*
X75004671Y-86901373D01*
G37*
G36*
X75890104Y-87402085D02*
G01*
X76127508Y-87383327D01*
X76143021Y-87443744D01*
X76168415Y-87499455D01*
X76206265Y-87546851D01*
X76214263Y-87553906D01*
X76264802Y-87584943D01*
X76326146Y-87603097D01*
X76391290Y-87608421D01*
X76452975Y-87604549D01*
X76510746Y-87591166D01*
X76565110Y-87562486D01*
X76568904Y-87559475D01*
X76609776Y-87513249D01*
X76628169Y-87456748D01*
X76628695Y-87444583D01*
X76613310Y-87386330D01*
X76603489Y-87372775D01*
X76554376Y-87337204D01*
X76515854Y-87321191D01*
X76457230Y-87303256D01*
X76397444Y-87286867D01*
X76338986Y-87271492D01*
X76320362Y-87266676D01*
X76261943Y-87250485D01*
X76199377Y-87229657D01*
X76145034Y-87207304D01*
X76092026Y-87179299D01*
X76045150Y-87144750D01*
X76001753Y-87098522D01*
X75969014Y-87048059D01*
X75946935Y-86993360D01*
X75935515Y-86934425D01*
X75933775Y-86898847D01*
X75939939Y-86836190D01*
X75958433Y-86776372D01*
X75985945Y-86724457D01*
X76023228Y-86677339D01*
X76069499Y-86637835D01*
X76124757Y-86605944D01*
X76136887Y-86600480D01*
X76195646Y-86579936D01*
X76253247Y-86567319D01*
X76315905Y-86560015D01*
X76374877Y-86557981D01*
X76443204Y-86560479D01*
X76506036Y-86567971D01*
X76563372Y-86580457D01*
X76624921Y-86602034D01*
X76678557Y-86630802D01*
X76717208Y-86660270D01*
X76762370Y-86708289D01*
X76797070Y-86762844D01*
X76821307Y-86823935D01*
X76833754Y-86881500D01*
X76838255Y-86933138D01*
X76594110Y-86933138D01*
X76577390Y-86872784D01*
X76545068Y-86820395D01*
X76526992Y-86803885D01*
X76471982Y-86776837D01*
X76409114Y-86765709D01*
X76372240Y-86764318D01*
X76310393Y-86768497D01*
X76252675Y-86782746D01*
X76205764Y-86807109D01*
X76170136Y-86856403D01*
X76167076Y-86880968D01*
X76187519Y-86937077D01*
X76203419Y-86952775D01*
X76256519Y-86982135D01*
X76312573Y-87002578D01*
X76375174Y-87021037D01*
X76427634Y-87034548D01*
X76491192Y-87050876D01*
X76548218Y-87067328D01*
X76606491Y-87086679D01*
X76662202Y-87109000D01*
X76691123Y-87123062D01*
X76740794Y-87154506D01*
X76787035Y-87196566D01*
X76824480Y-87246453D01*
X76852013Y-87304583D01*
X76867125Y-87364941D01*
X76872651Y-87425382D01*
X76872840Y-87439600D01*
X76867201Y-87503525D01*
X76850285Y-87564874D01*
X76822093Y-87623647D01*
X76815101Y-87635092D01*
X76778844Y-87682656D01*
X76735028Y-87722800D01*
X76683655Y-87755525D01*
X76651849Y-87770501D01*
X76595850Y-87789863D01*
X76533367Y-87803693D01*
X76473374Y-87811257D01*
X76408417Y-87814584D01*
X76388946Y-87814757D01*
X76319919Y-87812189D01*
X76256087Y-87804482D01*
X76197450Y-87791638D01*
X76133943Y-87769443D01*
X76077917Y-87739850D01*
X76036943Y-87709538D01*
X75994363Y-87666580D01*
X75958729Y-87616843D01*
X75930039Y-87560325D01*
X75908294Y-87497028D01*
X75895479Y-87439101D01*
X75890104Y-87402085D01*
G37*
G36*
X77462910Y-86898778D02*
G01*
X77528389Y-86910896D01*
X77588076Y-86932101D01*
X77641973Y-86962395D01*
X77690079Y-87001777D01*
X77711960Y-87024876D01*
X77750233Y-87078179D01*
X77780200Y-87141146D01*
X77798829Y-87201002D01*
X77811691Y-87267571D01*
X77818785Y-87340851D01*
X77820307Y-87404307D01*
X77820111Y-87420842D01*
X77239790Y-87420842D01*
X77246264Y-87482884D01*
X77264957Y-87540419D01*
X77295771Y-87586732D01*
X77343703Y-87625065D01*
X77400342Y-87643855D01*
X77429420Y-87645937D01*
X77487713Y-87636534D01*
X77520572Y-87619265D01*
X77560002Y-87573218D01*
X77576845Y-87533390D01*
X77807801Y-87570905D01*
X77782302Y-87626996D01*
X77745909Y-87681602D01*
X77701354Y-87727212D01*
X77667117Y-87752622D01*
X77609382Y-87782658D01*
X77551638Y-87801105D01*
X77487849Y-87811784D01*
X77427076Y-87814757D01*
X77358540Y-87811101D01*
X77295814Y-87800131D01*
X77238899Y-87781849D01*
X77178270Y-87750257D01*
X77126008Y-87708134D01*
X77088848Y-87664988D01*
X77055158Y-87609413D01*
X77029743Y-87547836D01*
X77014545Y-87490278D01*
X77005426Y-87428309D01*
X77002386Y-87361931D01*
X77005162Y-87295923D01*
X77008575Y-87270780D01*
X77243893Y-87270780D01*
X77590034Y-87270780D01*
X77583961Y-87212333D01*
X77564507Y-87154741D01*
X77538157Y-87117200D01*
X77490721Y-87081136D01*
X77430808Y-87064907D01*
X77417697Y-87064443D01*
X77356524Y-87075046D01*
X77305337Y-87106855D01*
X77292547Y-87119838D01*
X77260621Y-87171614D01*
X77245921Y-87230999D01*
X77243893Y-87270780D01*
X77008575Y-87270780D01*
X77013492Y-87234551D01*
X77030816Y-87167025D01*
X77056136Y-87106177D01*
X77089453Y-87052005D01*
X77116106Y-87019600D01*
X77160873Y-86977467D01*
X77209886Y-86944051D01*
X77263144Y-86919353D01*
X77320647Y-86903371D01*
X77382395Y-86896107D01*
X77403921Y-86895623D01*
X77462910Y-86898778D01*
G37*
G36*
X78800502Y-87796000D02*
G01*
X78568960Y-87796000D01*
X78568960Y-87340829D01*
X78568025Y-87274956D01*
X78564741Y-87216090D01*
X78554932Y-87156592D01*
X78554012Y-87153836D01*
X78523256Y-87102587D01*
X78505945Y-87087891D01*
X78450950Y-87066298D01*
X78425638Y-87064443D01*
X78365045Y-87073956D01*
X78317487Y-87098149D01*
X78275165Y-87139936D01*
X78251835Y-87187249D01*
X78240449Y-87247784D01*
X78235967Y-87307884D01*
X78234318Y-87373802D01*
X78234249Y-87392120D01*
X78234249Y-87796000D01*
X78002707Y-87796000D01*
X78002707Y-86914381D01*
X78217836Y-86914381D01*
X78217836Y-87043048D01*
X78262892Y-86992946D01*
X78312111Y-86953211D01*
X78365492Y-86923841D01*
X78423037Y-86904837D01*
X78484744Y-86896199D01*
X78506238Y-86895623D01*
X78566405Y-86900218D01*
X78626223Y-86915445D01*
X78646336Y-86923466D01*
X78699135Y-86952919D01*
X78742470Y-86994394D01*
X78772764Y-87046574D01*
X78787606Y-87092287D01*
X78796862Y-87153828D01*
X78800187Y-87218083D01*
X78800502Y-87248798D01*
X78800502Y-87796000D01*
G37*
G36*
X78948513Y-87552147D02*
G01*
X79180935Y-87514632D01*
X79203429Y-87571345D01*
X79241018Y-87612524D01*
X79295533Y-87637584D01*
X79358140Y-87645806D01*
X79368220Y-87645937D01*
X79429261Y-87641279D01*
X79488058Y-87622359D01*
X79503335Y-87612817D01*
X79533340Y-87560468D01*
X79533817Y-87550975D01*
X79517404Y-87507304D01*
X79460861Y-87482181D01*
X79439734Y-87476823D01*
X79372891Y-87461527D01*
X79312459Y-87446561D01*
X79245936Y-87428317D01*
X79189430Y-87410589D01*
X79127151Y-87386634D01*
X79084508Y-87363690D01*
X79039115Y-87324599D01*
X79003551Y-87272301D01*
X78984401Y-87211193D01*
X78980753Y-87165560D01*
X78987847Y-87104161D01*
X79009130Y-87048558D01*
X79044602Y-86998751D01*
X79070439Y-86973585D01*
X79121602Y-86939476D01*
X79176497Y-86917626D01*
X79240845Y-86903236D01*
X79303525Y-86896841D01*
X79349169Y-86895623D01*
X79413298Y-86897787D01*
X79479910Y-86905781D01*
X79537686Y-86919665D01*
X79592897Y-86942746D01*
X79616175Y-86957172D01*
X79661134Y-86996476D01*
X79697422Y-87045147D01*
X79725040Y-87103185D01*
X79736636Y-87139475D01*
X79517990Y-87176990D01*
X79492397Y-87121243D01*
X79464647Y-87093459D01*
X79410221Y-87069997D01*
X79353272Y-87064443D01*
X79291984Y-87068029D01*
X79232963Y-87083966D01*
X79222260Y-87089942D01*
X79195882Y-87137130D01*
X79219036Y-87179042D01*
X79275873Y-87202948D01*
X79334748Y-87219884D01*
X79402011Y-87236655D01*
X79435338Y-87244401D01*
X79500775Y-87260799D01*
X79558381Y-87278556D01*
X79615691Y-87300992D01*
X79668136Y-87328899D01*
X79693845Y-87347570D01*
X79735061Y-87395905D01*
X79759168Y-87455876D01*
X79766238Y-87520494D01*
X79758286Y-87585610D01*
X79734430Y-87645440D01*
X79699872Y-87694185D01*
X79665708Y-87728002D01*
X79617112Y-87761806D01*
X79559287Y-87787308D01*
X79502378Y-87802557D01*
X79438689Y-87811707D01*
X79368220Y-87814757D01*
X79303693Y-87812274D01*
X79244421Y-87804824D01*
X79181912Y-87789856D01*
X79126556Y-87768127D01*
X79084801Y-87744122D01*
X79037265Y-87705636D01*
X78998705Y-87660811D01*
X78969121Y-87609648D01*
X78948513Y-87552147D01*
G37*
G36*
X80422146Y-86898785D02*
G01*
X80489932Y-86910930D01*
X80552670Y-86932184D01*
X80610358Y-86962547D01*
X80662998Y-87002018D01*
X80687424Y-87025169D01*
X80730554Y-87076160D01*
X80764759Y-87131973D01*
X80790042Y-87192609D01*
X80806401Y-87258067D01*
X80813218Y-87316299D01*
X80814333Y-87352845D01*
X80811199Y-87413467D01*
X80799164Y-87481831D01*
X80778103Y-87545413D01*
X80748015Y-87604215D01*
X80708901Y-87658235D01*
X80685959Y-87683452D01*
X80635600Y-87728076D01*
X80580584Y-87763466D01*
X80520910Y-87789625D01*
X80456578Y-87806551D01*
X80387590Y-87814244D01*
X80363558Y-87814757D01*
X80304024Y-87811350D01*
X80245882Y-87801129D01*
X80189132Y-87784093D01*
X80133775Y-87760242D01*
X80082520Y-87729669D01*
X80032654Y-87687699D01*
X79991042Y-87637706D01*
X79967885Y-87599921D01*
X79943009Y-87544289D01*
X79925240Y-87482905D01*
X79915523Y-87424475D01*
X79911247Y-87361641D01*
X79911171Y-87355190D01*
X80148429Y-87355190D01*
X80152295Y-87421557D01*
X80163890Y-87479681D01*
X80186175Y-87535217D01*
X80210272Y-87571198D01*
X80256182Y-87613750D01*
X80314008Y-87640025D01*
X80362679Y-87645937D01*
X80421480Y-87637105D01*
X80477726Y-87607327D01*
X80514501Y-87571198D01*
X80546958Y-87517692D01*
X80565892Y-87458230D01*
X80574547Y-87396383D01*
X80576050Y-87353431D01*
X80572203Y-87287852D01*
X80560662Y-87230333D01*
X80538483Y-87175258D01*
X80514501Y-87139475D01*
X80468924Y-87096757D01*
X80411304Y-87070378D01*
X80362679Y-87064443D01*
X80303810Y-87073309D01*
X80247330Y-87103205D01*
X80210272Y-87139475D01*
X80177660Y-87192655D01*
X80158636Y-87251578D01*
X80149939Y-87312752D01*
X80148429Y-87355190D01*
X79911171Y-87355190D01*
X79911025Y-87342880D01*
X79915523Y-87278197D01*
X79929016Y-87214719D01*
X79948562Y-87159306D01*
X79967885Y-87118372D01*
X79999282Y-87067356D01*
X80041699Y-87017626D01*
X80091627Y-86976011D01*
X80129085Y-86952775D01*
X80182758Y-86927771D01*
X80239434Y-86909911D01*
X80299115Y-86899195D01*
X80361800Y-86895623D01*
X80422146Y-86898785D01*
G37*
G36*
X81212058Y-87796000D02*
G01*
X80980516Y-87796000D01*
X80980516Y-86914381D01*
X81195645Y-86914381D01*
X81195645Y-87038944D01*
X81228996Y-86989731D01*
X81269099Y-86943470D01*
X81294710Y-86923173D01*
X81351501Y-86900170D01*
X81395240Y-86895623D01*
X81453767Y-86902300D01*
X81510645Y-86922331D01*
X81547648Y-86943103D01*
X81475840Y-87158819D01*
X81422753Y-87131470D01*
X81367103Y-87120717D01*
X81309557Y-87132077D01*
X81284452Y-87147095D01*
X81247930Y-87196669D01*
X81231402Y-87242350D01*
X81220389Y-87307337D01*
X81215761Y-87367265D01*
X81213267Y-87430130D01*
X81212228Y-87490624D01*
X81212058Y-87530459D01*
X81212058Y-87796000D01*
G37*
D11*
X80666666Y-52684819D02*
X80666666Y-53399104D01*
X80666666Y-53399104D02*
X80619047Y-53541961D01*
X80619047Y-53541961D02*
X80523809Y-53637200D01*
X80523809Y-53637200D02*
X80380952Y-53684819D01*
X80380952Y-53684819D02*
X80285714Y-53684819D01*
X81047619Y-52684819D02*
X81666666Y-52684819D01*
X81666666Y-52684819D02*
X81333333Y-53065771D01*
X81333333Y-53065771D02*
X81476190Y-53065771D01*
X81476190Y-53065771D02*
X81571428Y-53113390D01*
X81571428Y-53113390D02*
X81619047Y-53161009D01*
X81619047Y-53161009D02*
X81666666Y-53256247D01*
X81666666Y-53256247D02*
X81666666Y-53494342D01*
X81666666Y-53494342D02*
X81619047Y-53589580D01*
X81619047Y-53589580D02*
X81571428Y-53637200D01*
X81571428Y-53637200D02*
X81476190Y-53684819D01*
X81476190Y-53684819D02*
X81190476Y-53684819D01*
X81190476Y-53684819D02*
X81095238Y-53637200D01*
X81095238Y-53637200D02*
X81047619Y-53589580D01*
X65166666Y-52444819D02*
X65166666Y-53159104D01*
X65166666Y-53159104D02*
X65119047Y-53301961D01*
X65119047Y-53301961D02*
X65023809Y-53397200D01*
X65023809Y-53397200D02*
X64880952Y-53444819D01*
X64880952Y-53444819D02*
X64785714Y-53444819D01*
X65595238Y-52540057D02*
X65642857Y-52492438D01*
X65642857Y-52492438D02*
X65738095Y-52444819D01*
X65738095Y-52444819D02*
X65976190Y-52444819D01*
X65976190Y-52444819D02*
X66071428Y-52492438D01*
X66071428Y-52492438D02*
X66119047Y-52540057D01*
X66119047Y-52540057D02*
X66166666Y-52635295D01*
X66166666Y-52635295D02*
X66166666Y-52730533D01*
X66166666Y-52730533D02*
X66119047Y-52873390D01*
X66119047Y-52873390D02*
X65547619Y-53444819D01*
X65547619Y-53444819D02*
X66166666Y-53444819D01*
D12*
X71752450Y-51399641D02*
X71752450Y-52032948D01*
X71752450Y-52032948D02*
X71789704Y-52107454D01*
X71789704Y-52107454D02*
X71826957Y-52144708D01*
X71826957Y-52144708D02*
X71901464Y-52181961D01*
X71901464Y-52181961D02*
X72050477Y-52181961D01*
X72050477Y-52181961D02*
X72124984Y-52144708D01*
X72124984Y-52144708D02*
X72162237Y-52107454D01*
X72162237Y-52107454D02*
X72199490Y-52032948D01*
X72199490Y-52032948D02*
X72199490Y-51399641D01*
X72981810Y-52181961D02*
X72534770Y-52181961D01*
X72758290Y-52181961D02*
X72758290Y-51399641D01*
X72758290Y-51399641D02*
X72683783Y-51511401D01*
X72683783Y-51511401D02*
X72609277Y-51585908D01*
X72609277Y-51585908D02*
X72534770Y-51623161D01*
D11*
X79238095Y-77442319D02*
X79238095Y-78251842D01*
X79238095Y-78251842D02*
X79285714Y-78347080D01*
X79285714Y-78347080D02*
X79333333Y-78394700D01*
X79333333Y-78394700D02*
X79428571Y-78442319D01*
X79428571Y-78442319D02*
X79619047Y-78442319D01*
X79619047Y-78442319D02*
X79714285Y-78394700D01*
X79714285Y-78394700D02*
X79761904Y-78347080D01*
X79761904Y-78347080D02*
X79809523Y-78251842D01*
X79809523Y-78251842D02*
X79809523Y-77442319D01*
X80238095Y-77537557D02*
X80285714Y-77489938D01*
X80285714Y-77489938D02*
X80380952Y-77442319D01*
X80380952Y-77442319D02*
X80619047Y-77442319D01*
X80619047Y-77442319D02*
X80714285Y-77489938D01*
X80714285Y-77489938D02*
X80761904Y-77537557D01*
X80761904Y-77537557D02*
X80809523Y-77632795D01*
X80809523Y-77632795D02*
X80809523Y-77728033D01*
X80809523Y-77728033D02*
X80761904Y-77870890D01*
X80761904Y-77870890D02*
X80190476Y-78442319D01*
X80190476Y-78442319D02*
X80809523Y-78442319D01*
X68666666Y-77054819D02*
X68666666Y-77769104D01*
X68666666Y-77769104D02*
X68619047Y-77911961D01*
X68619047Y-77911961D02*
X68523809Y-78007200D01*
X68523809Y-78007200D02*
X68380952Y-78054819D01*
X68380952Y-78054819D02*
X68285714Y-78054819D01*
X69666666Y-78054819D02*
X69095238Y-78054819D01*
X69380952Y-78054819D02*
X69380952Y-77054819D01*
X69380952Y-77054819D02*
X69285714Y-77197676D01*
X69285714Y-77197676D02*
X69190476Y-77292914D01*
X69190476Y-77292914D02*
X69095238Y-77340533D01*
D13*
%TO.C,J3*%
X79670000Y-57270000D02*
X79670000Y-72570000D01*
X79670000Y-57270000D02*
X82330000Y-57270000D01*
X79670000Y-72570000D02*
X82330000Y-72570000D01*
X81000000Y-54670000D02*
X82330000Y-54670000D01*
X82330000Y-54670000D02*
X82330000Y-56000000D01*
X82330000Y-57270000D02*
X82330000Y-72570000D01*
%TO.C,J2*%
X66830000Y-57030000D02*
X66830000Y-72330000D01*
X66830000Y-54430000D02*
X66830000Y-55760000D01*
X65500000Y-54430000D02*
X66830000Y-54430000D01*
X64170000Y-72330000D02*
X66830000Y-72330000D01*
X64170000Y-57030000D02*
X66830000Y-57030000D01*
X64170000Y-57030000D02*
X64170000Y-72330000D01*
%TO.C,U1*%
D14*
X63622000Y-55458250D02*
G75*
G02*
X63368000Y-55458250I-127000J0D01*
G01*
X63368000Y-55458250D02*
G75*
G02*
X63622000Y-55458250I127000J0D01*
G01*
D15*
X68780000Y-58547250D02*
X68780000Y-51194250D01*
X77779000Y-58547250D02*
X68780000Y-58547250D01*
X77779000Y-51195250D02*
X77779000Y-58547250D01*
X68784000Y-51195250D02*
X77779000Y-51195250D01*
X64384000Y-53290791D02*
X64384000Y-73619250D01*
X65055540Y-52619250D02*
X64384000Y-53290791D01*
X82184000Y-52619250D02*
X65055540Y-52619250D01*
X82184000Y-73619250D02*
X82184000Y-52619250D01*
X64384000Y-73619250D02*
X82184000Y-73619250D01*
D16*
%TO.C,U2*%
X78400000Y-79137500D02*
X78040000Y-79137500D01*
X78400000Y-78777500D01*
X78400000Y-79137500D01*
G36*
X78400000Y-79137500D02*
G01*
X78040000Y-79137500D01*
X78400000Y-78777500D01*
X78400000Y-79137500D01*
G37*
X81600000Y-81837500D02*
X80880000Y-81837500D01*
X81600000Y-81617500D02*
X81600000Y-81837500D01*
X81600000Y-79137500D02*
X81600000Y-79357500D01*
X80880000Y-79137500D02*
X81600000Y-79137500D01*
X78600000Y-79137500D02*
X79120000Y-79137500D01*
X78400000Y-81837500D02*
X79120000Y-81837500D01*
X78400000Y-81837500D02*
X78400000Y-81617500D01*
D13*
%TO.C,J1*%
X72060000Y-83410000D02*
X72060000Y-78690000D01*
X72060000Y-81300000D02*
X71450000Y-81300000D01*
X72060000Y-80000000D02*
X71450000Y-80000000D01*
X72060000Y-78690000D02*
X65940000Y-78690000D01*
X71450000Y-82800000D02*
X71450000Y-79300000D01*
X71450000Y-79300000D02*
X69500000Y-79300000D01*
X69500000Y-79300000D02*
X69500000Y-78690000D01*
X69100000Y-82300000D02*
X69100000Y-82800000D01*
X69000000Y-82800000D02*
X69000000Y-82300000D01*
X68900000Y-82800000D02*
X68900000Y-82300000D01*
X68900000Y-82300000D02*
X69100000Y-82300000D01*
X68500000Y-79300000D02*
X66550000Y-79300000D01*
X68500000Y-78690000D02*
X68500000Y-79300000D01*
X67700000Y-78690000D02*
X67700000Y-78490000D01*
X67700000Y-78590000D02*
X67400000Y-78590000D01*
X67700000Y-78490000D02*
X67400000Y-78490000D01*
X67400000Y-78490000D02*
X67400000Y-78690000D01*
X66890000Y-78390000D02*
X65640000Y-78390000D01*
X66550000Y-82800000D02*
X71450000Y-82800000D01*
X66550000Y-79300000D02*
X66550000Y-82800000D01*
X65940000Y-83410000D02*
X72060000Y-83410000D01*
X65940000Y-81300000D02*
X66550000Y-81300000D01*
X65940000Y-80000000D02*
X66550000Y-80000000D01*
X65940000Y-78690000D02*
X65940000Y-83410000D01*
X65640000Y-78390000D02*
X65640000Y-79640000D01*
%TD*%
M02*
