%TF.GenerationSoftware,KiCad,Pcbnew,8.0.1*%
%TF.CreationDate,2024-04-18T20:01:03+02:00*%
%TF.ProjectId,jump,6a756d70-2e6b-4696-9361-645f70636258,rev?*%
%TF.SameCoordinates,Original*%
%TF.FileFunction,Copper,L1,Top*%
%TF.FilePolarity,Positive*%
%FSLAX46Y46*%
G04 Gerber Fmt 4.6, Leading zero omitted, Abs format (unit mm)*
G04 Created by KiCad (PCBNEW 8.0.1) date 2024-04-18 20:01:03*
%MOMM*%
%LPD*%
G01*
G04 APERTURE LIST*
G04 Aperture macros list*
%AMRoundRect*
0 Rectangle with rounded corners*
0 $1 Rounding radius*
0 $2 $3 $4 $5 $6 $7 $8 $9 X,Y pos of 4 corners*
0 Add a 4 corners polygon primitive as box body*
4,1,4,$2,$3,$4,$5,$6,$7,$8,$9,$2,$3,0*
0 Add four circle primitives for the rounded corners*
1,1,$1+$1,$2,$3*
1,1,$1+$1,$4,$5*
1,1,$1+$1,$6,$7*
1,1,$1+$1,$8,$9*
0 Add four rect primitives between the rounded corners*
20,1,$1+$1,$2,$3,$4,$5,0*
20,1,$1+$1,$4,$5,$6,$7,0*
20,1,$1+$1,$6,$7,$8,$9,0*
20,1,$1+$1,$8,$9,$2,$3,0*%
G04 Aperture macros list end*
%TA.AperFunction,NonConductor*%
%ADD10C,0.200000*%
%TD*%
%TA.AperFunction,Conductor*%
%ADD11C,0.200000*%
%TD*%
%TA.AperFunction,ComponentPad*%
%ADD12R,1.700000X1.700000*%
%TD*%
%TA.AperFunction,ComponentPad*%
%ADD13O,1.700000X1.700000*%
%TD*%
%TA.AperFunction,SMDPad,CuDef*%
%ADD14RoundRect,0.500000X-0.875000X-0.500000X0.875000X-0.500000X0.875000X0.500000X-0.875000X0.500000X0*%
%TD*%
%TA.AperFunction,SMDPad,CuDef*%
%ADD15R,0.250000X0.675000*%
%TD*%
%TA.AperFunction,SMDPad,CuDef*%
%ADD16R,0.675000X0.250000*%
%TD*%
%TA.AperFunction,ComponentPad*%
%ADD17O,1.200000X1.750000*%
%TD*%
%TA.AperFunction,ComponentPad*%
%ADD18RoundRect,0.250000X-0.350000X-0.625000X0.350000X-0.625000X0.350000X0.625000X-0.350000X0.625000X0*%
%TD*%
G04 APERTURE END LIST*
D10*
X76500000Y-58500000D02*
X80500000Y-58500000D01*
D11*
%TO.N,Net-(J1-Pin_1)*%
X76500000Y-71000000D02*
X76500000Y-58500000D01*
X80000000Y-74500000D02*
X76500000Y-71000000D01*
X83000000Y-74500000D02*
X80000000Y-74500000D01*
X83000000Y-85000000D02*
X83000000Y-74500000D01*
X68000000Y-85000000D02*
X83000000Y-85000000D01*
X68000000Y-80500000D02*
X68000000Y-85000000D01*
D10*
X80000000Y-56000000D02*
X80500000Y-56000000D01*
D11*
%TO.N,Net-(J1-Pin_2)*%
X76000000Y-56000000D02*
X80000000Y-56000000D01*
X76000000Y-71500000D02*
X76000000Y-56000000D01*
X79500000Y-75000000D02*
X76000000Y-71500000D01*
X82500000Y-75000000D02*
X79500000Y-75000000D01*
X82500000Y-84500000D02*
X82500000Y-75000000D01*
X70000000Y-84500000D02*
X82500000Y-84500000D01*
X70000000Y-80500000D02*
X70000000Y-84500000D01*
D10*
X66000000Y-68500000D02*
X67000000Y-68500000D01*
X65500000Y-66000000D02*
X67000000Y-66000000D01*
D11*
X71000000Y-73750000D02*
X72500000Y-73750000D01*
X72500000Y-76250000D01*
X71000000Y-76250000D01*
X71000000Y-73750000D01*
%TA.AperFunction,Conductor*%
G36*
X71000000Y-73750000D02*
G01*
X72500000Y-73750000D01*
X72500000Y-76250000D01*
X71000000Y-76250000D01*
X71000000Y-73750000D01*
G37*
%TD.AperFunction*%
%TO.N,Net-(J1-Pin_1)*%
X68500000Y-73750000D02*
X70000000Y-73750000D01*
X70000000Y-76250000D01*
X68500000Y-76250000D01*
X68500000Y-73750000D01*
%TA.AperFunction,Conductor*%
G36*
X68500000Y-73750000D02*
G01*
X70000000Y-73750000D01*
X70000000Y-76250000D01*
X68500000Y-76250000D01*
X68500000Y-73750000D01*
G37*
%TD.AperFunction*%
%TD*%
D12*
%TO.P,J3,1,Pin_1*%
%TO.N,Net-(J3-Pin_1)*%
X81000000Y-56000000D03*
D13*
%TO.P,J3,2,Pin_2*%
%TO.N,Net-(J3-Pin_2)*%
X81000000Y-58540000D03*
%TO.P,J3,3,Pin_3*%
%TO.N,Net-(J3-Pin_3)*%
X81000000Y-61080000D03*
%TO.P,J3,4,Pin_4*%
%TO.N,Net-(J3-Pin_4)*%
X81000000Y-63620000D03*
%TO.P,J3,5,Pin_5*%
%TO.N,Net-(J3-Pin_5)*%
X81000000Y-66160000D03*
%TO.P,J3,6,Pin_6*%
%TO.N,Net-(J3-Pin_6)*%
X81000000Y-68700000D03*
%TO.P,J3,7,Pin_7*%
%TO.N,Net-(J3-Pin_7)*%
X81000000Y-71240000D03*
%TD*%
%TO.P,J2,7,Pin_7*%
%TO.N,Net-(J2-Pin_7)*%
X65500000Y-71000000D03*
%TO.P,J2,6,Pin_6*%
%TO.N,Net-(J2-Pin_6)*%
X65500000Y-68460000D03*
%TO.P,J2,5,Pin_5*%
%TO.N,Net-(J2-Pin_5)*%
X65500000Y-65920000D03*
%TO.P,J2,4,Pin_4*%
%TO.N,Net-(J2-Pin_4)*%
X65500000Y-63380000D03*
%TO.P,J2,3,Pin_3*%
%TO.N,Net-(J2-Pin_3)*%
X65500000Y-60840000D03*
%TO.P,J2,2,Pin_2*%
%TO.N,Net-(J2-Pin_2)*%
X65500000Y-58300000D03*
D12*
%TO.P,J2,1,Pin_1*%
%TO.N,Net-(J2-Pin_1)*%
X65500000Y-55760000D03*
%TD*%
D14*
%TO.P,U1,14,5V*%
%TO.N,Net-(J3-Pin_1)*%
X81384000Y-55499250D03*
%TO.P,U1,13,GND*%
%TO.N,Net-(J3-Pin_2)*%
X81384000Y-58039250D03*
%TO.P,U1,12,3V3*%
%TO.N,Net-(J3-Pin_3)*%
X81384000Y-60579250D03*
%TO.P,U1,11,PA6_A10_D10_MOSI*%
%TO.N,Net-(J3-Pin_4)*%
X81384000Y-63119250D03*
%TO.P,U1,10,PA5_A9_D9_MISO*%
%TO.N,Net-(J3-Pin_5)*%
X81384000Y-65659250D03*
%TO.P,U1,9,PA7_A8_D8_SCK*%
%TO.N,Net-(J3-Pin_6)*%
X81384000Y-68199250D03*
%TO.P,U1,8,PB09_A7_D7_RX*%
%TO.N,Net-(J3-Pin_7)*%
X81384000Y-70739250D03*
%TO.P,U1,1,PA02_A0_D0*%
%TO.N,Net-(J2-Pin_1)*%
X65219000Y-55499250D03*
%TO.P,U1,2,PA4_A1_D1*%
%TO.N,Net-(J2-Pin_2)*%
X65219000Y-58039250D03*
%TO.P,U1,3,PA10_A2_D2*%
%TO.N,Net-(J2-Pin_3)*%
X65219000Y-60579250D03*
%TO.P,U1,4,PA11_A3_D3*%
%TO.N,Net-(J2-Pin_4)*%
X65219000Y-63119250D03*
%TO.P,U1,5,PA8_A4_D4_SDA*%
%TO.N,Net-(J2-Pin_5)*%
X65219000Y-65659250D03*
%TO.P,U1,6,PA9_A5_D5_SCL*%
%TO.N,Net-(J2-Pin_6)*%
X65219000Y-68199250D03*
%TO.P,U1,7,PB08_A6_D6_TX*%
%TO.N,Net-(J2-Pin_7)*%
X65219000Y-70739250D03*
%TD*%
D15*
%TO.P,U2,14,SDx*%
%TO.N,unconnected-(U2-SDx-Pad14)*%
X79500000Y-79475000D03*
%TO.P,U2,13,SCx*%
%TO.N,unconnected-(U2-SCx-Pad13)*%
X80000000Y-79475000D03*
%TO.P,U2,12,CSB*%
%TO.N,unconnected-(U2-CSB-Pad12)*%
X80500000Y-79475000D03*
D16*
%TO.P,U2,11,OSDO*%
%TO.N,unconnected-(U2-OSDO-Pad11)*%
X81262500Y-79737500D03*
%TO.P,U2,10,OCSB*%
%TO.N,unconnected-(U2-OCSB-Pad10)*%
X81262500Y-80237500D03*
%TO.P,U2,9,INT2*%
%TO.N,unconnected-(U2-INT2-Pad9)*%
X81262500Y-80737500D03*
%TO.P,U2,8,VDD*%
%TO.N,Net-(U2-VDD)*%
X81262500Y-81237500D03*
D15*
%TO.P,U2,7,GND*%
%TO.N,Net-(U2-GND)*%
X80500000Y-81500000D03*
%TO.P,U2,6,GNDIO*%
X80000000Y-81500000D03*
%TO.P,U2,5,VDDIO*%
%TO.N,Net-(U2-VDD)*%
X79500000Y-81500000D03*
D16*
%TO.P,U2,4,INT1*%
%TO.N,unconnected-(U2-INT1-Pad4)*%
X78737500Y-81237500D03*
%TO.P,U2,3,ASCx*%
%TO.N,unconnected-(U2-ASCx-Pad3)*%
X78737500Y-80737500D03*
%TO.P,U2,2,ASDx*%
%TO.N,unconnected-(U2-ASDx-Pad2)*%
X78737500Y-80237500D03*
%TO.P,U2,1,SDO*%
%TO.N,unconnected-(U2-SDO-Pad1)*%
X78737500Y-79737500D03*
%TD*%
D17*
%TO.P,J1,2,Pin_2*%
%TO.N,Net-(J1-Pin_2)*%
X70000000Y-80500000D03*
D18*
%TO.P,J1,1,Pin_1*%
%TO.N,Net-(J1-Pin_1)*%
X68000000Y-80500000D03*
%TD*%
D11*
%TO.N,Net-(J1-Pin_2)*%
X70000000Y-77000000D02*
X71500000Y-75500000D01*
X70000000Y-80500000D02*
X70000000Y-77000000D01*
%TO.N,Net-(J1-Pin_1)*%
X68000000Y-76500000D02*
X69000000Y-75500000D01*
X68000000Y-80500000D02*
X68000000Y-76500000D01*
%TO.N,unconnected-(U2-SCx-Pad13)*%
X71500000Y-68500000D02*
X66650000Y-68500000D01*
X79000000Y-76000000D02*
X71500000Y-68500000D01*
X79000000Y-77500000D02*
X79000000Y-76000000D01*
X79000000Y-78000000D02*
X79000000Y-77500000D01*
X78000000Y-78000000D02*
X79000000Y-78000000D01*
X77500000Y-78500000D02*
X78000000Y-78000000D01*
X80562500Y-83000000D02*
X77500000Y-83000000D01*
X81425000Y-78837500D02*
X81900000Y-79312500D01*
X81900000Y-81662500D02*
X80562500Y-83000000D01*
X77500000Y-83000000D02*
X77500000Y-78500000D01*
X80075000Y-78837500D02*
X81425000Y-78837500D01*
X81900000Y-79312500D02*
X81900000Y-81662500D01*
X80000000Y-78912500D02*
X80075000Y-78837500D01*
X80000000Y-79475000D02*
X80000000Y-78912500D01*
%TO.N,unconnected-(U2-SDx-Pad14)*%
X70000000Y-66000000D02*
X66650000Y-66000000D01*
X79500000Y-75500000D02*
X70000000Y-66000000D01*
X79500000Y-79475000D02*
X79500000Y-75500000D01*
%TD*%
M02*
