M48
; DRILL file {KiCad 8.0.1} date 2024-04-20T15:27:42+0200
; FORMAT={-:-/ absolute / inch / decimal}
; #@! TF.CreationDate,2024-04-20T15:27:42+02:00
; #@! TF.GenerationSoftware,Kicad,Pcbnew,8.0.1
; #@! TF.FileFunction,Plated,1,2,PTH
FMAT,2
INCH
; #@! TA.AperFunction,Plated,PTH,ComponentDrill
T1C0.0295
; #@! TA.AperFunction,Plated,PTH,ComponentDrill
T2C0.0300
%
G90
G05
T1
X5.748Y-4.1142
X5.8268Y-4.1142
T2
X5.4426Y-3.0466
X5.4426Y-3.1466
X5.4426Y-3.2466
X5.4426Y-3.3466
X5.4426Y-3.4466
X5.4426Y-3.5466
X5.4426Y-3.6466
X5.5869Y-4.485
X5.5869Y-4.585
X5.5869Y-4.685
X5.5869Y-4.785
X5.5869Y-4.885
X5.9869Y-4.385
X5.9869Y-4.485
X5.9869Y-4.585
X5.9869Y-4.685
X5.9869Y-4.785
X5.9869Y-4.885
X5.9869Y-4.985
X6.079Y-3.0466
X6.079Y-3.1466
X6.079Y-3.2466
X6.079Y-3.3466
X6.079Y-3.4466
X6.079Y-3.5466
X6.079Y-3.6466
M30
