%TF.GenerationSoftware,KiCad,Pcbnew,8.0.1*%
%TF.CreationDate,2024-04-20T15:27:58+02:00*%
%TF.ProjectId,systek_jumpsensor,73797374-656b-45f6-9a75-6d7073656e73,rev?*%
%TF.SameCoordinates,Original*%
%TF.FileFunction,Copper,L1,Top*%
%TF.FilePolarity,Positive*%
%FSLAX46Y46*%
G04 Gerber Fmt 4.6, Leading zero omitted, Abs format (unit mm)*
G04 Created by KiCad (PCBNEW 8.0.1) date 2024-04-20 15:27:58*
%MOMM*%
%LPD*%
G01*
G04 APERTURE LIST*
G04 Aperture macros list*
%AMRoundRect*
0 Rectangle with rounded corners*
0 $1 Rounding radius*
0 $2 $3 $4 $5 $6 $7 $8 $9 X,Y pos of 4 corners*
0 Add a 4 corners polygon primitive as box body*
4,1,4,$2,$3,$4,$5,$6,$7,$8,$9,$2,$3,0*
0 Add four circle primitives for the rounded corners*
1,1,$1+$1,$2,$3*
1,1,$1+$1,$4,$5*
1,1,$1+$1,$6,$7*
1,1,$1+$1,$8,$9*
0 Add four rect primitives between the rounded corners*
20,1,$1+$1,$2,$3,$4,$5,0*
20,1,$1+$1,$4,$5,$6,$7,0*
20,1,$1+$1,$6,$7,$8,$9,0*
20,1,$1+$1,$8,$9,$2,$3,0*%
G04 Aperture macros list end*
%TA.AperFunction,NonConductor*%
%ADD10C,0.200000*%
%TD*%
%TA.AperFunction,ComponentPad*%
%ADD11RoundRect,0.250000X-0.350000X-0.625000X0.350000X-0.625000X0.350000X0.625000X-0.350000X0.625000X0*%
%TD*%
%TA.AperFunction,ComponentPad*%
%ADD12O,1.200000X1.750000*%
%TD*%
%TA.AperFunction,ComponentPad*%
%ADD13C,1.524000*%
%TD*%
%TA.AperFunction,SMDPad,CuDef*%
%ADD14O,1.016000X2.032000*%
%TD*%
%TA.AperFunction,SMDPad,CuDef*%
%ADD15C,1.143000*%
%TD*%
%TA.AperFunction,Conductor*%
%ADD16C,0.200000*%
%TD*%
G04 APERTURE END LIST*
D10*
X154500000Y-77500000D02*
X153000000Y-77500000D01*
X146000000Y-106000000D02*
X146000000Y-105000000D01*
D11*
%TO.P,J1,1,Pin_1*%
%TO.N,unconnected-(J1-Pin_1-Pad1)*%
X146000000Y-104500000D03*
D12*
%TO.P,J1,2,Pin_2*%
%TO.N,unconnected-(J1-Pin_2-Pad2)*%
X148000000Y-104500000D03*
%TD*%
D13*
%TO.P,DY-BMI1,3V3,3V3*%
%TO.N,Net-(U1-3V3)*%
X152066000Y-124080000D03*
%TO.P,DY-BMI1,CS,CS*%
%TO.N,unconnected-(DY-BMI1-PadCS)*%
X152066000Y-113920000D03*
%TO.P,DY-BMI1,GND,GND*%
%TO.N,Net-(DY-BMI1-PadGND)*%
X152066000Y-121540000D03*
%TO.P,DY-BMI1,INT1,INT1*%
%TO.N,unconnected-(DY-BMI1-PadINT1)*%
X141906000Y-119000000D03*
%TO.P,DY-BMI1,INT2,INT2*%
%TO.N,unconnected-(DY-BMI1-PadINT2)*%
X141906000Y-121540000D03*
%TO.P,DY-BMI1,OSC,OSC*%
%TO.N,unconnected-(DY-BMI1-PadOSC)*%
X141906000Y-124080000D03*
%TO.P,DY-BMI1,SAO,SAO*%
%TO.N,unconnected-(DY-BMI1-PadSAO)*%
X152066000Y-111380000D03*
%TO.P,DY-BMI1,SCL,SCL*%
%TO.N,Net-(U1-PA9_A5_D5_SCL)*%
X152066000Y-119000000D03*
%TO.P,DY-BMI1,SCX,SCX*%
%TO.N,unconnected-(DY-BMI1-PadSCX)*%
X141906000Y-116460000D03*
%TO.P,DY-BMI1,SDA,SDA*%
%TO.N,Net-(U1-PA8_A4_D4_SDA)*%
X152066000Y-116460000D03*
%TO.P,DY-BMI1,SDX,SDX*%
%TO.N,unconnected-(DY-BMI1-PadSDX)*%
X141906000Y-113920000D03*
%TO.P,DY-BMI1,VIN,VIN*%
%TO.N,unconnected-(DY-BMI1-PadVIN)*%
X152066000Y-126620000D03*
%TD*%
%TO.P,U1,1,PA02_A0_D0*%
%TO.N,unconnected-(U1-PA02_A0_D0-Pad1)*%
X138241120Y-77383800D03*
%TO.P,U1,2,PA4_A1_D1*%
%TO.N,unconnected-(U1-PA4_A1_D1-Pad2)*%
X138241120Y-79923800D03*
%TO.P,U1,3,PA10_A2_D2*%
%TO.N,unconnected-(U1-PA10_A2_D2-Pad3)*%
X138241120Y-82463800D03*
%TO.P,U1,4,PA11_A3_D3*%
%TO.N,unconnected-(U1-PA11_A3_D3-Pad4)*%
X138241120Y-85003800D03*
%TO.P,U1,5,PA8_A4_D4_SDA*%
%TO.N,Net-(U1-PA8_A4_D4_SDA)*%
X138241120Y-87543800D03*
%TO.P,U1,6,PA9_A5_D5_SCL*%
%TO.N,Net-(U1-PA9_A5_D5_SCL)*%
X138241120Y-90083800D03*
%TO.P,U1,7,PB08_A6_D6_TX*%
%TO.N,unconnected-(U1-PB08_A6_D6_TX-Pad7)*%
X138241120Y-92623800D03*
%TO.P,U1,8,PB09_A7_D7_RX*%
%TO.N,unconnected-(U1-PB09_A7_D7_RX-Pad8)*%
X154405680Y-92623800D03*
%TO.P,U1,9,PA7_A8_D8_SCK*%
%TO.N,unconnected-(U1-PA7_A8_D8_SCK-Pad9)*%
X154405680Y-90083800D03*
%TO.P,U1,10,PA5_A9_D9_MISO*%
%TO.N,unconnected-(U1-PA5_A9_D9_MISO-Pad10)*%
X154405680Y-87543800D03*
%TO.P,U1,11,PA6_A10_D10_MOSI*%
%TO.N,unconnected-(U1-PA6_A10_D10_MOSI-Pad11)*%
X154405680Y-85003800D03*
%TO.P,U1,12,3V3*%
%TO.N,Net-(U1-3V3)*%
X154405680Y-82463800D03*
%TO.P,U1,13,GND*%
%TO.N,Net-(DY-BMI1-PadGND)*%
X154405680Y-79923800D03*
%TO.P,U1,14,5V*%
%TO.N,unconnected-(U1-5V-Pad14)*%
X154405680Y-77383800D03*
D14*
%TO.P,U1,15,5V*%
%TO.N,unconnected-(U1-5V-Pad15)*%
X145108000Y-93701620D03*
%TO.P,U1,16,GND*%
%TO.N,unconnected-(U1-GND-Pad16)*%
X147658000Y-93701620D03*
D15*
%TO.P,U1,17,PA31_SWDIO*%
%TO.N,unconnected-(U1-PA31_SWDIO-Pad17)*%
X145106803Y-76697433D03*
%TO.P,U1,18,PA30_SWCLK*%
%TO.N,unconnected-(U1-PA30_SWCLK-Pad18)*%
X147646803Y-76697433D03*
%TO.P,U1,19,RESET*%
%TO.N,unconnected-(U1-RESET-Pad19)*%
X145106803Y-79237433D03*
%TO.P,U1,20,GND*%
%TO.N,unconnected-(U1-GND-Pad20)*%
X147646803Y-79237433D03*
%TD*%
D16*
%TO.N,Net-(DY-BMI1-PadGND)*%
X153500000Y-108000000D02*
X151000000Y-108000000D01*
X148500000Y-102000000D02*
X151000000Y-102000000D01*
X151000000Y-102000000D02*
X151000000Y-108000000D01*
X153500000Y-121500000D02*
X153500000Y-108000000D01*
X153000000Y-81500000D02*
X151500000Y-83000000D01*
X151000000Y-108000000D02*
X150500000Y-108500000D01*
X150500000Y-108500000D02*
X146000000Y-108500000D01*
X151500000Y-95000000D02*
X148500000Y-98000000D01*
X153076200Y-79923800D02*
X153000000Y-80000000D01*
X154405680Y-79923800D02*
X153076200Y-79923800D01*
X148500000Y-98000000D02*
X148500000Y-102000000D01*
X153460000Y-121540000D02*
X153500000Y-121500000D01*
X153000000Y-80000000D02*
X153000000Y-81500000D01*
X152066000Y-121540000D02*
X153460000Y-121540000D01*
X151500000Y-83000000D02*
X151500000Y-95000000D01*
X146000000Y-108500000D02*
X146000000Y-105675000D01*
%TO.N,Net-(U1-3V3)*%
X152000000Y-95065686D02*
X152000000Y-83065686D01*
X149000000Y-101500000D02*
X149000000Y-98065686D01*
X151500000Y-107500000D02*
X151500000Y-101500000D01*
X152601886Y-82463800D02*
X154405680Y-82463800D01*
X152000000Y-83065686D02*
X152601886Y-82463800D01*
X154000000Y-107500000D02*
X151500000Y-107500000D01*
X152066000Y-124080000D02*
X153920000Y-124080000D01*
X153920000Y-124080000D02*
X154000000Y-124000000D01*
X151500000Y-101500000D02*
X149000000Y-101500000D01*
X154000000Y-124000000D02*
X154000000Y-107500000D01*
X149000000Y-98065686D02*
X152000000Y-95065686D01*
%TO.N,Net-(U1-PA8_A4_D4_SDA)*%
X138241120Y-87543800D02*
X141500000Y-90802680D01*
X141500000Y-90802680D02*
X141500000Y-106500000D01*
X142106000Y-106500000D02*
X152066000Y-116460000D01*
X141500000Y-106500000D02*
X142106000Y-106500000D01*
%TO.N,Net-(U1-PA9_A5_D5_SCL)*%
X141000000Y-92842680D02*
X138241120Y-90083800D01*
X152066000Y-119000000D02*
X141000000Y-107934000D01*
X141000000Y-107934000D02*
X141000000Y-92842680D01*
%TO.N,unconnected-(J1-Pin_2-Pad2)*%
X152500000Y-77500000D02*
X153343680Y-77500000D01*
X151000000Y-82500000D02*
X152500000Y-81000000D01*
X151000000Y-94500000D02*
X151000000Y-82500000D01*
X148000000Y-97500000D02*
X151000000Y-94500000D01*
X148000000Y-104500000D02*
X148000000Y-97500000D01*
X152500000Y-81000000D02*
X152500000Y-77500000D01*
%TD*%
M02*
