%TF.GenerationSoftware,KiCad,Pcbnew,8.0.1*%
%TF.CreationDate,2024-04-20T15:27:41+02:00*%
%TF.ProjectId,systek_jumpsensor,73797374-656b-45f6-9a75-6d7073656e73,rev?*%
%TF.SameCoordinates,Original*%
%TF.FileFunction,Drillmap*%
%TF.FilePolarity,Positive*%
%FSLAX45Y45*%
G04 Gerber Fmt 4.5, Leading zero omitted, Abs format (unit mm)*
G04 Created by KiCad (PCBNEW 8.0.1) date 2024-04-20 15:27:41*
%MOMM*%
%LPD*%
G01*
G04 APERTURE LIST*
%ADD10C,0.050000*%
%ADD11C,0.200000*%
G04 APERTURE END LIST*
D10*
X13650000Y-7500000D02*
X15600000Y-7500000D01*
X15600000Y-13500000D01*
X13650000Y-13500000D01*
X13650000Y-7500000D01*
D11*
X13908277Y-13813984D02*
X13908277Y-13613984D01*
X13908277Y-13613984D02*
X13955896Y-13613984D01*
X13955896Y-13613984D02*
X13984467Y-13623508D01*
X13984467Y-13623508D02*
X14003515Y-13642555D01*
X14003515Y-13642555D02*
X14013039Y-13661603D01*
X14013039Y-13661603D02*
X14022562Y-13699698D01*
X14022562Y-13699698D02*
X14022562Y-13728269D01*
X14022562Y-13728269D02*
X14013039Y-13766365D01*
X14013039Y-13766365D02*
X14003515Y-13785412D01*
X14003515Y-13785412D02*
X13984467Y-13804460D01*
X13984467Y-13804460D02*
X13955896Y-13813984D01*
X13955896Y-13813984D02*
X13908277Y-13813984D01*
X14108277Y-13813984D02*
X14108277Y-13680650D01*
X14108277Y-13718746D02*
X14117801Y-13699698D01*
X14117801Y-13699698D02*
X14127324Y-13690174D01*
X14127324Y-13690174D02*
X14146372Y-13680650D01*
X14146372Y-13680650D02*
X14165420Y-13680650D01*
X14232086Y-13813984D02*
X14232086Y-13680650D01*
X14232086Y-13613984D02*
X14222562Y-13623508D01*
X14222562Y-13623508D02*
X14232086Y-13633031D01*
X14232086Y-13633031D02*
X14241610Y-13623508D01*
X14241610Y-13623508D02*
X14232086Y-13613984D01*
X14232086Y-13613984D02*
X14232086Y-13633031D01*
X14355896Y-13813984D02*
X14336848Y-13804460D01*
X14336848Y-13804460D02*
X14327324Y-13785412D01*
X14327324Y-13785412D02*
X14327324Y-13613984D01*
X14460658Y-13813984D02*
X14441610Y-13804460D01*
X14441610Y-13804460D02*
X14432086Y-13785412D01*
X14432086Y-13785412D02*
X14432086Y-13613984D01*
X14689229Y-13813984D02*
X14689229Y-13613984D01*
X14689229Y-13613984D02*
X14755896Y-13756841D01*
X14755896Y-13756841D02*
X14822562Y-13613984D01*
X14822562Y-13613984D02*
X14822562Y-13813984D01*
X15003515Y-13813984D02*
X15003515Y-13709222D01*
X15003515Y-13709222D02*
X14993991Y-13690174D01*
X14993991Y-13690174D02*
X14974943Y-13680650D01*
X14974943Y-13680650D02*
X14936848Y-13680650D01*
X14936848Y-13680650D02*
X14917801Y-13690174D01*
X15003515Y-13804460D02*
X14984467Y-13813984D01*
X14984467Y-13813984D02*
X14936848Y-13813984D01*
X14936848Y-13813984D02*
X14917801Y-13804460D01*
X14917801Y-13804460D02*
X14908277Y-13785412D01*
X14908277Y-13785412D02*
X14908277Y-13766365D01*
X14908277Y-13766365D02*
X14917801Y-13747317D01*
X14917801Y-13747317D02*
X14936848Y-13737793D01*
X14936848Y-13737793D02*
X14984467Y-13737793D01*
X14984467Y-13737793D02*
X15003515Y-13728269D01*
X15098753Y-13680650D02*
X15098753Y-13880650D01*
X15098753Y-13690174D02*
X15117801Y-13680650D01*
X15117801Y-13680650D02*
X15155896Y-13680650D01*
X15155896Y-13680650D02*
X15174943Y-13690174D01*
X15174943Y-13690174D02*
X15184467Y-13699698D01*
X15184467Y-13699698D02*
X15193991Y-13718746D01*
X15193991Y-13718746D02*
X15193991Y-13775888D01*
X15193991Y-13775888D02*
X15184467Y-13794936D01*
X15184467Y-13794936D02*
X15174943Y-13804460D01*
X15174943Y-13804460D02*
X15155896Y-13813984D01*
X15155896Y-13813984D02*
X15117801Y-13813984D01*
X15117801Y-13813984D02*
X15098753Y-13804460D01*
X15279705Y-13794936D02*
X15289229Y-13804460D01*
X15289229Y-13804460D02*
X15279705Y-13813984D01*
X15279705Y-13813984D02*
X15270182Y-13804460D01*
X15270182Y-13804460D02*
X15279705Y-13794936D01*
X15279705Y-13794936D02*
X15279705Y-13813984D01*
X15279705Y-13690174D02*
X15289229Y-13699698D01*
X15289229Y-13699698D02*
X15279705Y-13709222D01*
X15279705Y-13709222D02*
X15270182Y-13699698D01*
X15270182Y-13699698D02*
X15279705Y-13690174D01*
X15279705Y-13690174D02*
X15279705Y-13709222D01*
M02*
