%TF.GenerationSoftware,KiCad,Pcbnew,8.0.1*%
%TF.CreationDate,2024-04-20T15:27:58+02:00*%
%TF.ProjectId,systek_jumpsensor,73797374-656b-45f6-9a75-6d7073656e73,rev?*%
%TF.SameCoordinates,Original*%
%TF.FileFunction,Legend,Top*%
%TF.FilePolarity,Positive*%
%FSLAX46Y46*%
G04 Gerber Fmt 4.6, Leading zero omitted, Abs format (unit mm)*
G04 Created by KiCad (PCBNEW 8.0.1) date 2024-04-20 15:27:58*
%MOMM*%
%LPD*%
G01*
G04 APERTURE LIST*
%ADD10C,0.000000*%
%ADD11C,0.150000*%
%ADD12C,0.100000*%
%ADD13C,0.101600*%
%ADD14C,0.076200*%
%ADD15C,0.120000*%
%ADD16C,0.127000*%
%ADD17C,0.066040*%
%ADD18C,0.254000*%
G04 APERTURE END LIST*
D10*
G36*
X140167907Y-132294307D02*
G01*
X138639938Y-130764487D01*
X140167907Y-129234666D01*
X140167907Y-132294307D01*
G37*
G36*
X141771810Y-132294307D02*
G01*
X140241991Y-133824128D01*
X140241991Y-130764487D01*
X141771810Y-132294307D01*
G37*
G36*
X151602661Y-130187808D02*
G01*
X151653344Y-130191321D01*
X151702859Y-130197173D01*
X151751211Y-130205360D01*
X151798402Y-130215881D01*
X151844434Y-130228732D01*
X151889310Y-130243911D01*
X151933034Y-130261415D01*
X151975607Y-130281241D01*
X152017032Y-130303387D01*
X152057313Y-130327849D01*
X152096451Y-130354626D01*
X152134450Y-130383715D01*
X152171312Y-130415112D01*
X152207040Y-130448815D01*
X152241637Y-130484822D01*
X152274280Y-130523434D01*
X152304839Y-130564259D01*
X152333315Y-130607298D01*
X152359707Y-130652551D01*
X152384016Y-130700018D01*
X152406241Y-130749699D01*
X152426382Y-130801593D01*
X152444440Y-130855701D01*
X152460414Y-130912024D01*
X152474305Y-130970559D01*
X152486112Y-131031309D01*
X152495835Y-131094273D01*
X152503475Y-131159450D01*
X152509032Y-131226841D01*
X152512504Y-131296446D01*
X152513893Y-131368265D01*
X152513723Y-131399794D01*
X152513228Y-131430542D01*
X152512428Y-131460595D01*
X152511347Y-131490040D01*
X152508424Y-131547455D01*
X152504633Y-131603480D01*
X150845167Y-131603480D01*
X150851267Y-131651343D01*
X150858454Y-131697716D01*
X150866732Y-131742629D01*
X150876103Y-131786113D01*
X150886570Y-131828197D01*
X150898136Y-131868911D01*
X150910804Y-131908284D01*
X150924575Y-131946347D01*
X150939454Y-131983130D01*
X150955442Y-132018662D01*
X150972543Y-132052973D01*
X150990758Y-132086093D01*
X151010092Y-132118052D01*
X151030546Y-132148879D01*
X151052123Y-132178605D01*
X151074826Y-132207260D01*
X151098549Y-132234478D01*
X151123186Y-132259881D01*
X151148741Y-132283478D01*
X151175215Y-132305275D01*
X151202611Y-132325282D01*
X151230933Y-132343507D01*
X151260182Y-132359957D01*
X151290362Y-132374641D01*
X151321475Y-132387568D01*
X151353525Y-132398744D01*
X151386513Y-132408178D01*
X151420442Y-132415879D01*
X151455316Y-132421855D01*
X151491136Y-132426113D01*
X151527906Y-132428662D01*
X151565628Y-132429509D01*
X151594365Y-132429032D01*
X151622930Y-132427603D01*
X151651328Y-132425224D01*
X151679560Y-132421899D01*
X151707629Y-132417629D01*
X151735538Y-132412417D01*
X151763290Y-132406268D01*
X151790887Y-132399182D01*
X151818332Y-132391162D01*
X151845628Y-132382213D01*
X151872778Y-132372335D01*
X151899784Y-132361532D01*
X151926648Y-132349807D01*
X151953375Y-132337162D01*
X151979965Y-132323600D01*
X152006423Y-132309124D01*
X152295347Y-132462847D01*
X152253066Y-132496162D01*
X152210256Y-132527348D01*
X152166909Y-132556401D01*
X152123017Y-132583319D01*
X152078571Y-132608099D01*
X152033563Y-132630739D01*
X151987986Y-132651235D01*
X151941831Y-132669586D01*
X151895090Y-132685787D01*
X151847755Y-132699837D01*
X151799817Y-132711734D01*
X151751269Y-132721473D01*
X151702103Y-132729053D01*
X151652309Y-132734470D01*
X151601881Y-132737723D01*
X151550810Y-132738807D01*
X151491818Y-132737353D01*
X151434299Y-132732991D01*
X151378250Y-132725720D01*
X151323669Y-132715540D01*
X151270553Y-132702453D01*
X151218900Y-132686457D01*
X151168706Y-132667553D01*
X151119969Y-132645740D01*
X151072686Y-132621019D01*
X151026855Y-132593390D01*
X150982472Y-132562852D01*
X150939536Y-132529406D01*
X150898042Y-132493051D01*
X150857990Y-132453789D01*
X150819375Y-132411618D01*
X150782195Y-132366538D01*
X150746882Y-132319375D01*
X150713867Y-132270953D01*
X150683147Y-132221273D01*
X150654720Y-132170333D01*
X150628582Y-132118135D01*
X150604732Y-132064678D01*
X150583166Y-132009962D01*
X150563881Y-131953987D01*
X150546875Y-131896753D01*
X150532146Y-131838261D01*
X150519690Y-131778509D01*
X150509505Y-131717499D01*
X150501588Y-131655230D01*
X150495936Y-131591702D01*
X150492547Y-131526915D01*
X150491418Y-131460869D01*
X150492547Y-131387227D01*
X150495936Y-131315622D01*
X150496625Y-131307147D01*
X150834054Y-131307147D01*
X152173110Y-131307147D01*
X152172025Y-131252584D01*
X152169467Y-131200023D01*
X152165439Y-131149469D01*
X152159942Y-131100929D01*
X152152981Y-131054407D01*
X152144558Y-131009909D01*
X152134674Y-130967441D01*
X152123334Y-130927007D01*
X152110540Y-130888613D01*
X152096295Y-130852265D01*
X152080600Y-130817968D01*
X152063460Y-130785728D01*
X152044876Y-130755549D01*
X152024852Y-130727438D01*
X152003390Y-130701399D01*
X151980493Y-130677439D01*
X151956682Y-130655194D01*
X151932476Y-130634306D01*
X151907868Y-130614784D01*
X151882853Y-130596642D01*
X151857426Y-130579888D01*
X151831581Y-130564534D01*
X151805313Y-130550591D01*
X151778616Y-130538069D01*
X151751485Y-130526980D01*
X151723914Y-130517335D01*
X151695898Y-130509143D01*
X151667433Y-130502417D01*
X151638511Y-130497166D01*
X151609128Y-130493402D01*
X151579279Y-130491136D01*
X151548957Y-130490378D01*
X151511497Y-130491202D01*
X151474827Y-130493670D01*
X151438954Y-130497777D01*
X151403887Y-130503516D01*
X151369634Y-130510884D01*
X151336203Y-130519874D01*
X151303602Y-130530481D01*
X151271839Y-130542700D01*
X151240923Y-130556524D01*
X151210862Y-130571950D01*
X151181663Y-130588970D01*
X151153335Y-130607580D01*
X151125886Y-130627775D01*
X151099325Y-130649549D01*
X151073658Y-130672896D01*
X151048895Y-130697812D01*
X151024955Y-130724188D01*
X151002441Y-130751949D01*
X150981349Y-130781131D01*
X150961674Y-130811773D01*
X150943409Y-130843912D01*
X150926549Y-130877587D01*
X150911090Y-130912835D01*
X150897025Y-130949695D01*
X150884348Y-130988204D01*
X150873056Y-131028401D01*
X150863142Y-131070323D01*
X150854600Y-131114009D01*
X150847426Y-131159496D01*
X150841614Y-131206823D01*
X150837158Y-131256027D01*
X150834054Y-131307147D01*
X150496625Y-131307147D01*
X150501588Y-131246052D01*
X150509505Y-131178514D01*
X150519690Y-131113005D01*
X150532146Y-131049523D01*
X150546875Y-130988064D01*
X150563881Y-130928627D01*
X150583166Y-130871209D01*
X150604732Y-130815806D01*
X150628582Y-130762416D01*
X150654720Y-130711036D01*
X150683147Y-130661665D01*
X150713867Y-130614298D01*
X150746882Y-130568933D01*
X150782195Y-130525568D01*
X150819375Y-130484525D01*
X150857990Y-130446131D01*
X150898042Y-130410384D01*
X150939536Y-130377286D01*
X150982472Y-130346835D01*
X151026855Y-130319032D01*
X151072686Y-130293877D01*
X151119969Y-130271370D01*
X151168706Y-130251510D01*
X151218900Y-130234299D01*
X151270553Y-130219736D01*
X151323669Y-130207820D01*
X151378250Y-130198552D01*
X151434299Y-130191933D01*
X151491818Y-130187961D01*
X151550810Y-130186637D01*
X151602661Y-130187808D01*
G37*
G36*
X139921965Y-100004130D02*
G01*
X138393996Y-98474310D01*
X139921965Y-96944489D01*
X139921965Y-100004130D01*
G37*
G36*
X144377800Y-129284686D02*
G01*
X144427728Y-129287166D01*
X144478919Y-129290807D01*
X144531001Y-129295706D01*
X144583598Y-129301963D01*
X144636336Y-129309673D01*
X144688841Y-129318935D01*
X144740739Y-129329847D01*
X144791654Y-129342506D01*
X144841212Y-129357010D01*
X144889040Y-129373456D01*
X144934763Y-129391942D01*
X144978005Y-129412567D01*
X145018394Y-129435427D01*
X145055554Y-129460620D01*
X145096929Y-129492651D01*
X145139998Y-129529002D01*
X145161936Y-129549441D01*
X145184021Y-129571734D01*
X145206160Y-129596137D01*
X145228261Y-129622909D01*
X145250232Y-129652306D01*
X145271980Y-129684588D01*
X145293414Y-129720011D01*
X145314441Y-129758834D01*
X145334968Y-129801314D01*
X145354904Y-129847709D01*
X145374157Y-129898276D01*
X145392633Y-129953274D01*
X145055554Y-129953274D01*
X145046492Y-129932537D01*
X145037312Y-129912658D01*
X145027943Y-129893582D01*
X145018310Y-129875255D01*
X145008341Y-129857622D01*
X144997963Y-129840629D01*
X144987101Y-129824223D01*
X144975683Y-129808348D01*
X144963636Y-129792951D01*
X144950886Y-129777977D01*
X144937361Y-129763372D01*
X144922986Y-129749082D01*
X144907688Y-129735052D01*
X144891395Y-129721228D01*
X144874034Y-129707556D01*
X144855530Y-129693982D01*
X144833288Y-129679814D01*
X144807737Y-129666498D01*
X144779169Y-129654061D01*
X144747877Y-129642529D01*
X144714154Y-129631931D01*
X144678293Y-129622294D01*
X144640588Y-129613644D01*
X144601330Y-129606009D01*
X144560814Y-129599415D01*
X144519332Y-129593890D01*
X144477177Y-129589462D01*
X144434643Y-129586156D01*
X144392021Y-129584001D01*
X144349606Y-129583024D01*
X144307690Y-129583251D01*
X144266566Y-129584709D01*
X144230907Y-129587061D01*
X144196165Y-129589976D01*
X144162346Y-129593500D01*
X144129454Y-129597674D01*
X144097496Y-129602543D01*
X144066476Y-129608150D01*
X144036400Y-129614538D01*
X144007274Y-129621751D01*
X143979103Y-129629832D01*
X143951893Y-129638825D01*
X143925648Y-129648773D01*
X143900375Y-129659719D01*
X143876078Y-129671707D01*
X143852763Y-129684780D01*
X143830436Y-129698981D01*
X143809101Y-129714355D01*
X143788917Y-129730676D01*
X143770034Y-129747689D01*
X143752454Y-129765391D01*
X143736176Y-129783779D01*
X143721200Y-129802851D01*
X143707526Y-129822604D01*
X143695155Y-129843036D01*
X143684086Y-129864142D01*
X143674319Y-129885922D01*
X143665854Y-129908372D01*
X143658692Y-129931489D01*
X143652832Y-129955271D01*
X143648274Y-129979714D01*
X143645018Y-130004817D01*
X143643065Y-130030577D01*
X143642414Y-130056991D01*
X143642652Y-130073182D01*
X143643365Y-130089116D01*
X143644550Y-130104795D01*
X143646205Y-130120222D01*
X143648326Y-130135399D01*
X143650911Y-130150329D01*
X143653957Y-130165015D01*
X143657462Y-130179459D01*
X143661423Y-130193665D01*
X143665836Y-130207635D01*
X143670700Y-130221371D01*
X143676012Y-130234877D01*
X143681769Y-130248155D01*
X143687968Y-130261208D01*
X143694606Y-130274039D01*
X143701681Y-130286649D01*
X143709539Y-130299085D01*
X143717836Y-130311388D01*
X143726578Y-130323555D01*
X143735771Y-130335584D01*
X143745419Y-130347472D01*
X143755528Y-130359217D01*
X143766105Y-130370814D01*
X143777153Y-130382263D01*
X143788679Y-130393559D01*
X143800687Y-130404701D01*
X143813184Y-130415686D01*
X143826175Y-130426510D01*
X143839665Y-130437172D01*
X143853660Y-130447668D01*
X143868165Y-130457996D01*
X143883185Y-130468153D01*
X143913570Y-130487860D01*
X143943609Y-130506700D01*
X143973300Y-130524671D01*
X144002644Y-130541774D01*
X144031641Y-130558008D01*
X144060290Y-130573375D01*
X144088593Y-130587873D01*
X144116548Y-130601503D01*
X144176596Y-130628966D01*
X144245499Y-130658686D01*
X144323083Y-130690837D01*
X144409176Y-130725593D01*
X144457710Y-130744515D01*
X144504703Y-130763763D01*
X144550177Y-130783315D01*
X144594153Y-130803149D01*
X144636654Y-130823243D01*
X144677700Y-130843577D01*
X144717314Y-130864127D01*
X144755517Y-130884872D01*
X144793021Y-130906482D01*
X144830526Y-130929611D01*
X144868031Y-130954217D01*
X144905535Y-130980254D01*
X144943040Y-131007681D01*
X144980545Y-131036454D01*
X145018050Y-131066528D01*
X145055554Y-131097862D01*
X145074047Y-131114358D01*
X145092025Y-131131207D01*
X145109492Y-131148413D01*
X145126455Y-131165984D01*
X145142918Y-131183923D01*
X145158888Y-131202237D01*
X145174369Y-131220930D01*
X145189368Y-131240009D01*
X145203889Y-131259479D01*
X145217937Y-131279344D01*
X145231520Y-131299611D01*
X145244641Y-131320285D01*
X145257306Y-131341372D01*
X145269520Y-131362876D01*
X145281290Y-131384804D01*
X145292620Y-131407160D01*
X145302713Y-131429906D01*
X145312154Y-131452999D01*
X145320944Y-131476439D01*
X145329083Y-131500227D01*
X145336571Y-131524362D01*
X145343408Y-131548844D01*
X145349594Y-131573674D01*
X145355128Y-131598851D01*
X145360012Y-131624375D01*
X145364244Y-131650246D01*
X145367825Y-131676464D01*
X145370755Y-131703030D01*
X145373034Y-131729943D01*
X145374662Y-131757203D01*
X145375639Y-131784811D01*
X145375964Y-131812766D01*
X145374835Y-131866222D01*
X145371446Y-131918241D01*
X145365795Y-131968816D01*
X145357878Y-132017942D01*
X145347692Y-132065614D01*
X145335237Y-132111827D01*
X145320507Y-132156574D01*
X145303501Y-132199852D01*
X145284217Y-132241653D01*
X145262651Y-132281973D01*
X145238800Y-132320806D01*
X145212662Y-132358147D01*
X145184235Y-132393990D01*
X145153515Y-132428331D01*
X145120500Y-132461163D01*
X145085187Y-132492481D01*
X145048029Y-132522411D01*
X145009480Y-132550391D01*
X144969535Y-132576423D01*
X144928194Y-132600509D01*
X144885453Y-132622653D01*
X144841309Y-132642858D01*
X144795760Y-132661125D01*
X144748802Y-132677458D01*
X144700434Y-132691859D01*
X144650653Y-132704331D01*
X144599455Y-132714877D01*
X144546838Y-132723499D01*
X144492800Y-132730201D01*
X144437338Y-132734984D01*
X144380448Y-132737852D01*
X144322129Y-132738808D01*
X144271840Y-132738027D01*
X144222376Y-132735690D01*
X144173737Y-132731800D01*
X144125923Y-132726364D01*
X144078934Y-132719387D01*
X144032769Y-132710875D01*
X143987429Y-132700832D01*
X143942914Y-132689264D01*
X143899224Y-132676178D01*
X143856358Y-132661577D01*
X143814317Y-132645468D01*
X143773101Y-132627856D01*
X143732710Y-132608747D01*
X143693143Y-132588145D01*
X143654401Y-132566056D01*
X143616484Y-132542487D01*
X143582735Y-132519631D01*
X143550247Y-132496206D01*
X143519024Y-132472206D01*
X143489067Y-132447625D01*
X143460380Y-132422459D01*
X143432966Y-132396700D01*
X143406826Y-132370345D01*
X143381965Y-132343388D01*
X143358384Y-132315823D01*
X143336086Y-132287644D01*
X143315074Y-132258847D01*
X143295351Y-132229427D01*
X143276919Y-132199376D01*
X143259782Y-132168691D01*
X143243941Y-132137366D01*
X143229399Y-132105395D01*
X143525732Y-131946116D01*
X143539320Y-131973876D01*
X143553695Y-132000900D01*
X143568861Y-132027193D01*
X143584825Y-132052755D01*
X143601593Y-132077590D01*
X143619169Y-132101701D01*
X143637558Y-132125091D01*
X143656767Y-132147761D01*
X143676801Y-132169715D01*
X143697665Y-132190956D01*
X143719365Y-132211486D01*
X143741905Y-132231307D01*
X143765292Y-132250424D01*
X143789531Y-132268837D01*
X143814627Y-132286551D01*
X143840586Y-132303567D01*
X143867218Y-132319715D01*
X143894333Y-132334821D01*
X143921936Y-132348886D01*
X143950033Y-132361908D01*
X143978629Y-132373889D01*
X144007730Y-132384828D01*
X144037340Y-132394725D01*
X144067466Y-132403580D01*
X144098114Y-132411394D01*
X144129287Y-132418165D01*
X144160992Y-132423895D01*
X144193235Y-132428583D01*
X144226019Y-132432230D01*
X144259352Y-132434834D01*
X144293239Y-132436397D01*
X144327684Y-132436918D01*
X144368119Y-132436309D01*
X144407469Y-132434480D01*
X144445733Y-132431424D01*
X144482912Y-132427137D01*
X144519006Y-132421612D01*
X144554015Y-132414845D01*
X144587939Y-132406830D01*
X144620777Y-132397561D01*
X144652530Y-132387034D01*
X144683198Y-132375242D01*
X144712781Y-132362180D01*
X144741278Y-132347844D01*
X144768690Y-132332227D01*
X144795017Y-132315324D01*
X144820259Y-132297130D01*
X144844416Y-132277638D01*
X144867292Y-132256976D01*
X144888692Y-132235272D01*
X144908616Y-132212526D01*
X144927065Y-132188738D01*
X144944038Y-132163909D01*
X144959534Y-132138038D01*
X144973555Y-132111125D01*
X144986100Y-132083170D01*
X144997170Y-132054173D01*
X145006763Y-132024135D01*
X145014880Y-131993054D01*
X145021522Y-131960932D01*
X145026687Y-131927768D01*
X145030377Y-131893563D01*
X145032591Y-131858315D01*
X145033329Y-131822026D01*
X145032526Y-131787321D01*
X145030117Y-131753358D01*
X145026102Y-131720137D01*
X145020480Y-131687663D01*
X145013253Y-131655937D01*
X145004419Y-131624963D01*
X144993980Y-131594744D01*
X144981934Y-131565281D01*
X144968282Y-131536577D01*
X144953024Y-131508637D01*
X144936160Y-131481461D01*
X144917690Y-131455053D01*
X144897614Y-131429415D01*
X144875931Y-131404551D01*
X144852643Y-131380463D01*
X144827748Y-131357153D01*
X144801528Y-131334429D01*
X144774262Y-131312102D01*
X144745942Y-131290177D01*
X144716565Y-131268658D01*
X144686124Y-131247552D01*
X144654614Y-131226863D01*
X144622030Y-131206598D01*
X144588366Y-131186761D01*
X144553617Y-131167359D01*
X144517777Y-131148396D01*
X144480841Y-131129878D01*
X144442804Y-131111810D01*
X144403659Y-131094198D01*
X144363403Y-131077047D01*
X144322029Y-131060363D01*
X144279531Y-131044151D01*
X144229004Y-131025319D01*
X144180213Y-131006357D01*
X144133158Y-130987308D01*
X144087840Y-130968215D01*
X144044258Y-130949123D01*
X144002413Y-130930074D01*
X143962304Y-130911112D01*
X143923931Y-130892280D01*
X143886340Y-130872837D01*
X143848574Y-130852026D01*
X143810636Y-130829870D01*
X143772523Y-130806390D01*
X143734237Y-130781607D01*
X143695777Y-130755544D01*
X143657144Y-130728222D01*
X143618337Y-130699663D01*
X143599499Y-130684884D01*
X143581187Y-130669719D01*
X143563407Y-130654174D01*
X143546164Y-130638255D01*
X143529463Y-130621967D01*
X143513311Y-130605315D01*
X143497712Y-130588306D01*
X143482672Y-130570943D01*
X143468196Y-130553234D01*
X143454290Y-130535182D01*
X143440959Y-130516794D01*
X143428209Y-130498075D01*
X143416045Y-130479031D01*
X143404472Y-130459666D01*
X143393496Y-130439987D01*
X143383123Y-130419999D01*
X143373356Y-130399706D01*
X143364200Y-130379115D01*
X143355657Y-130358232D01*
X143347730Y-130337060D01*
X143340422Y-130315607D01*
X143333735Y-130293876D01*
X143327672Y-130271875D01*
X143322235Y-130249607D01*
X143317428Y-130227079D01*
X143313253Y-130204296D01*
X143309713Y-130181264D01*
X143306811Y-130157987D01*
X143304549Y-130134471D01*
X143302929Y-130110723D01*
X143301956Y-130086746D01*
X143301631Y-130062547D01*
X143302672Y-130021961D01*
X143305798Y-129982159D01*
X143311007Y-129943143D01*
X143318299Y-129904917D01*
X143327676Y-129867484D01*
X143339135Y-129830845D01*
X143352679Y-129795004D01*
X143368306Y-129759963D01*
X143386016Y-129725725D01*
X143405810Y-129692293D01*
X143427688Y-129659670D01*
X143451649Y-129627857D01*
X143477694Y-129596859D01*
X143505823Y-129566677D01*
X143536035Y-129537314D01*
X143568330Y-129508774D01*
X143602384Y-129481514D01*
X143637867Y-129455993D01*
X143674777Y-129432214D01*
X143713112Y-129410179D01*
X143752868Y-129389892D01*
X143794043Y-129371354D01*
X143836634Y-129354569D01*
X143880639Y-129339540D01*
X143926054Y-129326268D01*
X143972877Y-129314757D01*
X144021106Y-129305010D01*
X144070738Y-129297028D01*
X144121769Y-129290816D01*
X144174198Y-129286375D01*
X144228021Y-129283709D01*
X144283235Y-129282820D01*
X144377800Y-129284686D01*
G37*
G36*
X149493529Y-97961283D02*
G01*
X150123238Y-97961283D01*
X150123238Y-98257616D01*
X149493529Y-98257616D01*
X149493529Y-99746691D01*
X149493746Y-99769632D01*
X149494394Y-99791919D01*
X149495471Y-99813549D01*
X149496973Y-99834521D01*
X149498899Y-99854830D01*
X149501245Y-99874474D01*
X149504010Y-99893451D01*
X149507189Y-99911758D01*
X149510780Y-99929392D01*
X149514782Y-99946351D01*
X149519190Y-99962631D01*
X149524002Y-99978231D01*
X149529217Y-99993146D01*
X149534829Y-100007376D01*
X149540838Y-100020916D01*
X149547241Y-100033764D01*
X149554251Y-100045875D01*
X149562086Y-100057205D01*
X149570746Y-100067753D01*
X149580231Y-100077520D01*
X149590541Y-100086505D01*
X149601675Y-100094709D01*
X149613634Y-100102132D01*
X149626418Y-100108774D01*
X149640026Y-100114634D01*
X149654459Y-100119712D01*
X149669717Y-100124010D01*
X149685800Y-100127526D01*
X149702707Y-100130261D01*
X149720440Y-100132214D01*
X149738997Y-100133386D01*
X149758378Y-100133777D01*
X149778042Y-100133213D01*
X149798140Y-100131523D01*
X149818672Y-100128710D01*
X149839638Y-100124777D01*
X149861038Y-100119725D01*
X149882873Y-100113559D01*
X149905141Y-100106281D01*
X149927844Y-100097892D01*
X149950980Y-100088397D01*
X149974551Y-100077798D01*
X149998556Y-100066097D01*
X150022995Y-100053297D01*
X150047868Y-100039402D01*
X150073175Y-100024413D01*
X150098916Y-100008333D01*
X150125091Y-99991166D01*
X150265849Y-100257867D01*
X150201338Y-100291446D01*
X150142252Y-100320834D01*
X150088158Y-100346309D01*
X150038622Y-100368152D01*
X149993210Y-100386642D01*
X149951487Y-100402058D01*
X149913020Y-100414679D01*
X149877375Y-100424785D01*
X149844117Y-100432656D01*
X149812813Y-100438571D01*
X149783027Y-100442809D01*
X149754327Y-100445650D01*
X149726278Y-100447373D01*
X149698446Y-100448258D01*
X149641697Y-100448631D01*
X149612126Y-100448088D01*
X149583487Y-100446460D01*
X149555783Y-100443746D01*
X149529013Y-100439946D01*
X149503178Y-100435059D01*
X149478278Y-100429085D01*
X149454313Y-100422024D01*
X149431283Y-100413875D01*
X149409190Y-100404639D01*
X149388033Y-100394314D01*
X149367813Y-100382901D01*
X149348529Y-100370398D01*
X149330183Y-100356807D01*
X149312775Y-100342126D01*
X149296305Y-100326354D01*
X149280773Y-100309493D01*
X149266180Y-100291541D01*
X149252525Y-100272498D01*
X149239811Y-100252364D01*
X149228035Y-100231138D01*
X149217200Y-100208820D01*
X149207306Y-100185409D01*
X149198352Y-100160906D01*
X149190339Y-100135310D01*
X149183268Y-100108621D01*
X149177138Y-100080838D01*
X149167705Y-100021990D01*
X149162044Y-99958762D01*
X149160156Y-99891154D01*
X149160156Y-98257616D01*
X148830484Y-98257616D01*
X148673057Y-97961283D01*
X149160155Y-97961283D01*
X149160155Y-97114880D01*
X149493529Y-96948193D01*
X149493529Y-97961283D01*
G37*
G36*
X146116799Y-131981305D02*
G01*
X146124758Y-132006771D01*
X146134626Y-132036404D01*
X146146230Y-132070899D01*
X146159397Y-132110950D01*
X146173288Y-132150510D01*
X146184400Y-132182950D01*
X146192735Y-132208098D01*
X146198290Y-132225780D01*
X146283486Y-131979453D01*
X146907638Y-130251460D01*
X147265091Y-130251460D01*
X146022342Y-133611139D01*
X145611179Y-133825980D01*
X146053828Y-132609161D01*
X145161123Y-130251460D01*
X145500054Y-130251460D01*
X146116799Y-131981305D01*
G37*
G36*
X147927365Y-97898586D02*
G01*
X147963548Y-97899378D01*
X148031630Y-97902334D01*
X148094634Y-97906809D01*
X148153318Y-97912434D01*
X148208443Y-97918840D01*
X148260768Y-97925659D01*
X148360057Y-97939057D01*
X148528596Y-98255764D01*
X148454936Y-98250479D01*
X148375481Y-98242307D01*
X148206566Y-98221732D01*
X148120795Y-98211541D01*
X148036608Y-98202892D01*
X147955850Y-98196891D01*
X147917334Y-98195230D01*
X147880367Y-98194645D01*
X147854668Y-98194971D01*
X147829659Y-98195951D01*
X147805333Y-98197587D01*
X147781685Y-98199883D01*
X147758711Y-98202841D01*
X147736403Y-98206463D01*
X147714758Y-98210753D01*
X147693769Y-98215713D01*
X147673431Y-98221345D01*
X147653739Y-98227654D01*
X147634688Y-98234640D01*
X147616271Y-98242307D01*
X147598483Y-98250659D01*
X147581320Y-98259696D01*
X147564775Y-98269423D01*
X147548843Y-98279841D01*
X147533694Y-98290845D01*
X147519503Y-98302327D01*
X147506272Y-98314286D01*
X147494004Y-98326722D01*
X147482702Y-98339636D01*
X147472369Y-98353028D01*
X147463007Y-98366896D01*
X147454619Y-98381243D01*
X147447207Y-98396067D01*
X147440775Y-98411368D01*
X147435325Y-98427147D01*
X147430860Y-98443404D01*
X147427382Y-98460137D01*
X147424895Y-98477349D01*
X147423400Y-98495038D01*
X147422902Y-98513204D01*
X147423032Y-98522189D01*
X147423422Y-98531088D01*
X147424074Y-98539900D01*
X147424985Y-98548625D01*
X147426157Y-98557263D01*
X147427590Y-98565814D01*
X147429283Y-98574279D01*
X147431236Y-98582657D01*
X147433450Y-98590948D01*
X147435924Y-98599152D01*
X147438659Y-98607269D01*
X147441654Y-98615300D01*
X147444910Y-98623244D01*
X147448426Y-98631100D01*
X147452203Y-98638871D01*
X147456240Y-98646554D01*
X147460450Y-98654107D01*
X147464744Y-98661490D01*
X147469119Y-98668704D01*
X147473574Y-98675753D01*
X147478104Y-98682639D01*
X147482707Y-98689365D01*
X147487381Y-98695934D01*
X147492123Y-98702348D01*
X147496930Y-98708610D01*
X147501800Y-98714723D01*
X147506729Y-98720689D01*
X147511715Y-98726512D01*
X147516755Y-98732193D01*
X147521847Y-98737736D01*
X147526987Y-98743144D01*
X147532174Y-98748418D01*
X147537578Y-98753649D01*
X147543374Y-98758927D01*
X147549559Y-98764253D01*
X147556136Y-98769631D01*
X147570461Y-98780551D01*
X147586348Y-98791711D01*
X147603798Y-98803131D01*
X147622811Y-98814833D01*
X147643387Y-98826839D01*
X147665525Y-98839170D01*
X147687225Y-98851238D01*
X147707862Y-98862437D01*
X147727414Y-98872768D01*
X147745859Y-98882231D01*
X147763175Y-98890826D01*
X147779341Y-98898553D01*
X147794335Y-98905411D01*
X147808135Y-98911402D01*
X147838695Y-98923151D01*
X147877588Y-98938720D01*
X147980379Y-98979929D01*
X148047690Y-99006639D01*
X148107709Y-99031093D01*
X148160088Y-99053115D01*
X148204480Y-99072533D01*
X148225233Y-99082090D01*
X148247223Y-99092732D01*
X148270472Y-99104503D01*
X148295001Y-99117446D01*
X148320833Y-99131604D01*
X148347988Y-99147021D01*
X148376489Y-99163740D01*
X148406358Y-99181806D01*
X148435434Y-99200478D01*
X148462904Y-99219021D01*
X148476023Y-99228257D01*
X148488725Y-99237477D01*
X148501003Y-99246686D01*
X148512852Y-99255889D01*
X148524268Y-99265092D01*
X148535244Y-99274301D01*
X148545775Y-99283521D01*
X148555856Y-99292757D01*
X148565480Y-99302015D01*
X148574644Y-99311300D01*
X148583341Y-99320617D01*
X148591566Y-99329972D01*
X148607363Y-99349336D01*
X148622791Y-99369937D01*
X148637828Y-99391796D01*
X148652453Y-99414936D01*
X148666644Y-99439379D01*
X148680379Y-99465145D01*
X148693637Y-99492257D01*
X148706396Y-99520737D01*
X148712452Y-99535429D01*
X148718119Y-99550334D01*
X148723402Y-99565444D01*
X148728302Y-99580756D01*
X148732823Y-99596262D01*
X148736966Y-99611959D01*
X148740735Y-99627840D01*
X148744132Y-99643900D01*
X148747160Y-99660134D01*
X148749822Y-99676536D01*
X148752120Y-99693101D01*
X148754058Y-99709823D01*
X148755637Y-99726697D01*
X148756861Y-99743717D01*
X148758254Y-99778177D01*
X148757386Y-99815898D01*
X148754781Y-99852661D01*
X148750440Y-99888464D01*
X148744363Y-99923305D01*
X148736550Y-99957179D01*
X148727000Y-99990084D01*
X148715714Y-100022019D01*
X148702691Y-100052979D01*
X148687933Y-100082963D01*
X148671437Y-100111967D01*
X148653206Y-100139989D01*
X148633238Y-100167027D01*
X148611534Y-100193077D01*
X148588094Y-100218136D01*
X148562917Y-100242203D01*
X148536004Y-100265274D01*
X148507635Y-100287151D01*
X148478090Y-100307637D01*
X148447361Y-100326728D01*
X148415445Y-100344422D01*
X148382334Y-100360715D01*
X148348024Y-100375607D01*
X148312510Y-100389093D01*
X148275786Y-100401170D01*
X148237846Y-100411837D01*
X148198686Y-100421091D01*
X148158299Y-100428928D01*
X148116681Y-100435347D01*
X148073825Y-100440344D01*
X148029727Y-100443916D01*
X147984381Y-100446062D01*
X147937781Y-100446778D01*
X147878182Y-100445128D01*
X147819537Y-100440176D01*
X147761848Y-100431920D01*
X147705113Y-100420357D01*
X147649334Y-100405483D01*
X147594509Y-100387298D01*
X147540640Y-100365797D01*
X147487725Y-100340977D01*
X147435766Y-100312838D01*
X147384761Y-100281374D01*
X147334711Y-100246585D01*
X147285617Y-100208467D01*
X147237477Y-100167017D01*
X147190292Y-100122233D01*
X147144062Y-100074112D01*
X147098787Y-100022651D01*
X147382156Y-99872632D01*
X147415059Y-99906599D01*
X147448476Y-99938356D01*
X147482404Y-99967904D01*
X147516837Y-99995246D01*
X147551769Y-100020385D01*
X147587194Y-100043324D01*
X147623108Y-100064066D01*
X147659505Y-100082612D01*
X147696379Y-100098967D01*
X147733726Y-100113132D01*
X147771539Y-100125110D01*
X147809813Y-100134904D01*
X147848543Y-100142518D01*
X147887724Y-100147952D01*
X147927349Y-100151211D01*
X147967414Y-100152297D01*
X147993176Y-100151928D01*
X148018372Y-100150824D01*
X148042997Y-100148988D01*
X148067050Y-100146422D01*
X148090528Y-100143129D01*
X148113428Y-100139111D01*
X148135748Y-100134372D01*
X148157484Y-100128914D01*
X148178634Y-100122740D01*
X148199196Y-100115852D01*
X148219166Y-100108253D01*
X148238542Y-100099946D01*
X148257321Y-100090934D01*
X148275500Y-100081220D01*
X148293077Y-100070805D01*
X148310049Y-100059693D01*
X148326197Y-100047930D01*
X148341303Y-100035561D01*
X148355368Y-100022591D01*
X148368390Y-100009021D01*
X148380371Y-99994854D01*
X148391309Y-99980093D01*
X148401207Y-99964740D01*
X148410062Y-99948799D01*
X148417875Y-99932272D01*
X148424647Y-99915161D01*
X148430377Y-99897470D01*
X148435065Y-99879201D01*
X148438711Y-99860357D01*
X148441316Y-99840940D01*
X148442878Y-99820954D01*
X148443399Y-99800401D01*
X148443204Y-99787291D01*
X148442621Y-99774356D01*
X148441653Y-99761594D01*
X148440303Y-99749005D01*
X148438572Y-99736591D01*
X148436465Y-99724350D01*
X148433983Y-99712282D01*
X148431129Y-99700388D01*
X148427907Y-99688668D01*
X148424318Y-99677121D01*
X148420366Y-99665748D01*
X148416052Y-99654549D01*
X148411381Y-99643523D01*
X148406354Y-99632671D01*
X148400975Y-99621993D01*
X148395245Y-99611488D01*
X148389125Y-99601135D01*
X148382571Y-99590909D01*
X148375582Y-99580808D01*
X148368159Y-99570829D01*
X148360303Y-99560970D01*
X148352012Y-99551227D01*
X148343287Y-99541598D01*
X148334128Y-99532080D01*
X148324534Y-99522671D01*
X148314507Y-99513367D01*
X148304046Y-99504167D01*
X148293150Y-99495067D01*
X148281821Y-99486065D01*
X148270057Y-99477158D01*
X148257859Y-99468343D01*
X148245227Y-99459617D01*
X148219877Y-99442771D01*
X148195221Y-99426945D01*
X148171260Y-99412118D01*
X148147993Y-99398267D01*
X148125421Y-99385371D01*
X148103543Y-99373409D01*
X148082359Y-99362358D01*
X148061871Y-99352197D01*
X148017740Y-99332750D01*
X147965795Y-99310524D01*
X147905862Y-99285521D01*
X147837769Y-99257740D01*
X147755496Y-99222637D01*
X147717279Y-99205813D01*
X147681036Y-99189445D01*
X147646791Y-99173510D01*
X147614564Y-99157988D01*
X147584377Y-99142857D01*
X147556253Y-99128094D01*
X147529075Y-99113610D01*
X147501703Y-99097998D01*
X147474113Y-99081344D01*
X147446285Y-99063734D01*
X147418196Y-99045257D01*
X147389825Y-99025998D01*
X147361151Y-99006045D01*
X147332150Y-98985484D01*
X147317825Y-98974915D01*
X147304014Y-98964047D01*
X147290714Y-98952887D01*
X147277919Y-98941439D01*
X147265623Y-98929709D01*
X147253820Y-98917702D01*
X147242506Y-98905424D01*
X147231675Y-98892880D01*
X147221321Y-98880075D01*
X147211439Y-98867016D01*
X147202024Y-98853707D01*
X147193071Y-98840153D01*
X147184573Y-98826361D01*
X147176525Y-98812336D01*
X147168922Y-98798083D01*
X147161759Y-98783607D01*
X147155031Y-98768892D01*
X147148736Y-98753919D01*
X147142876Y-98738692D01*
X147137450Y-98723212D01*
X147132458Y-98707482D01*
X147127900Y-98691506D01*
X147123776Y-98675285D01*
X147120087Y-98658823D01*
X147116831Y-98642122D01*
X147114009Y-98625185D01*
X147111622Y-98608015D01*
X147109668Y-98590614D01*
X147108149Y-98572985D01*
X147107064Y-98555132D01*
X147106413Y-98537055D01*
X147106196Y-98518759D01*
X147107043Y-98484771D01*
X147109585Y-98451567D01*
X147113826Y-98419149D01*
X147119768Y-98387521D01*
X147127414Y-98356686D01*
X147136766Y-98326645D01*
X147147827Y-98297402D01*
X147160601Y-98268959D01*
X147175089Y-98241319D01*
X147191294Y-98214486D01*
X147209219Y-98188460D01*
X147228867Y-98163246D01*
X147250241Y-98138845D01*
X147273343Y-98115262D01*
X147298175Y-98092497D01*
X147324742Y-98070555D01*
X147352654Y-98049697D01*
X147381527Y-98030185D01*
X147411366Y-98012019D01*
X147442175Y-97995198D01*
X147473962Y-97979723D01*
X147506731Y-97965594D01*
X147540487Y-97952810D01*
X147575236Y-97941372D01*
X147610984Y-97931280D01*
X147647735Y-97922533D01*
X147685496Y-97915132D01*
X147724271Y-97909077D01*
X147764066Y-97904367D01*
X147804887Y-97901003D01*
X147846739Y-97898984D01*
X147889627Y-97898311D01*
X147927365Y-97898586D01*
G37*
G36*
X148173307Y-130188763D02*
G01*
X148209490Y-130189555D01*
X148277572Y-130192511D01*
X148340576Y-130196986D01*
X148399260Y-130202611D01*
X148454385Y-130209017D01*
X148506710Y-130215836D01*
X148605999Y-130229234D01*
X148774538Y-130545941D01*
X148700878Y-130540656D01*
X148621423Y-130532484D01*
X148452508Y-130511909D01*
X148366737Y-130501718D01*
X148282550Y-130493069D01*
X148201792Y-130487068D01*
X148163276Y-130485407D01*
X148126309Y-130484822D01*
X148100610Y-130485148D01*
X148075601Y-130486128D01*
X148051275Y-130487764D01*
X148027627Y-130490060D01*
X148004653Y-130493018D01*
X147982345Y-130496640D01*
X147960700Y-130500930D01*
X147939711Y-130505890D01*
X147919373Y-130511522D01*
X147899681Y-130517831D01*
X147880630Y-130524817D01*
X147862213Y-130532484D01*
X147844425Y-130540836D01*
X147827262Y-130549873D01*
X147810717Y-130559600D01*
X147794785Y-130570018D01*
X147779636Y-130581022D01*
X147765445Y-130592504D01*
X147752214Y-130604463D01*
X147739946Y-130616899D01*
X147728644Y-130629813D01*
X147718311Y-130643205D01*
X147708949Y-130657073D01*
X147700561Y-130671420D01*
X147693149Y-130686244D01*
X147686717Y-130701545D01*
X147681267Y-130717324D01*
X147676802Y-130733581D01*
X147673324Y-130750314D01*
X147670837Y-130767526D01*
X147669342Y-130785215D01*
X147668844Y-130803381D01*
X147668974Y-130812366D01*
X147669364Y-130821265D01*
X147670016Y-130830077D01*
X147670927Y-130838802D01*
X147672099Y-130847440D01*
X147673532Y-130855991D01*
X147675225Y-130864456D01*
X147677178Y-130872834D01*
X147679392Y-130881125D01*
X147681866Y-130889329D01*
X147684601Y-130897446D01*
X147687596Y-130905477D01*
X147690852Y-130913421D01*
X147694368Y-130921277D01*
X147698145Y-130929048D01*
X147702182Y-130936731D01*
X147706392Y-130944284D01*
X147710686Y-130951667D01*
X147715061Y-130958881D01*
X147719516Y-130965930D01*
X147724046Y-130972816D01*
X147728649Y-130979542D01*
X147733323Y-130986111D01*
X147738065Y-130992525D01*
X147742872Y-130998787D01*
X147747742Y-131004900D01*
X147752671Y-131010866D01*
X147757657Y-131016689D01*
X147762697Y-131022370D01*
X147767789Y-131027913D01*
X147772929Y-131033321D01*
X147778116Y-131038595D01*
X147783520Y-131043826D01*
X147789316Y-131049104D01*
X147795501Y-131054430D01*
X147802078Y-131059808D01*
X147816403Y-131070728D01*
X147832290Y-131081888D01*
X147849740Y-131093308D01*
X147868753Y-131105010D01*
X147889329Y-131117016D01*
X147911467Y-131129347D01*
X147933167Y-131141415D01*
X147953804Y-131152614D01*
X147973356Y-131162945D01*
X147991801Y-131172408D01*
X148009117Y-131181003D01*
X148025283Y-131188730D01*
X148040277Y-131195588D01*
X148054077Y-131201579D01*
X148084637Y-131213328D01*
X148123530Y-131228897D01*
X148226321Y-131270106D01*
X148293632Y-131296816D01*
X148353651Y-131321270D01*
X148406030Y-131343292D01*
X148450422Y-131362710D01*
X148471175Y-131372267D01*
X148493165Y-131382909D01*
X148516414Y-131394680D01*
X148540943Y-131407623D01*
X148566775Y-131421781D01*
X148593930Y-131437198D01*
X148622431Y-131453917D01*
X148652300Y-131471983D01*
X148681376Y-131490655D01*
X148708846Y-131509198D01*
X148721965Y-131518434D01*
X148734667Y-131527654D01*
X148746945Y-131536863D01*
X148758794Y-131546066D01*
X148770210Y-131555269D01*
X148781186Y-131564478D01*
X148791717Y-131573698D01*
X148801798Y-131582934D01*
X148811422Y-131592192D01*
X148820586Y-131601477D01*
X148829283Y-131610794D01*
X148837508Y-131620149D01*
X148853305Y-131639513D01*
X148868733Y-131660114D01*
X148883770Y-131681973D01*
X148898395Y-131705113D01*
X148912586Y-131729556D01*
X148926321Y-131755322D01*
X148939579Y-131782434D01*
X148952338Y-131810914D01*
X148958394Y-131825606D01*
X148964061Y-131840511D01*
X148969344Y-131855621D01*
X148974244Y-131870933D01*
X148978765Y-131886439D01*
X148982908Y-131902136D01*
X148986677Y-131918017D01*
X148990074Y-131934077D01*
X148993102Y-131950311D01*
X148995764Y-131966713D01*
X148998062Y-131983278D01*
X149000000Y-132000000D01*
X149001579Y-132016874D01*
X149002803Y-132033894D01*
X149004196Y-132068354D01*
X149003328Y-132106075D01*
X149000723Y-132142838D01*
X148996382Y-132178641D01*
X148990305Y-132213482D01*
X148982492Y-132247356D01*
X148972942Y-132280261D01*
X148961656Y-132312196D01*
X148948633Y-132343156D01*
X148933875Y-132373140D01*
X148917379Y-132402144D01*
X148899148Y-132430166D01*
X148879180Y-132457204D01*
X148857476Y-132483254D01*
X148834036Y-132508313D01*
X148808859Y-132532380D01*
X148781946Y-132555451D01*
X148753577Y-132577328D01*
X148724032Y-132597814D01*
X148693303Y-132616905D01*
X148661387Y-132634599D01*
X148628276Y-132650892D01*
X148593966Y-132665784D01*
X148558452Y-132679270D01*
X148521728Y-132691347D01*
X148483788Y-132702014D01*
X148444628Y-132711268D01*
X148404241Y-132719105D01*
X148362623Y-132725524D01*
X148319767Y-132730521D01*
X148275669Y-132734093D01*
X148230323Y-132736239D01*
X148183723Y-132736955D01*
X148124124Y-132735305D01*
X148065479Y-132730353D01*
X148007790Y-132722097D01*
X147951055Y-132710534D01*
X147895276Y-132695660D01*
X147840451Y-132677475D01*
X147786582Y-132655974D01*
X147733667Y-132631154D01*
X147681708Y-132603015D01*
X147630703Y-132571551D01*
X147580653Y-132536762D01*
X147531559Y-132498644D01*
X147483419Y-132457194D01*
X147436234Y-132412410D01*
X147390004Y-132364289D01*
X147344729Y-132312828D01*
X147628098Y-132162809D01*
X147661001Y-132196776D01*
X147694418Y-132228533D01*
X147728346Y-132258081D01*
X147762779Y-132285423D01*
X147797711Y-132310562D01*
X147833136Y-132333501D01*
X147869050Y-132354243D01*
X147905447Y-132372789D01*
X147942321Y-132389144D01*
X147979668Y-132403309D01*
X148017481Y-132415287D01*
X148055755Y-132425081D01*
X148094485Y-132432695D01*
X148133666Y-132438129D01*
X148173291Y-132441388D01*
X148213356Y-132442474D01*
X148239118Y-132442105D01*
X148264314Y-132441001D01*
X148288939Y-132439165D01*
X148312992Y-132436599D01*
X148336470Y-132433306D01*
X148359370Y-132429288D01*
X148381690Y-132424549D01*
X148403426Y-132419091D01*
X148424576Y-132412917D01*
X148445138Y-132406029D01*
X148465108Y-132398430D01*
X148484484Y-132390123D01*
X148503263Y-132381111D01*
X148521442Y-132371397D01*
X148539019Y-132360982D01*
X148555991Y-132349870D01*
X148572139Y-132338107D01*
X148587245Y-132325738D01*
X148601310Y-132312768D01*
X148614332Y-132299198D01*
X148626313Y-132285031D01*
X148637251Y-132270270D01*
X148647149Y-132254917D01*
X148656004Y-132238976D01*
X148663817Y-132222449D01*
X148670589Y-132205338D01*
X148676319Y-132187647D01*
X148681007Y-132169378D01*
X148684653Y-132150534D01*
X148687258Y-132131117D01*
X148688820Y-132111131D01*
X148689341Y-132090578D01*
X148689146Y-132077468D01*
X148688563Y-132064533D01*
X148687595Y-132051771D01*
X148686245Y-132039182D01*
X148684514Y-132026768D01*
X148682407Y-132014527D01*
X148679925Y-132002459D01*
X148677071Y-131990565D01*
X148673849Y-131978845D01*
X148670260Y-131967298D01*
X148666308Y-131955925D01*
X148661994Y-131944726D01*
X148657323Y-131933700D01*
X148652296Y-131922848D01*
X148646917Y-131912170D01*
X148641187Y-131901665D01*
X148635067Y-131891312D01*
X148628513Y-131881086D01*
X148621524Y-131870985D01*
X148614101Y-131861006D01*
X148606245Y-131851147D01*
X148597954Y-131841404D01*
X148589229Y-131831775D01*
X148580070Y-131822257D01*
X148570476Y-131812848D01*
X148560449Y-131803544D01*
X148549988Y-131794344D01*
X148539092Y-131785244D01*
X148527763Y-131776242D01*
X148515999Y-131767335D01*
X148503801Y-131758520D01*
X148491169Y-131749794D01*
X148465819Y-131732948D01*
X148441163Y-131717122D01*
X148417202Y-131702295D01*
X148393935Y-131688444D01*
X148371363Y-131675548D01*
X148349485Y-131663586D01*
X148328301Y-131652535D01*
X148307813Y-131642374D01*
X148263682Y-131622927D01*
X148211737Y-131600701D01*
X148151804Y-131575698D01*
X148083711Y-131547917D01*
X148001438Y-131512814D01*
X147963221Y-131495990D01*
X147926978Y-131479622D01*
X147892733Y-131463687D01*
X147860506Y-131448165D01*
X147830319Y-131433034D01*
X147802195Y-131418271D01*
X147775017Y-131403787D01*
X147747645Y-131388175D01*
X147720055Y-131371521D01*
X147692227Y-131353911D01*
X147664138Y-131335434D01*
X147635767Y-131316175D01*
X147607093Y-131296222D01*
X147578092Y-131275661D01*
X147563767Y-131265092D01*
X147549956Y-131254224D01*
X147536656Y-131243064D01*
X147523861Y-131231616D01*
X147511565Y-131219886D01*
X147499762Y-131207879D01*
X147488448Y-131195601D01*
X147477617Y-131183057D01*
X147467263Y-131170252D01*
X147457381Y-131157193D01*
X147447966Y-131143884D01*
X147439013Y-131130330D01*
X147430515Y-131116538D01*
X147422467Y-131102513D01*
X147414864Y-131088260D01*
X147407701Y-131073784D01*
X147400973Y-131059069D01*
X147394678Y-131044096D01*
X147388818Y-131028869D01*
X147383392Y-131013389D01*
X147378400Y-130997659D01*
X147373842Y-130981683D01*
X147369718Y-130965462D01*
X147366029Y-130949000D01*
X147362773Y-130932299D01*
X147359951Y-130915362D01*
X147357564Y-130898192D01*
X147355610Y-130880791D01*
X147354091Y-130863162D01*
X147353006Y-130845309D01*
X147352355Y-130827232D01*
X147352138Y-130808936D01*
X147352985Y-130774948D01*
X147355527Y-130741744D01*
X147359768Y-130709326D01*
X147365710Y-130677698D01*
X147373356Y-130646863D01*
X147382708Y-130616822D01*
X147393769Y-130587579D01*
X147406543Y-130559136D01*
X147421031Y-130531496D01*
X147437236Y-130504663D01*
X147455161Y-130478637D01*
X147474809Y-130453423D01*
X147496183Y-130429022D01*
X147519285Y-130405439D01*
X147544117Y-130382674D01*
X147570684Y-130360732D01*
X147598596Y-130339874D01*
X147627469Y-130320362D01*
X147657308Y-130302196D01*
X147688117Y-130285375D01*
X147719904Y-130269900D01*
X147752673Y-130255771D01*
X147786429Y-130242987D01*
X147821178Y-130231549D01*
X147856926Y-130221457D01*
X147893677Y-130212710D01*
X147931438Y-130205309D01*
X147970213Y-130199254D01*
X148010008Y-130194544D01*
X148050829Y-130191180D01*
X148092681Y-130189161D01*
X148135569Y-130188488D01*
X148173307Y-130188763D01*
G37*
G36*
X141525868Y-100004130D02*
G01*
X139996049Y-101533951D01*
X139996049Y-98474310D01*
X141525868Y-100004130D01*
G37*
G36*
X151356719Y-97897631D02*
G01*
X151407402Y-97901144D01*
X151456917Y-97906996D01*
X151505269Y-97915183D01*
X151552460Y-97925704D01*
X151598492Y-97938555D01*
X151643368Y-97953734D01*
X151687092Y-97971238D01*
X151729665Y-97991064D01*
X151771090Y-98013210D01*
X151811371Y-98037672D01*
X151850509Y-98064449D01*
X151888508Y-98093538D01*
X151925370Y-98124935D01*
X151961098Y-98158638D01*
X151995695Y-98194645D01*
X152028338Y-98233257D01*
X152058897Y-98274082D01*
X152087373Y-98317121D01*
X152113765Y-98362374D01*
X152138074Y-98409841D01*
X152160299Y-98459522D01*
X152180440Y-98511416D01*
X152198498Y-98565524D01*
X152214472Y-98621847D01*
X152228363Y-98680382D01*
X152240170Y-98741132D01*
X152249893Y-98804096D01*
X152257533Y-98869273D01*
X152263090Y-98936664D01*
X152266562Y-99006269D01*
X152267951Y-99078088D01*
X152267781Y-99109617D01*
X152267286Y-99140365D01*
X152266486Y-99170418D01*
X152265405Y-99199863D01*
X152262482Y-99257278D01*
X152258691Y-99313303D01*
X150599225Y-99313303D01*
X150605325Y-99361166D01*
X150612512Y-99407539D01*
X150620790Y-99452452D01*
X150630161Y-99495936D01*
X150640628Y-99538020D01*
X150652194Y-99578734D01*
X150664862Y-99618107D01*
X150678633Y-99656170D01*
X150693512Y-99692953D01*
X150709500Y-99728485D01*
X150726601Y-99762796D01*
X150744816Y-99795916D01*
X150764150Y-99827875D01*
X150784604Y-99858702D01*
X150806181Y-99888428D01*
X150828884Y-99917083D01*
X150852607Y-99944301D01*
X150877244Y-99969704D01*
X150902799Y-99993301D01*
X150929273Y-100015098D01*
X150956669Y-100035105D01*
X150984991Y-100053330D01*
X151014240Y-100069780D01*
X151044420Y-100084464D01*
X151075533Y-100097391D01*
X151107583Y-100108567D01*
X151140571Y-100118001D01*
X151174500Y-100125702D01*
X151209374Y-100131678D01*
X151245194Y-100135936D01*
X151281964Y-100138485D01*
X151319686Y-100139332D01*
X151348423Y-100138855D01*
X151376988Y-100137426D01*
X151405386Y-100135047D01*
X151433618Y-100131722D01*
X151461687Y-100127452D01*
X151489596Y-100122240D01*
X151517348Y-100116091D01*
X151544945Y-100109005D01*
X151572390Y-100100985D01*
X151599686Y-100092036D01*
X151626836Y-100082158D01*
X151653842Y-100071355D01*
X151680706Y-100059630D01*
X151707433Y-100046985D01*
X151734023Y-100033423D01*
X151760481Y-100018947D01*
X152049405Y-100172670D01*
X152007124Y-100205985D01*
X151964314Y-100237171D01*
X151920967Y-100266224D01*
X151877075Y-100293142D01*
X151832629Y-100317922D01*
X151787621Y-100340562D01*
X151742044Y-100361058D01*
X151695889Y-100379409D01*
X151649148Y-100395610D01*
X151601813Y-100409660D01*
X151553875Y-100421557D01*
X151505327Y-100431296D01*
X151456161Y-100438876D01*
X151406367Y-100444293D01*
X151355939Y-100447546D01*
X151304868Y-100448630D01*
X151245876Y-100447176D01*
X151188357Y-100442814D01*
X151132308Y-100435543D01*
X151077727Y-100425363D01*
X151024611Y-100412276D01*
X150972958Y-100396280D01*
X150922764Y-100377376D01*
X150874027Y-100355563D01*
X150826744Y-100330842D01*
X150780913Y-100303213D01*
X150736530Y-100272675D01*
X150693594Y-100239229D01*
X150652100Y-100202874D01*
X150612048Y-100163612D01*
X150573433Y-100121441D01*
X150536253Y-100076361D01*
X150500940Y-100029198D01*
X150467925Y-99980776D01*
X150437205Y-99931096D01*
X150408778Y-99880156D01*
X150382640Y-99827958D01*
X150358790Y-99774501D01*
X150337224Y-99719785D01*
X150317939Y-99663810D01*
X150300933Y-99606576D01*
X150286204Y-99548084D01*
X150273748Y-99488332D01*
X150263563Y-99427322D01*
X150255646Y-99365053D01*
X150249994Y-99301525D01*
X150246605Y-99236738D01*
X150245476Y-99170692D01*
X150246605Y-99097050D01*
X150249994Y-99025445D01*
X150250683Y-99016970D01*
X150588112Y-99016970D01*
X151927168Y-99016970D01*
X151926083Y-98962407D01*
X151923525Y-98909846D01*
X151919497Y-98859292D01*
X151914000Y-98810752D01*
X151907039Y-98764230D01*
X151898616Y-98719732D01*
X151888732Y-98677264D01*
X151877392Y-98636830D01*
X151864598Y-98598436D01*
X151850353Y-98562088D01*
X151834658Y-98527791D01*
X151817518Y-98495551D01*
X151798934Y-98465372D01*
X151778910Y-98437261D01*
X151757448Y-98411222D01*
X151734551Y-98387262D01*
X151710740Y-98365017D01*
X151686534Y-98344129D01*
X151661926Y-98324607D01*
X151636911Y-98306465D01*
X151611484Y-98289711D01*
X151585639Y-98274357D01*
X151559371Y-98260414D01*
X151532674Y-98247892D01*
X151505543Y-98236803D01*
X151477972Y-98227158D01*
X151449956Y-98218966D01*
X151421491Y-98212240D01*
X151392569Y-98206989D01*
X151363186Y-98203225D01*
X151333337Y-98200959D01*
X151303015Y-98200201D01*
X151265555Y-98201025D01*
X151228885Y-98203493D01*
X151193012Y-98207600D01*
X151157945Y-98213339D01*
X151123692Y-98220707D01*
X151090261Y-98229697D01*
X151057660Y-98240304D01*
X151025897Y-98252523D01*
X150994981Y-98266347D01*
X150964920Y-98281773D01*
X150935721Y-98298793D01*
X150907393Y-98317403D01*
X150879944Y-98337598D01*
X150853383Y-98359372D01*
X150827716Y-98382719D01*
X150802953Y-98407635D01*
X150779013Y-98434011D01*
X150756499Y-98461772D01*
X150735407Y-98490954D01*
X150715732Y-98521596D01*
X150697467Y-98553735D01*
X150680607Y-98587410D01*
X150665148Y-98622658D01*
X150651083Y-98659518D01*
X150638406Y-98698027D01*
X150627114Y-98738224D01*
X150617200Y-98780146D01*
X150608658Y-98823832D01*
X150601484Y-98869319D01*
X150595672Y-98916646D01*
X150591216Y-98965850D01*
X150588112Y-99016970D01*
X150250683Y-99016970D01*
X150255646Y-98955875D01*
X150263563Y-98888337D01*
X150273748Y-98822828D01*
X150286204Y-98759346D01*
X150300933Y-98697887D01*
X150317939Y-98638450D01*
X150337224Y-98581032D01*
X150358790Y-98525629D01*
X150382640Y-98472239D01*
X150408778Y-98420859D01*
X150437205Y-98371488D01*
X150467925Y-98324121D01*
X150500940Y-98278756D01*
X150536253Y-98235391D01*
X150573433Y-98194348D01*
X150612048Y-98155954D01*
X150652100Y-98120207D01*
X150693594Y-98087109D01*
X150736530Y-98056658D01*
X150780913Y-98028855D01*
X150826744Y-98003700D01*
X150874027Y-97981193D01*
X150922764Y-97961333D01*
X150972958Y-97944122D01*
X151024611Y-97929559D01*
X151077727Y-97917643D01*
X151132308Y-97908375D01*
X151188357Y-97901756D01*
X151245876Y-97897784D01*
X151304868Y-97896460D01*
X151356719Y-97897631D01*
G37*
G36*
X152880990Y-98883620D02*
G01*
X153744061Y-97953874D01*
X154131148Y-97953874D01*
X153519960Y-98602104D01*
X154434890Y-100391216D01*
X154068176Y-100391216D01*
X153286598Y-98846579D01*
X152880990Y-99279966D01*
X152880990Y-100391216D01*
X152547616Y-100391216D01*
X152547616Y-97109324D01*
X152880990Y-96946341D01*
X152880990Y-98883620D01*
G37*
G36*
X149739471Y-130251460D02*
G01*
X150369180Y-130251460D01*
X150369180Y-130547793D01*
X149739471Y-130547793D01*
X149739471Y-132036868D01*
X149739688Y-132059809D01*
X149740336Y-132082096D01*
X149741413Y-132103726D01*
X149742915Y-132124698D01*
X149744841Y-132145007D01*
X149747187Y-132164651D01*
X149749952Y-132183628D01*
X149753131Y-132201935D01*
X149756722Y-132219569D01*
X149760724Y-132236528D01*
X149765132Y-132252808D01*
X149769944Y-132268408D01*
X149775159Y-132283323D01*
X149780771Y-132297553D01*
X149786780Y-132311093D01*
X149793183Y-132323941D01*
X149800193Y-132336052D01*
X149808028Y-132347382D01*
X149816688Y-132357930D01*
X149826173Y-132367697D01*
X149836483Y-132376682D01*
X149847617Y-132384886D01*
X149859576Y-132392309D01*
X149872360Y-132398951D01*
X149885968Y-132404811D01*
X149900401Y-132409889D01*
X149915659Y-132414187D01*
X149931742Y-132417703D01*
X149948649Y-132420438D01*
X149966382Y-132422391D01*
X149984939Y-132423563D01*
X150004320Y-132423954D01*
X150023984Y-132423390D01*
X150044082Y-132421700D01*
X150064614Y-132418887D01*
X150085580Y-132414954D01*
X150106980Y-132409902D01*
X150128815Y-132403736D01*
X150151083Y-132396458D01*
X150173786Y-132388069D01*
X150196922Y-132378574D01*
X150220493Y-132367975D01*
X150244498Y-132356274D01*
X150268937Y-132343474D01*
X150293810Y-132329579D01*
X150319117Y-132314590D01*
X150344858Y-132298510D01*
X150371033Y-132281343D01*
X150511791Y-132548044D01*
X150447280Y-132581623D01*
X150388194Y-132611011D01*
X150334100Y-132636486D01*
X150284564Y-132658329D01*
X150239152Y-132676819D01*
X150197429Y-132692235D01*
X150158962Y-132704856D01*
X150123317Y-132714962D01*
X150090059Y-132722833D01*
X150058755Y-132728748D01*
X150028969Y-132732986D01*
X150000269Y-132735827D01*
X149972220Y-132737550D01*
X149944388Y-132738435D01*
X149887639Y-132738808D01*
X149858068Y-132738265D01*
X149829429Y-132736637D01*
X149801725Y-132733923D01*
X149774955Y-132730123D01*
X149749120Y-132725236D01*
X149724220Y-132719262D01*
X149700255Y-132712201D01*
X149677225Y-132704052D01*
X149655132Y-132694816D01*
X149633975Y-132684491D01*
X149613755Y-132673078D01*
X149594471Y-132660575D01*
X149576125Y-132646984D01*
X149558717Y-132632303D01*
X149542247Y-132616531D01*
X149526715Y-132599670D01*
X149512122Y-132581718D01*
X149498467Y-132562675D01*
X149485753Y-132542541D01*
X149473977Y-132521315D01*
X149463142Y-132498997D01*
X149453248Y-132475586D01*
X149444294Y-132451083D01*
X149436281Y-132425487D01*
X149429210Y-132398798D01*
X149423080Y-132371015D01*
X149413647Y-132312167D01*
X149407986Y-132248939D01*
X149406098Y-132181331D01*
X149406098Y-130547793D01*
X149076426Y-130547793D01*
X148918999Y-130251460D01*
X149406097Y-130251460D01*
X149406097Y-129405057D01*
X149739471Y-129238370D01*
X149739471Y-130251460D01*
G37*
G36*
X145870857Y-99691128D02*
G01*
X145878816Y-99716594D01*
X145888684Y-99746227D01*
X145900288Y-99780722D01*
X145913455Y-99820773D01*
X145927346Y-99860333D01*
X145938458Y-99892773D01*
X145946793Y-99917921D01*
X145952348Y-99935603D01*
X146037544Y-99689276D01*
X146661696Y-97961283D01*
X147019149Y-97961283D01*
X145776400Y-101320962D01*
X145365237Y-101535803D01*
X145807886Y-100318984D01*
X144915181Y-97961283D01*
X145254112Y-97961283D01*
X145870857Y-99691128D01*
G37*
G36*
X144131858Y-96994509D02*
G01*
X144181786Y-96996989D01*
X144232977Y-97000630D01*
X144285059Y-97005529D01*
X144337656Y-97011786D01*
X144390394Y-97019496D01*
X144442899Y-97028758D01*
X144494797Y-97039670D01*
X144545712Y-97052329D01*
X144595270Y-97066833D01*
X144643098Y-97083279D01*
X144688821Y-97101765D01*
X144732063Y-97122390D01*
X144772452Y-97145250D01*
X144809612Y-97170443D01*
X144850987Y-97202474D01*
X144894056Y-97238825D01*
X144915994Y-97259264D01*
X144938079Y-97281557D01*
X144960218Y-97305960D01*
X144982319Y-97332732D01*
X145004290Y-97362129D01*
X145026038Y-97394411D01*
X145047472Y-97429834D01*
X145068499Y-97468657D01*
X145089026Y-97511137D01*
X145108962Y-97557532D01*
X145128215Y-97608099D01*
X145146691Y-97663097D01*
X144809612Y-97663097D01*
X144800550Y-97642360D01*
X144791370Y-97622481D01*
X144782001Y-97603405D01*
X144772368Y-97585078D01*
X144762399Y-97567445D01*
X144752021Y-97550452D01*
X144741159Y-97534046D01*
X144729741Y-97518171D01*
X144717694Y-97502774D01*
X144704944Y-97487800D01*
X144691419Y-97473195D01*
X144677044Y-97458905D01*
X144661746Y-97444875D01*
X144645453Y-97431051D01*
X144628092Y-97417379D01*
X144609588Y-97403805D01*
X144587346Y-97389637D01*
X144561795Y-97376321D01*
X144533227Y-97363884D01*
X144501935Y-97352352D01*
X144468212Y-97341754D01*
X144432351Y-97332117D01*
X144394646Y-97323467D01*
X144355388Y-97315832D01*
X144314872Y-97309238D01*
X144273390Y-97303713D01*
X144231235Y-97299285D01*
X144188701Y-97295979D01*
X144146079Y-97293824D01*
X144103664Y-97292847D01*
X144061748Y-97293074D01*
X144020624Y-97294532D01*
X143984965Y-97296884D01*
X143950223Y-97299799D01*
X143916404Y-97303323D01*
X143883512Y-97307497D01*
X143851554Y-97312366D01*
X143820534Y-97317973D01*
X143790458Y-97324361D01*
X143761332Y-97331574D01*
X143733161Y-97339655D01*
X143705951Y-97348648D01*
X143679706Y-97358596D01*
X143654433Y-97369542D01*
X143630136Y-97381530D01*
X143606821Y-97394603D01*
X143584494Y-97408804D01*
X143563159Y-97424178D01*
X143542975Y-97440499D01*
X143524092Y-97457512D01*
X143506512Y-97475214D01*
X143490234Y-97493602D01*
X143475258Y-97512674D01*
X143461584Y-97532427D01*
X143449213Y-97552859D01*
X143438144Y-97573965D01*
X143428377Y-97595745D01*
X143419912Y-97618195D01*
X143412750Y-97641312D01*
X143406890Y-97665094D01*
X143402332Y-97689537D01*
X143399076Y-97714640D01*
X143397123Y-97740400D01*
X143396472Y-97766814D01*
X143396710Y-97783005D01*
X143397423Y-97798939D01*
X143398608Y-97814618D01*
X143400263Y-97830045D01*
X143402384Y-97845222D01*
X143404969Y-97860152D01*
X143408015Y-97874838D01*
X143411520Y-97889282D01*
X143415481Y-97903488D01*
X143419894Y-97917458D01*
X143424758Y-97931194D01*
X143430070Y-97944700D01*
X143435827Y-97957978D01*
X143442026Y-97971031D01*
X143448664Y-97983862D01*
X143455739Y-97996472D01*
X143463597Y-98008908D01*
X143471894Y-98021211D01*
X143480636Y-98033378D01*
X143489829Y-98045407D01*
X143499477Y-98057295D01*
X143509586Y-98069040D01*
X143520163Y-98080637D01*
X143531211Y-98092086D01*
X143542737Y-98103382D01*
X143554745Y-98114524D01*
X143567242Y-98125509D01*
X143580233Y-98136333D01*
X143593723Y-98146995D01*
X143607718Y-98157491D01*
X143622223Y-98167819D01*
X143637243Y-98177976D01*
X143667628Y-98197683D01*
X143697667Y-98216523D01*
X143727358Y-98234494D01*
X143756702Y-98251597D01*
X143785699Y-98267831D01*
X143814348Y-98283198D01*
X143842651Y-98297696D01*
X143870606Y-98311326D01*
X143930654Y-98338789D01*
X143999557Y-98368509D01*
X144077141Y-98400660D01*
X144163234Y-98435416D01*
X144211768Y-98454338D01*
X144258761Y-98473586D01*
X144304235Y-98493138D01*
X144348211Y-98512972D01*
X144390712Y-98533066D01*
X144431758Y-98553400D01*
X144471372Y-98573950D01*
X144509575Y-98594695D01*
X144547079Y-98616305D01*
X144584584Y-98639434D01*
X144622089Y-98664040D01*
X144659593Y-98690077D01*
X144697098Y-98717504D01*
X144734603Y-98746277D01*
X144772108Y-98776351D01*
X144809612Y-98807685D01*
X144828105Y-98824181D01*
X144846083Y-98841030D01*
X144863550Y-98858236D01*
X144880513Y-98875807D01*
X144896976Y-98893746D01*
X144912946Y-98912060D01*
X144928427Y-98930753D01*
X144943426Y-98949832D01*
X144957947Y-98969302D01*
X144971995Y-98989167D01*
X144985578Y-99009434D01*
X144998699Y-99030108D01*
X145011364Y-99051195D01*
X145023578Y-99072699D01*
X145035348Y-99094627D01*
X145046678Y-99116983D01*
X145056771Y-99139729D01*
X145066212Y-99162822D01*
X145075002Y-99186262D01*
X145083141Y-99210050D01*
X145090629Y-99234185D01*
X145097466Y-99258667D01*
X145103652Y-99283497D01*
X145109186Y-99308674D01*
X145114070Y-99334198D01*
X145118302Y-99360069D01*
X145121883Y-99386287D01*
X145124813Y-99412853D01*
X145127092Y-99439766D01*
X145128720Y-99467026D01*
X145129697Y-99494634D01*
X145130022Y-99522589D01*
X145128893Y-99576045D01*
X145125504Y-99628064D01*
X145119853Y-99678639D01*
X145111936Y-99727765D01*
X145101750Y-99775437D01*
X145089295Y-99821650D01*
X145074565Y-99866397D01*
X145057559Y-99909675D01*
X145038275Y-99951476D01*
X145016709Y-99991796D01*
X144992858Y-100030629D01*
X144966720Y-100067970D01*
X144938293Y-100103813D01*
X144907573Y-100138154D01*
X144874558Y-100170986D01*
X144839245Y-100202304D01*
X144802087Y-100232234D01*
X144763538Y-100260214D01*
X144723593Y-100286246D01*
X144682252Y-100310332D01*
X144639511Y-100332476D01*
X144595367Y-100352681D01*
X144549818Y-100370948D01*
X144502860Y-100387281D01*
X144454492Y-100401682D01*
X144404711Y-100414154D01*
X144353513Y-100424700D01*
X144300896Y-100433322D01*
X144246858Y-100440024D01*
X144191396Y-100444807D01*
X144134506Y-100447675D01*
X144076187Y-100448631D01*
X144025898Y-100447850D01*
X143976434Y-100445513D01*
X143927795Y-100441623D01*
X143879981Y-100436187D01*
X143832992Y-100429210D01*
X143786827Y-100420698D01*
X143741487Y-100410655D01*
X143696972Y-100399087D01*
X143653282Y-100386001D01*
X143610416Y-100371400D01*
X143568375Y-100355291D01*
X143527159Y-100337679D01*
X143486768Y-100318570D01*
X143447201Y-100297968D01*
X143408459Y-100275879D01*
X143370542Y-100252310D01*
X143336793Y-100229454D01*
X143304305Y-100206029D01*
X143273082Y-100182029D01*
X143243125Y-100157448D01*
X143214438Y-100132282D01*
X143187024Y-100106523D01*
X143160884Y-100080168D01*
X143136023Y-100053211D01*
X143112442Y-100025646D01*
X143090144Y-99997467D01*
X143069132Y-99968670D01*
X143049409Y-99939250D01*
X143030977Y-99909199D01*
X143013840Y-99878514D01*
X142997999Y-99847189D01*
X142983457Y-99815218D01*
X143279790Y-99655939D01*
X143293378Y-99683699D01*
X143307753Y-99710723D01*
X143322919Y-99737016D01*
X143338883Y-99762578D01*
X143355651Y-99787413D01*
X143373227Y-99811524D01*
X143391616Y-99834914D01*
X143410825Y-99857584D01*
X143430859Y-99879538D01*
X143451723Y-99900779D01*
X143473423Y-99921309D01*
X143495963Y-99941130D01*
X143519350Y-99960247D01*
X143543589Y-99978660D01*
X143568685Y-99996374D01*
X143594644Y-100013390D01*
X143621276Y-100029538D01*
X143648391Y-100044644D01*
X143675994Y-100058709D01*
X143704091Y-100071731D01*
X143732687Y-100083712D01*
X143761788Y-100094651D01*
X143791398Y-100104548D01*
X143821524Y-100113403D01*
X143852172Y-100121217D01*
X143883345Y-100127988D01*
X143915050Y-100133718D01*
X143947293Y-100138406D01*
X143980077Y-100142053D01*
X144013410Y-100144657D01*
X144047297Y-100146220D01*
X144081742Y-100146741D01*
X144122177Y-100146132D01*
X144161527Y-100144303D01*
X144199791Y-100141247D01*
X144236970Y-100136960D01*
X144273064Y-100131435D01*
X144308073Y-100124668D01*
X144341997Y-100116653D01*
X144374835Y-100107384D01*
X144406588Y-100096857D01*
X144437256Y-100085065D01*
X144466839Y-100072003D01*
X144495336Y-100057667D01*
X144522748Y-100042050D01*
X144549075Y-100025147D01*
X144574317Y-100006953D01*
X144598474Y-99987461D01*
X144621350Y-99966799D01*
X144642750Y-99945095D01*
X144662674Y-99922349D01*
X144681123Y-99898561D01*
X144698096Y-99873732D01*
X144713592Y-99847861D01*
X144727613Y-99820948D01*
X144740158Y-99792993D01*
X144751228Y-99763996D01*
X144760821Y-99733958D01*
X144768938Y-99702877D01*
X144775580Y-99670755D01*
X144780745Y-99637591D01*
X144784435Y-99603386D01*
X144786649Y-99568138D01*
X144787387Y-99531849D01*
X144786584Y-99497144D01*
X144784175Y-99463181D01*
X144780160Y-99429960D01*
X144774538Y-99397486D01*
X144767311Y-99365760D01*
X144758477Y-99334786D01*
X144748038Y-99304567D01*
X144735992Y-99275104D01*
X144722340Y-99246400D01*
X144707082Y-99218460D01*
X144690218Y-99191284D01*
X144671748Y-99164876D01*
X144651672Y-99139238D01*
X144629989Y-99114374D01*
X144606701Y-99090286D01*
X144581806Y-99066976D01*
X144555586Y-99044252D01*
X144528320Y-99021925D01*
X144500000Y-99000000D01*
X144470623Y-98978481D01*
X144440182Y-98957375D01*
X144408672Y-98936686D01*
X144376088Y-98916421D01*
X144342424Y-98896584D01*
X144307675Y-98877182D01*
X144271835Y-98858219D01*
X144234899Y-98839701D01*
X144196862Y-98821633D01*
X144157717Y-98804021D01*
X144117461Y-98786870D01*
X144076087Y-98770186D01*
X144033589Y-98753974D01*
X143983062Y-98735142D01*
X143934271Y-98716180D01*
X143887216Y-98697131D01*
X143841898Y-98678038D01*
X143798316Y-98658946D01*
X143756471Y-98639897D01*
X143716362Y-98620935D01*
X143677989Y-98602103D01*
X143640398Y-98582660D01*
X143602632Y-98561849D01*
X143564694Y-98539693D01*
X143526581Y-98516213D01*
X143488295Y-98491430D01*
X143449835Y-98465367D01*
X143411202Y-98438045D01*
X143372395Y-98409486D01*
X143353557Y-98394707D01*
X143335245Y-98379542D01*
X143317465Y-98363997D01*
X143300222Y-98348078D01*
X143283521Y-98331790D01*
X143267369Y-98315138D01*
X143251770Y-98298129D01*
X143236730Y-98280766D01*
X143222254Y-98263057D01*
X143208348Y-98245005D01*
X143195017Y-98226617D01*
X143182267Y-98207898D01*
X143170103Y-98188854D01*
X143158530Y-98169489D01*
X143147554Y-98149810D01*
X143137181Y-98129822D01*
X143127414Y-98109529D01*
X143118258Y-98088938D01*
X143109715Y-98068055D01*
X143101788Y-98046883D01*
X143094480Y-98025430D01*
X143087793Y-98003699D01*
X143081730Y-97981698D01*
X143076293Y-97959430D01*
X143071486Y-97936902D01*
X143067311Y-97914119D01*
X143063771Y-97891087D01*
X143060869Y-97867810D01*
X143058607Y-97844294D01*
X143056987Y-97820546D01*
X143056014Y-97796569D01*
X143055689Y-97772370D01*
X143056730Y-97731784D01*
X143059856Y-97691982D01*
X143065065Y-97652966D01*
X143072357Y-97614740D01*
X143081734Y-97577307D01*
X143093193Y-97540668D01*
X143106737Y-97504827D01*
X143122364Y-97469786D01*
X143140074Y-97435548D01*
X143159868Y-97402116D01*
X143181746Y-97369493D01*
X143205707Y-97337680D01*
X143231752Y-97306682D01*
X143259881Y-97276500D01*
X143290093Y-97247137D01*
X143322388Y-97218597D01*
X143356442Y-97191337D01*
X143391925Y-97165816D01*
X143428835Y-97142037D01*
X143467170Y-97120002D01*
X143506926Y-97099715D01*
X143548101Y-97081177D01*
X143590692Y-97064392D01*
X143634697Y-97049363D01*
X143680112Y-97036091D01*
X143726935Y-97024580D01*
X143775164Y-97014833D01*
X143824796Y-97006851D01*
X143875827Y-97000639D01*
X143928256Y-96996198D01*
X143982079Y-96993532D01*
X144037293Y-96992643D01*
X144131858Y-96994509D01*
G37*
G36*
X153126932Y-131173797D02*
G01*
X153990003Y-130244051D01*
X154377090Y-130244051D01*
X153765902Y-130892281D01*
X154680832Y-132681393D01*
X154314118Y-132681393D01*
X153532540Y-131136756D01*
X153126932Y-131570143D01*
X153126932Y-132681393D01*
X152793558Y-132681393D01*
X152793558Y-129399501D01*
X153126932Y-129236518D01*
X153126932Y-131173797D01*
G37*
D11*
X146666666Y-101054819D02*
X146666666Y-101769104D01*
X146666666Y-101769104D02*
X146619047Y-101911961D01*
X146619047Y-101911961D02*
X146523809Y-102007200D01*
X146523809Y-102007200D02*
X146380952Y-102054819D01*
X146380952Y-102054819D02*
X146285714Y-102054819D01*
X147666666Y-102054819D02*
X147095238Y-102054819D01*
X147380952Y-102054819D02*
X147380952Y-101054819D01*
X147380952Y-101054819D02*
X147285714Y-101197676D01*
X147285714Y-101197676D02*
X147190476Y-101292914D01*
X147190476Y-101292914D02*
X147095238Y-101340533D01*
D12*
X144042580Y-115904762D02*
X145042580Y-115904762D01*
X145042580Y-115904762D02*
X145042580Y-116142857D01*
X145042580Y-116142857D02*
X144994961Y-116285714D01*
X144994961Y-116285714D02*
X144899723Y-116380952D01*
X144899723Y-116380952D02*
X144804485Y-116428571D01*
X144804485Y-116428571D02*
X144614009Y-116476190D01*
X144614009Y-116476190D02*
X144471152Y-116476190D01*
X144471152Y-116476190D02*
X144280676Y-116428571D01*
X144280676Y-116428571D02*
X144185438Y-116380952D01*
X144185438Y-116380952D02*
X144090200Y-116285714D01*
X144090200Y-116285714D02*
X144042580Y-116142857D01*
X144042580Y-116142857D02*
X144042580Y-115904762D01*
X144518771Y-117095238D02*
X144042580Y-117095238D01*
X145042580Y-116761905D02*
X144518771Y-117095238D01*
X144518771Y-117095238D02*
X145042580Y-117428571D01*
X144423533Y-117761905D02*
X144423533Y-118523810D01*
X144566390Y-119333333D02*
X144518771Y-119476190D01*
X144518771Y-119476190D02*
X144471152Y-119523809D01*
X144471152Y-119523809D02*
X144375914Y-119571428D01*
X144375914Y-119571428D02*
X144233057Y-119571428D01*
X144233057Y-119571428D02*
X144137819Y-119523809D01*
X144137819Y-119523809D02*
X144090200Y-119476190D01*
X144090200Y-119476190D02*
X144042580Y-119380952D01*
X144042580Y-119380952D02*
X144042580Y-119000000D01*
X144042580Y-119000000D02*
X145042580Y-119000000D01*
X145042580Y-119000000D02*
X145042580Y-119333333D01*
X145042580Y-119333333D02*
X144994961Y-119428571D01*
X144994961Y-119428571D02*
X144947342Y-119476190D01*
X144947342Y-119476190D02*
X144852104Y-119523809D01*
X144852104Y-119523809D02*
X144756866Y-119523809D01*
X144756866Y-119523809D02*
X144661628Y-119476190D01*
X144661628Y-119476190D02*
X144614009Y-119428571D01*
X144614009Y-119428571D02*
X144566390Y-119333333D01*
X144566390Y-119333333D02*
X144566390Y-119000000D01*
X144042580Y-120000000D02*
X145042580Y-120000000D01*
X145042580Y-120000000D02*
X144328295Y-120333333D01*
X144328295Y-120333333D02*
X145042580Y-120666666D01*
X145042580Y-120666666D02*
X144042580Y-120666666D01*
X144042580Y-121142857D02*
X145042580Y-121142857D01*
X144042580Y-122142856D02*
X144042580Y-121571428D01*
X144042580Y-121857142D02*
X145042580Y-121857142D01*
X145042580Y-121857142D02*
X144899723Y-121761904D01*
X144899723Y-121761904D02*
X144804485Y-121666666D01*
X144804485Y-121666666D02*
X144756866Y-121571428D01*
D13*
X146065166Y-73238105D02*
X146065166Y-73957772D01*
X146065166Y-73957772D02*
X146107500Y-74042438D01*
X146107500Y-74042438D02*
X146149833Y-74084772D01*
X146149833Y-74084772D02*
X146234500Y-74127105D01*
X146234500Y-74127105D02*
X146403833Y-74127105D01*
X146403833Y-74127105D02*
X146488500Y-74084772D01*
X146488500Y-74084772D02*
X146530833Y-74042438D01*
X146530833Y-74042438D02*
X146573166Y-73957772D01*
X146573166Y-73957772D02*
X146573166Y-73238105D01*
X147462166Y-74127105D02*
X146954166Y-74127105D01*
X147208166Y-74127105D02*
X147208166Y-73238105D01*
X147208166Y-73238105D02*
X147123499Y-73365105D01*
X147123499Y-73365105D02*
X147038833Y-73449772D01*
X147038833Y-73449772D02*
X146954166Y-73492105D01*
D14*
X143075829Y-84955641D02*
X143162915Y-84984669D01*
X143162915Y-84984669D02*
X143308057Y-84984669D01*
X143308057Y-84984669D02*
X143366115Y-84955641D01*
X143366115Y-84955641D02*
X143395143Y-84926612D01*
X143395143Y-84926612D02*
X143424172Y-84868555D01*
X143424172Y-84868555D02*
X143424172Y-84810498D01*
X143424172Y-84810498D02*
X143395143Y-84752441D01*
X143395143Y-84752441D02*
X143366115Y-84723412D01*
X143366115Y-84723412D02*
X143308057Y-84694383D01*
X143308057Y-84694383D02*
X143191943Y-84665355D01*
X143191943Y-84665355D02*
X143133886Y-84636326D01*
X143133886Y-84636326D02*
X143104857Y-84607298D01*
X143104857Y-84607298D02*
X143075829Y-84549241D01*
X143075829Y-84549241D02*
X143075829Y-84491183D01*
X143075829Y-84491183D02*
X143104857Y-84433126D01*
X143104857Y-84433126D02*
X143133886Y-84404098D01*
X143133886Y-84404098D02*
X143191943Y-84375069D01*
X143191943Y-84375069D02*
X143337086Y-84375069D01*
X143337086Y-84375069D02*
X143424172Y-84404098D01*
X143917657Y-84955641D02*
X143859600Y-84984669D01*
X143859600Y-84984669D02*
X143743486Y-84984669D01*
X143743486Y-84984669D02*
X143685428Y-84955641D01*
X143685428Y-84955641D02*
X143656400Y-84897583D01*
X143656400Y-84897583D02*
X143656400Y-84665355D01*
X143656400Y-84665355D02*
X143685428Y-84607298D01*
X143685428Y-84607298D02*
X143743486Y-84578269D01*
X143743486Y-84578269D02*
X143859600Y-84578269D01*
X143859600Y-84578269D02*
X143917657Y-84607298D01*
X143917657Y-84607298D02*
X143946686Y-84665355D01*
X143946686Y-84665355D02*
X143946686Y-84723412D01*
X143946686Y-84723412D02*
X143656400Y-84781469D01*
X144440171Y-84955641D02*
X144382114Y-84984669D01*
X144382114Y-84984669D02*
X144266000Y-84984669D01*
X144266000Y-84984669D02*
X144207942Y-84955641D01*
X144207942Y-84955641D02*
X144178914Y-84897583D01*
X144178914Y-84897583D02*
X144178914Y-84665355D01*
X144178914Y-84665355D02*
X144207942Y-84607298D01*
X144207942Y-84607298D02*
X144266000Y-84578269D01*
X144266000Y-84578269D02*
X144382114Y-84578269D01*
X144382114Y-84578269D02*
X144440171Y-84607298D01*
X144440171Y-84607298D02*
X144469200Y-84665355D01*
X144469200Y-84665355D02*
X144469200Y-84723412D01*
X144469200Y-84723412D02*
X144178914Y-84781469D01*
X144962685Y-84955641D02*
X144904628Y-84984669D01*
X144904628Y-84984669D02*
X144788514Y-84984669D01*
X144788514Y-84984669D02*
X144730456Y-84955641D01*
X144730456Y-84955641D02*
X144701428Y-84897583D01*
X144701428Y-84897583D02*
X144701428Y-84665355D01*
X144701428Y-84665355D02*
X144730456Y-84607298D01*
X144730456Y-84607298D02*
X144788514Y-84578269D01*
X144788514Y-84578269D02*
X144904628Y-84578269D01*
X144904628Y-84578269D02*
X144962685Y-84607298D01*
X144962685Y-84607298D02*
X144991714Y-84665355D01*
X144991714Y-84665355D02*
X144991714Y-84723412D01*
X144991714Y-84723412D02*
X144701428Y-84781469D01*
X145514228Y-84984669D02*
X145514228Y-84375069D01*
X145514228Y-84955641D02*
X145456170Y-84984669D01*
X145456170Y-84984669D02*
X145340056Y-84984669D01*
X145340056Y-84984669D02*
X145281999Y-84955641D01*
X145281999Y-84955641D02*
X145252970Y-84926612D01*
X145252970Y-84926612D02*
X145223942Y-84868555D01*
X145223942Y-84868555D02*
X145223942Y-84694383D01*
X145223942Y-84694383D02*
X145252970Y-84636326D01*
X145252970Y-84636326D02*
X145281999Y-84607298D01*
X145281999Y-84607298D02*
X145340056Y-84578269D01*
X145340056Y-84578269D02*
X145456170Y-84578269D01*
X145456170Y-84578269D02*
X145514228Y-84607298D01*
X146065771Y-84578269D02*
X146065771Y-84984669D01*
X145804513Y-84578269D02*
X145804513Y-84897583D01*
X145804513Y-84897583D02*
X145833542Y-84955641D01*
X145833542Y-84955641D02*
X145891599Y-84984669D01*
X145891599Y-84984669D02*
X145978685Y-84984669D01*
X145978685Y-84984669D02*
X146036742Y-84955641D01*
X146036742Y-84955641D02*
X146065771Y-84926612D01*
X146356056Y-84984669D02*
X146356056Y-84578269D01*
X146356056Y-84375069D02*
X146327028Y-84404098D01*
X146327028Y-84404098D02*
X146356056Y-84433126D01*
X146356056Y-84433126D02*
X146385085Y-84404098D01*
X146385085Y-84404098D02*
X146356056Y-84375069D01*
X146356056Y-84375069D02*
X146356056Y-84433126D01*
X146646342Y-84578269D02*
X146646342Y-84984669D01*
X146646342Y-84636326D02*
X146675371Y-84607298D01*
X146675371Y-84607298D02*
X146733428Y-84578269D01*
X146733428Y-84578269D02*
X146820514Y-84578269D01*
X146820514Y-84578269D02*
X146878571Y-84607298D01*
X146878571Y-84607298D02*
X146907600Y-84665355D01*
X146907600Y-84665355D02*
X146907600Y-84984669D01*
X147284971Y-84984669D02*
X147226914Y-84955641D01*
X147226914Y-84955641D02*
X147197885Y-84926612D01*
X147197885Y-84926612D02*
X147168857Y-84868555D01*
X147168857Y-84868555D02*
X147168857Y-84694383D01*
X147168857Y-84694383D02*
X147197885Y-84636326D01*
X147197885Y-84636326D02*
X147226914Y-84607298D01*
X147226914Y-84607298D02*
X147284971Y-84578269D01*
X147284971Y-84578269D02*
X147372057Y-84578269D01*
X147372057Y-84578269D02*
X147430114Y-84607298D01*
X147430114Y-84607298D02*
X147459143Y-84636326D01*
X147459143Y-84636326D02*
X147488171Y-84694383D01*
X147488171Y-84694383D02*
X147488171Y-84868555D01*
X147488171Y-84868555D02*
X147459143Y-84926612D01*
X147459143Y-84926612D02*
X147430114Y-84955641D01*
X147430114Y-84955641D02*
X147372057Y-84984669D01*
X147372057Y-84984669D02*
X147284971Y-84984669D01*
X147691371Y-84375069D02*
X148097771Y-84984669D01*
X148097771Y-84375069D02*
X147691371Y-84984669D01*
X148329999Y-84984669D02*
X148329999Y-84375069D01*
X148591257Y-84810498D02*
X148881543Y-84810498D01*
X148533200Y-84984669D02*
X148736400Y-84375069D01*
X148736400Y-84375069D02*
X148939600Y-84984669D01*
X149258914Y-84375069D02*
X149375028Y-84375069D01*
X149375028Y-84375069D02*
X149433085Y-84404098D01*
X149433085Y-84404098D02*
X149491142Y-84462155D01*
X149491142Y-84462155D02*
X149520171Y-84578269D01*
X149520171Y-84578269D02*
X149520171Y-84781469D01*
X149520171Y-84781469D02*
X149491142Y-84897583D01*
X149491142Y-84897583D02*
X149433085Y-84955641D01*
X149433085Y-84955641D02*
X149375028Y-84984669D01*
X149375028Y-84984669D02*
X149258914Y-84984669D01*
X149258914Y-84984669D02*
X149200857Y-84955641D01*
X149200857Y-84955641D02*
X149142799Y-84897583D01*
X149142799Y-84897583D02*
X149113771Y-84781469D01*
X149113771Y-84781469D02*
X149113771Y-84578269D01*
X149113771Y-84578269D02*
X149142799Y-84462155D01*
X149142799Y-84462155D02*
X149200857Y-84404098D01*
X149200857Y-84404098D02*
X149258914Y-84375069D01*
D15*
%TO.C,J1*%
X143640000Y-102390000D02*
X143640000Y-103640000D01*
X143940000Y-102690000D02*
X143940000Y-107410000D01*
X143940000Y-104000000D02*
X144550000Y-104000000D01*
X143940000Y-105300000D02*
X144550000Y-105300000D01*
X143940000Y-107410000D02*
X150060000Y-107410000D01*
X144550000Y-103300000D02*
X144550000Y-106800000D01*
X144550000Y-106800000D02*
X149450000Y-106800000D01*
X144890000Y-102390000D02*
X143640000Y-102390000D01*
X145400000Y-102490000D02*
X145400000Y-102690000D01*
X145700000Y-102490000D02*
X145400000Y-102490000D01*
X145700000Y-102590000D02*
X145400000Y-102590000D01*
X145700000Y-102690000D02*
X145700000Y-102490000D01*
X146500000Y-102690000D02*
X146500000Y-103300000D01*
X146500000Y-103300000D02*
X144550000Y-103300000D01*
X146900000Y-106300000D02*
X147100000Y-106300000D01*
X146900000Y-106800000D02*
X146900000Y-106300000D01*
X147000000Y-106800000D02*
X147000000Y-106300000D01*
X147100000Y-106300000D02*
X147100000Y-106800000D01*
X147500000Y-103300000D02*
X147500000Y-102690000D01*
X149450000Y-103300000D02*
X147500000Y-103300000D01*
X149450000Y-106800000D02*
X149450000Y-103300000D01*
X150060000Y-102690000D02*
X143940000Y-102690000D01*
X150060000Y-104000000D02*
X149450000Y-104000000D01*
X150060000Y-105300000D02*
X149450000Y-105300000D01*
X150060000Y-107410000D02*
X150060000Y-102690000D01*
D16*
%TO.C,U1*%
X137408000Y-75174000D02*
X137408000Y-95501620D01*
X137408000Y-95501620D02*
X155205780Y-95501620D01*
X138078560Y-74503440D02*
X137408000Y-75174000D01*
D17*
X141091000Y-74419620D02*
X142869000Y-74419620D01*
X141091000Y-77086620D02*
X141091000Y-74419620D01*
X141091000Y-77086620D02*
X142869000Y-77086620D01*
X141091000Y-78483620D02*
X142869000Y-78483620D01*
X141091000Y-81153160D02*
X141091000Y-78483620D01*
X141091000Y-81153160D02*
X142869000Y-81153160D01*
D16*
X141802200Y-80431800D02*
X141802200Y-73078500D01*
X141807280Y-73078500D02*
X150801420Y-73078500D01*
D17*
X142869000Y-77086620D02*
X142869000Y-74419620D01*
X142869000Y-81153160D02*
X142869000Y-78483620D01*
X143758000Y-75181620D02*
X148838000Y-75181620D01*
X143758000Y-77721620D02*
X143758000Y-75181620D01*
X143758000Y-77721620D02*
X148838000Y-77721620D01*
X143758000Y-92326620D02*
X149473000Y-92326620D01*
X143758000Y-94866620D02*
X143758000Y-92326620D01*
X143758000Y-94866620D02*
X149473000Y-94866620D01*
X148838000Y-77721620D02*
X148838000Y-75181620D01*
X149473000Y-94866620D02*
X149473000Y-92326620D01*
X149727000Y-74419620D02*
X151505000Y-74419620D01*
X149727000Y-77086620D02*
X149727000Y-74419620D01*
X149727000Y-77086620D02*
X151505000Y-77086620D01*
X149727000Y-78483620D02*
X151505000Y-78483620D01*
X149727000Y-81153160D02*
X149727000Y-78483620D01*
X149727000Y-81153160D02*
X151505000Y-81153160D01*
D16*
X150801420Y-73078500D02*
X150801420Y-80431800D01*
X150801420Y-80431800D02*
X141802200Y-80431800D01*
D17*
X151505000Y-77086620D02*
X151505000Y-74419620D01*
X151505000Y-81153160D02*
X151505000Y-78483620D01*
D16*
X155205780Y-74503440D02*
X138078560Y-74503440D01*
X155205780Y-95501620D02*
X155205780Y-74503440D01*
D18*
X136646000Y-77340620D02*
G75*
G02*
X136392000Y-77340620I-127000J0D01*
G01*
X136392000Y-77340620D02*
G75*
G02*
X136646000Y-77340620I127000J0D01*
G01*
%TD*%
M02*
