%TF.GenerationSoftware,KiCad,Pcbnew,8.0.1*%
%TF.CreationDate,2024-04-20T15:27:41+02:00*%
%TF.ProjectId,systek_jumpsensor,73797374-656b-45f6-9a75-6d7073656e73,rev?*%
%TF.SameCoordinates,Original*%
%TF.FileFunction,Drillmap*%
%TF.FilePolarity,Positive*%
%FSLAX45Y45*%
G04 Gerber Fmt 4.5, Leading zero omitted, Abs format (unit mm)*
G04 Created by KiCad (PCBNEW 8.0.1) date 2024-04-20 15:27:41*
%MOMM*%
%LPD*%
G01*
G04 APERTURE LIST*
%ADD10C,0.050000*%
%ADD11C,0.200000*%
%ADD12C,0.100000*%
G04 APERTURE END LIST*
D10*
X13650000Y-7500000D02*
X15600000Y-7500000D01*
X15600000Y-13500000D01*
X13650000Y-13500000D01*
X13650000Y-7500000D01*
D11*
D12*
X14562500Y-10412500D02*
X14637500Y-10487500D01*
X14637500Y-10412500D02*
X14562500Y-10487500D01*
X14762500Y-10412500D02*
X14837500Y-10487500D01*
X14837500Y-10412500D02*
X14762500Y-10487500D01*
X13862212Y-7738380D02*
G75*
G02*
X13786012Y-7738380I-38100J0D01*
G01*
X13786012Y-7738380D02*
G75*
G02*
X13862212Y-7738380I38100J0D01*
G01*
X13862212Y-7992380D02*
G75*
G02*
X13786012Y-7992380I-38100J0D01*
G01*
X13786012Y-7992380D02*
G75*
G02*
X13862212Y-7992380I38100J0D01*
G01*
X13862212Y-8246380D02*
G75*
G02*
X13786012Y-8246380I-38100J0D01*
G01*
X13786012Y-8246380D02*
G75*
G02*
X13862212Y-8246380I38100J0D01*
G01*
X13862212Y-8500380D02*
G75*
G02*
X13786012Y-8500380I-38100J0D01*
G01*
X13786012Y-8500380D02*
G75*
G02*
X13862212Y-8500380I38100J0D01*
G01*
X13862212Y-8754380D02*
G75*
G02*
X13786012Y-8754380I-38100J0D01*
G01*
X13786012Y-8754380D02*
G75*
G02*
X13862212Y-8754380I38100J0D01*
G01*
X13862212Y-9008380D02*
G75*
G02*
X13786012Y-9008380I-38100J0D01*
G01*
X13786012Y-9008380D02*
G75*
G02*
X13862212Y-9008380I38100J0D01*
G01*
X13862212Y-9262380D02*
G75*
G02*
X13786012Y-9262380I-38100J0D01*
G01*
X13786012Y-9262380D02*
G75*
G02*
X13862212Y-9262380I38100J0D01*
G01*
X14228700Y-11392000D02*
G75*
G02*
X14152500Y-11392000I-38100J0D01*
G01*
X14152500Y-11392000D02*
G75*
G02*
X14228700Y-11392000I38100J0D01*
G01*
X14228700Y-11646000D02*
G75*
G02*
X14152500Y-11646000I-38100J0D01*
G01*
X14152500Y-11646000D02*
G75*
G02*
X14228700Y-11646000I38100J0D01*
G01*
X14228700Y-11900000D02*
G75*
G02*
X14152500Y-11900000I-38100J0D01*
G01*
X14152500Y-11900000D02*
G75*
G02*
X14228700Y-11900000I38100J0D01*
G01*
X14228700Y-12154000D02*
G75*
G02*
X14152500Y-12154000I-38100J0D01*
G01*
X14152500Y-12154000D02*
G75*
G02*
X14228700Y-12154000I38100J0D01*
G01*
X14228700Y-12408000D02*
G75*
G02*
X14152500Y-12408000I-38100J0D01*
G01*
X14152500Y-12408000D02*
G75*
G02*
X14228700Y-12408000I38100J0D01*
G01*
X15244700Y-11138000D02*
G75*
G02*
X15168500Y-11138000I-38100J0D01*
G01*
X15168500Y-11138000D02*
G75*
G02*
X15244700Y-11138000I38100J0D01*
G01*
X15244700Y-11392000D02*
G75*
G02*
X15168500Y-11392000I-38100J0D01*
G01*
X15168500Y-11392000D02*
G75*
G02*
X15244700Y-11392000I38100J0D01*
G01*
X15244700Y-11646000D02*
G75*
G02*
X15168500Y-11646000I-38100J0D01*
G01*
X15168500Y-11646000D02*
G75*
G02*
X15244700Y-11646000I38100J0D01*
G01*
X15244700Y-11900000D02*
G75*
G02*
X15168500Y-11900000I-38100J0D01*
G01*
X15168500Y-11900000D02*
G75*
G02*
X15244700Y-11900000I38100J0D01*
G01*
X15244700Y-12154000D02*
G75*
G02*
X15168500Y-12154000I-38100J0D01*
G01*
X15168500Y-12154000D02*
G75*
G02*
X15244700Y-12154000I38100J0D01*
G01*
X15244700Y-12408000D02*
G75*
G02*
X15168500Y-12408000I-38100J0D01*
G01*
X15168500Y-12408000D02*
G75*
G02*
X15244700Y-12408000I38100J0D01*
G01*
X15244700Y-12662000D02*
G75*
G02*
X15168500Y-12662000I-38100J0D01*
G01*
X15168500Y-12662000D02*
G75*
G02*
X15244700Y-12662000I38100J0D01*
G01*
X15478668Y-7738380D02*
G75*
G02*
X15402468Y-7738380I-38100J0D01*
G01*
X15402468Y-7738380D02*
G75*
G02*
X15478668Y-7738380I38100J0D01*
G01*
X15478668Y-7992380D02*
G75*
G02*
X15402468Y-7992380I-38100J0D01*
G01*
X15402468Y-7992380D02*
G75*
G02*
X15478668Y-7992380I38100J0D01*
G01*
X15478668Y-8246380D02*
G75*
G02*
X15402468Y-8246380I-38100J0D01*
G01*
X15402468Y-8246380D02*
G75*
G02*
X15478668Y-8246380I38100J0D01*
G01*
X15478668Y-8500380D02*
G75*
G02*
X15402468Y-8500380I-38100J0D01*
G01*
X15402468Y-8500380D02*
G75*
G02*
X15478668Y-8500380I38100J0D01*
G01*
X15478668Y-8754380D02*
G75*
G02*
X15402468Y-8754380I-38100J0D01*
G01*
X15402468Y-8754380D02*
G75*
G02*
X15478668Y-8754380I38100J0D01*
G01*
X15478668Y-9008380D02*
G75*
G02*
X15402468Y-9008380I-38100J0D01*
G01*
X15402468Y-9008380D02*
G75*
G02*
X15478668Y-9008380I38100J0D01*
G01*
X15478668Y-9262380D02*
G75*
G02*
X15402468Y-9262380I-38100J0D01*
G01*
X15402468Y-9262380D02*
G75*
G02*
X15478668Y-9262380I38100J0D01*
G01*
D11*
X13908277Y-13813984D02*
X13908277Y-13613984D01*
X13908277Y-13613984D02*
X13955896Y-13613984D01*
X13955896Y-13613984D02*
X13984467Y-13623508D01*
X13984467Y-13623508D02*
X14003515Y-13642555D01*
X14003515Y-13642555D02*
X14013039Y-13661603D01*
X14013039Y-13661603D02*
X14022562Y-13699698D01*
X14022562Y-13699698D02*
X14022562Y-13728269D01*
X14022562Y-13728269D02*
X14013039Y-13766365D01*
X14013039Y-13766365D02*
X14003515Y-13785412D01*
X14003515Y-13785412D02*
X13984467Y-13804460D01*
X13984467Y-13804460D02*
X13955896Y-13813984D01*
X13955896Y-13813984D02*
X13908277Y-13813984D01*
X14108277Y-13813984D02*
X14108277Y-13680650D01*
X14108277Y-13718746D02*
X14117801Y-13699698D01*
X14117801Y-13699698D02*
X14127324Y-13690174D01*
X14127324Y-13690174D02*
X14146372Y-13680650D01*
X14146372Y-13680650D02*
X14165420Y-13680650D01*
X14232086Y-13813984D02*
X14232086Y-13680650D01*
X14232086Y-13613984D02*
X14222562Y-13623508D01*
X14222562Y-13623508D02*
X14232086Y-13633031D01*
X14232086Y-13633031D02*
X14241610Y-13623508D01*
X14241610Y-13623508D02*
X14232086Y-13613984D01*
X14232086Y-13613984D02*
X14232086Y-13633031D01*
X14355896Y-13813984D02*
X14336848Y-13804460D01*
X14336848Y-13804460D02*
X14327324Y-13785412D01*
X14327324Y-13785412D02*
X14327324Y-13613984D01*
X14460658Y-13813984D02*
X14441610Y-13804460D01*
X14441610Y-13804460D02*
X14432086Y-13785412D01*
X14432086Y-13785412D02*
X14432086Y-13613984D01*
X14689229Y-13813984D02*
X14689229Y-13613984D01*
X14689229Y-13613984D02*
X14755896Y-13756841D01*
X14755896Y-13756841D02*
X14822562Y-13613984D01*
X14822562Y-13613984D02*
X14822562Y-13813984D01*
X15003515Y-13813984D02*
X15003515Y-13709222D01*
X15003515Y-13709222D02*
X14993991Y-13690174D01*
X14993991Y-13690174D02*
X14974943Y-13680650D01*
X14974943Y-13680650D02*
X14936848Y-13680650D01*
X14936848Y-13680650D02*
X14917801Y-13690174D01*
X15003515Y-13804460D02*
X14984467Y-13813984D01*
X14984467Y-13813984D02*
X14936848Y-13813984D01*
X14936848Y-13813984D02*
X14917801Y-13804460D01*
X14917801Y-13804460D02*
X14908277Y-13785412D01*
X14908277Y-13785412D02*
X14908277Y-13766365D01*
X14908277Y-13766365D02*
X14917801Y-13747317D01*
X14917801Y-13747317D02*
X14936848Y-13737793D01*
X14936848Y-13737793D02*
X14984467Y-13737793D01*
X14984467Y-13737793D02*
X15003515Y-13728269D01*
X15098753Y-13680650D02*
X15098753Y-13880650D01*
X15098753Y-13690174D02*
X15117801Y-13680650D01*
X15117801Y-13680650D02*
X15155896Y-13680650D01*
X15155896Y-13680650D02*
X15174943Y-13690174D01*
X15174943Y-13690174D02*
X15184467Y-13699698D01*
X15184467Y-13699698D02*
X15193991Y-13718746D01*
X15193991Y-13718746D02*
X15193991Y-13775888D01*
X15193991Y-13775888D02*
X15184467Y-13794936D01*
X15184467Y-13794936D02*
X15174943Y-13804460D01*
X15174943Y-13804460D02*
X15155896Y-13813984D01*
X15155896Y-13813984D02*
X15117801Y-13813984D01*
X15117801Y-13813984D02*
X15098753Y-13804460D01*
X15279705Y-13794936D02*
X15289229Y-13804460D01*
X15289229Y-13804460D02*
X15279705Y-13813984D01*
X15279705Y-13813984D02*
X15270182Y-13804460D01*
X15270182Y-13804460D02*
X15279705Y-13794936D01*
X15279705Y-13794936D02*
X15279705Y-13813984D01*
X15279705Y-13690174D02*
X15289229Y-13699698D01*
X15289229Y-13699698D02*
X15279705Y-13709222D01*
X15279705Y-13709222D02*
X15270182Y-13699698D01*
X15270182Y-13699698D02*
X15279705Y-13690174D01*
X15279705Y-13690174D02*
X15279705Y-13709222D01*
D12*
X13572500Y-14105000D02*
X13647500Y-14180000D01*
X13647500Y-14105000D02*
X13572500Y-14180000D01*
D11*
X13946372Y-14033984D02*
X13965420Y-14033984D01*
X13965420Y-14033984D02*
X13984467Y-14043508D01*
X13984467Y-14043508D02*
X13993991Y-14053031D01*
X13993991Y-14053031D02*
X14003515Y-14072079D01*
X14003515Y-14072079D02*
X14013039Y-14110174D01*
X14013039Y-14110174D02*
X14013039Y-14157793D01*
X14013039Y-14157793D02*
X14003515Y-14195888D01*
X14003515Y-14195888D02*
X13993991Y-14214936D01*
X13993991Y-14214936D02*
X13984467Y-14224460D01*
X13984467Y-14224460D02*
X13965420Y-14233984D01*
X13965420Y-14233984D02*
X13946372Y-14233984D01*
X13946372Y-14233984D02*
X13927324Y-14224460D01*
X13927324Y-14224460D02*
X13917801Y-14214936D01*
X13917801Y-14214936D02*
X13908277Y-14195888D01*
X13908277Y-14195888D02*
X13898753Y-14157793D01*
X13898753Y-14157793D02*
X13898753Y-14110174D01*
X13898753Y-14110174D02*
X13908277Y-14072079D01*
X13908277Y-14072079D02*
X13917801Y-14053031D01*
X13917801Y-14053031D02*
X13927324Y-14043508D01*
X13927324Y-14043508D02*
X13946372Y-14033984D01*
X14098753Y-14214936D02*
X14108277Y-14224460D01*
X14108277Y-14224460D02*
X14098753Y-14233984D01*
X14098753Y-14233984D02*
X14089229Y-14224460D01*
X14089229Y-14224460D02*
X14098753Y-14214936D01*
X14098753Y-14214936D02*
X14098753Y-14233984D01*
X14174943Y-14033984D02*
X14308277Y-14033984D01*
X14308277Y-14033984D02*
X14222562Y-14233984D01*
X14479705Y-14033984D02*
X14384467Y-14033984D01*
X14384467Y-14033984D02*
X14374943Y-14129222D01*
X14374943Y-14129222D02*
X14384467Y-14119698D01*
X14384467Y-14119698D02*
X14403515Y-14110174D01*
X14403515Y-14110174D02*
X14451134Y-14110174D01*
X14451134Y-14110174D02*
X14470182Y-14119698D01*
X14470182Y-14119698D02*
X14479705Y-14129222D01*
X14479705Y-14129222D02*
X14489229Y-14148269D01*
X14489229Y-14148269D02*
X14489229Y-14195888D01*
X14489229Y-14195888D02*
X14479705Y-14214936D01*
X14479705Y-14214936D02*
X14470182Y-14224460D01*
X14470182Y-14224460D02*
X14451134Y-14233984D01*
X14451134Y-14233984D02*
X14403515Y-14233984D01*
X14403515Y-14233984D02*
X14384467Y-14224460D01*
X14384467Y-14224460D02*
X14374943Y-14214936D01*
X14613039Y-14033984D02*
X14632086Y-14033984D01*
X14632086Y-14033984D02*
X14651134Y-14043508D01*
X14651134Y-14043508D02*
X14660658Y-14053031D01*
X14660658Y-14053031D02*
X14670182Y-14072079D01*
X14670182Y-14072079D02*
X14679705Y-14110174D01*
X14679705Y-14110174D02*
X14679705Y-14157793D01*
X14679705Y-14157793D02*
X14670182Y-14195888D01*
X14670182Y-14195888D02*
X14660658Y-14214936D01*
X14660658Y-14214936D02*
X14651134Y-14224460D01*
X14651134Y-14224460D02*
X14632086Y-14233984D01*
X14632086Y-14233984D02*
X14613039Y-14233984D01*
X14613039Y-14233984D02*
X14593991Y-14224460D01*
X14593991Y-14224460D02*
X14584467Y-14214936D01*
X14584467Y-14214936D02*
X14574943Y-14195888D01*
X14574943Y-14195888D02*
X14565420Y-14157793D01*
X14565420Y-14157793D02*
X14565420Y-14110174D01*
X14565420Y-14110174D02*
X14574943Y-14072079D01*
X14574943Y-14072079D02*
X14584467Y-14053031D01*
X14584467Y-14053031D02*
X14593991Y-14043508D01*
X14593991Y-14043508D02*
X14613039Y-14033984D01*
X14765420Y-14233984D02*
X14765420Y-14100650D01*
X14765420Y-14119698D02*
X14774943Y-14110174D01*
X14774943Y-14110174D02*
X14793991Y-14100650D01*
X14793991Y-14100650D02*
X14822563Y-14100650D01*
X14822563Y-14100650D02*
X14841610Y-14110174D01*
X14841610Y-14110174D02*
X14851134Y-14129222D01*
X14851134Y-14129222D02*
X14851134Y-14233984D01*
X14851134Y-14129222D02*
X14860658Y-14110174D01*
X14860658Y-14110174D02*
X14879705Y-14100650D01*
X14879705Y-14100650D02*
X14908277Y-14100650D01*
X14908277Y-14100650D02*
X14927324Y-14110174D01*
X14927324Y-14110174D02*
X14936848Y-14129222D01*
X14936848Y-14129222D02*
X14936848Y-14233984D01*
X15032086Y-14233984D02*
X15032086Y-14100650D01*
X15032086Y-14119698D02*
X15041610Y-14110174D01*
X15041610Y-14110174D02*
X15060658Y-14100650D01*
X15060658Y-14100650D02*
X15089229Y-14100650D01*
X15089229Y-14100650D02*
X15108277Y-14110174D01*
X15108277Y-14110174D02*
X15117801Y-14129222D01*
X15117801Y-14129222D02*
X15117801Y-14233984D01*
X15117801Y-14129222D02*
X15127324Y-14110174D01*
X15127324Y-14110174D02*
X15146372Y-14100650D01*
X15146372Y-14100650D02*
X15174943Y-14100650D01*
X15174943Y-14100650D02*
X15193991Y-14110174D01*
X15193991Y-14110174D02*
X15203515Y-14129222D01*
X15203515Y-14129222D02*
X15203515Y-14233984D01*
X15593991Y-14024460D02*
X15422563Y-14281603D01*
X15851134Y-14033984D02*
X15870182Y-14033984D01*
X15870182Y-14033984D02*
X15889229Y-14043508D01*
X15889229Y-14043508D02*
X15898753Y-14053031D01*
X15898753Y-14053031D02*
X15908277Y-14072079D01*
X15908277Y-14072079D02*
X15917801Y-14110174D01*
X15917801Y-14110174D02*
X15917801Y-14157793D01*
X15917801Y-14157793D02*
X15908277Y-14195888D01*
X15908277Y-14195888D02*
X15898753Y-14214936D01*
X15898753Y-14214936D02*
X15889229Y-14224460D01*
X15889229Y-14224460D02*
X15870182Y-14233984D01*
X15870182Y-14233984D02*
X15851134Y-14233984D01*
X15851134Y-14233984D02*
X15832086Y-14224460D01*
X15832086Y-14224460D02*
X15822563Y-14214936D01*
X15822563Y-14214936D02*
X15813039Y-14195888D01*
X15813039Y-14195888D02*
X15803515Y-14157793D01*
X15803515Y-14157793D02*
X15803515Y-14110174D01*
X15803515Y-14110174D02*
X15813039Y-14072079D01*
X15813039Y-14072079D02*
X15822563Y-14053031D01*
X15822563Y-14053031D02*
X15832086Y-14043508D01*
X15832086Y-14043508D02*
X15851134Y-14033984D01*
X16003515Y-14214936D02*
X16013039Y-14224460D01*
X16013039Y-14224460D02*
X16003515Y-14233984D01*
X16003515Y-14233984D02*
X15993991Y-14224460D01*
X15993991Y-14224460D02*
X16003515Y-14214936D01*
X16003515Y-14214936D02*
X16003515Y-14233984D01*
X16136848Y-14033984D02*
X16155896Y-14033984D01*
X16155896Y-14033984D02*
X16174944Y-14043508D01*
X16174944Y-14043508D02*
X16184467Y-14053031D01*
X16184467Y-14053031D02*
X16193991Y-14072079D01*
X16193991Y-14072079D02*
X16203515Y-14110174D01*
X16203515Y-14110174D02*
X16203515Y-14157793D01*
X16203515Y-14157793D02*
X16193991Y-14195888D01*
X16193991Y-14195888D02*
X16184467Y-14214936D01*
X16184467Y-14214936D02*
X16174944Y-14224460D01*
X16174944Y-14224460D02*
X16155896Y-14233984D01*
X16155896Y-14233984D02*
X16136848Y-14233984D01*
X16136848Y-14233984D02*
X16117801Y-14224460D01*
X16117801Y-14224460D02*
X16108277Y-14214936D01*
X16108277Y-14214936D02*
X16098753Y-14195888D01*
X16098753Y-14195888D02*
X16089229Y-14157793D01*
X16089229Y-14157793D02*
X16089229Y-14110174D01*
X16089229Y-14110174D02*
X16098753Y-14072079D01*
X16098753Y-14072079D02*
X16108277Y-14053031D01*
X16108277Y-14053031D02*
X16117801Y-14043508D01*
X16117801Y-14043508D02*
X16136848Y-14033984D01*
X16279706Y-14053031D02*
X16289229Y-14043508D01*
X16289229Y-14043508D02*
X16308277Y-14033984D01*
X16308277Y-14033984D02*
X16355896Y-14033984D01*
X16355896Y-14033984D02*
X16374944Y-14043508D01*
X16374944Y-14043508D02*
X16384467Y-14053031D01*
X16384467Y-14053031D02*
X16393991Y-14072079D01*
X16393991Y-14072079D02*
X16393991Y-14091127D01*
X16393991Y-14091127D02*
X16384467Y-14119698D01*
X16384467Y-14119698D02*
X16270182Y-14233984D01*
X16270182Y-14233984D02*
X16393991Y-14233984D01*
X16489229Y-14233984D02*
X16527325Y-14233984D01*
X16527325Y-14233984D02*
X16546372Y-14224460D01*
X16546372Y-14224460D02*
X16555896Y-14214936D01*
X16555896Y-14214936D02*
X16574944Y-14186365D01*
X16574944Y-14186365D02*
X16584467Y-14148269D01*
X16584467Y-14148269D02*
X16584467Y-14072079D01*
X16584467Y-14072079D02*
X16574944Y-14053031D01*
X16574944Y-14053031D02*
X16565420Y-14043508D01*
X16565420Y-14043508D02*
X16546372Y-14033984D01*
X16546372Y-14033984D02*
X16508277Y-14033984D01*
X16508277Y-14033984D02*
X16489229Y-14043508D01*
X16489229Y-14043508D02*
X16479706Y-14053031D01*
X16479706Y-14053031D02*
X16470182Y-14072079D01*
X16470182Y-14072079D02*
X16470182Y-14119698D01*
X16470182Y-14119698D02*
X16479706Y-14138746D01*
X16479706Y-14138746D02*
X16489229Y-14148269D01*
X16489229Y-14148269D02*
X16508277Y-14157793D01*
X16508277Y-14157793D02*
X16546372Y-14157793D01*
X16546372Y-14157793D02*
X16565420Y-14148269D01*
X16565420Y-14148269D02*
X16574944Y-14138746D01*
X16574944Y-14138746D02*
X16584467Y-14119698D01*
X16765420Y-14033984D02*
X16670182Y-14033984D01*
X16670182Y-14033984D02*
X16660658Y-14129222D01*
X16660658Y-14129222D02*
X16670182Y-14119698D01*
X16670182Y-14119698D02*
X16689229Y-14110174D01*
X16689229Y-14110174D02*
X16736848Y-14110174D01*
X16736848Y-14110174D02*
X16755896Y-14119698D01*
X16755896Y-14119698D02*
X16765420Y-14129222D01*
X16765420Y-14129222D02*
X16774944Y-14148269D01*
X16774944Y-14148269D02*
X16774944Y-14195888D01*
X16774944Y-14195888D02*
X16765420Y-14214936D01*
X16765420Y-14214936D02*
X16755896Y-14224460D01*
X16755896Y-14224460D02*
X16736848Y-14233984D01*
X16736848Y-14233984D02*
X16689229Y-14233984D01*
X16689229Y-14233984D02*
X16670182Y-14224460D01*
X16670182Y-14224460D02*
X16660658Y-14214936D01*
X16851134Y-14033984D02*
X16851134Y-14072079D01*
X16927325Y-14033984D02*
X16927325Y-14072079D01*
X17222563Y-14310174D02*
X17213039Y-14300650D01*
X17213039Y-14300650D02*
X17193991Y-14272079D01*
X17193991Y-14272079D02*
X17184468Y-14253031D01*
X17184468Y-14253031D02*
X17174944Y-14224460D01*
X17174944Y-14224460D02*
X17165420Y-14176841D01*
X17165420Y-14176841D02*
X17165420Y-14138746D01*
X17165420Y-14138746D02*
X17174944Y-14091127D01*
X17174944Y-14091127D02*
X17184468Y-14062555D01*
X17184468Y-14062555D02*
X17193991Y-14043508D01*
X17193991Y-14043508D02*
X17213039Y-14014936D01*
X17213039Y-14014936D02*
X17222563Y-14005412D01*
X17289230Y-14053031D02*
X17298753Y-14043508D01*
X17298753Y-14043508D02*
X17317801Y-14033984D01*
X17317801Y-14033984D02*
X17365420Y-14033984D01*
X17365420Y-14033984D02*
X17384468Y-14043508D01*
X17384468Y-14043508D02*
X17393991Y-14053031D01*
X17393991Y-14053031D02*
X17403515Y-14072079D01*
X17403515Y-14072079D02*
X17403515Y-14091127D01*
X17403515Y-14091127D02*
X17393991Y-14119698D01*
X17393991Y-14119698D02*
X17279706Y-14233984D01*
X17279706Y-14233984D02*
X17403515Y-14233984D01*
X17641611Y-14233984D02*
X17641611Y-14033984D01*
X17727325Y-14233984D02*
X17727325Y-14129222D01*
X17727325Y-14129222D02*
X17717801Y-14110174D01*
X17717801Y-14110174D02*
X17698753Y-14100650D01*
X17698753Y-14100650D02*
X17670182Y-14100650D01*
X17670182Y-14100650D02*
X17651134Y-14110174D01*
X17651134Y-14110174D02*
X17641611Y-14119698D01*
X17851134Y-14233984D02*
X17832087Y-14224460D01*
X17832087Y-14224460D02*
X17822563Y-14214936D01*
X17822563Y-14214936D02*
X17813039Y-14195888D01*
X17813039Y-14195888D02*
X17813039Y-14138746D01*
X17813039Y-14138746D02*
X17822563Y-14119698D01*
X17822563Y-14119698D02*
X17832087Y-14110174D01*
X17832087Y-14110174D02*
X17851134Y-14100650D01*
X17851134Y-14100650D02*
X17879706Y-14100650D01*
X17879706Y-14100650D02*
X17898753Y-14110174D01*
X17898753Y-14110174D02*
X17908277Y-14119698D01*
X17908277Y-14119698D02*
X17917801Y-14138746D01*
X17917801Y-14138746D02*
X17917801Y-14195888D01*
X17917801Y-14195888D02*
X17908277Y-14214936D01*
X17908277Y-14214936D02*
X17898753Y-14224460D01*
X17898753Y-14224460D02*
X17879706Y-14233984D01*
X17879706Y-14233984D02*
X17851134Y-14233984D01*
X18032087Y-14233984D02*
X18013039Y-14224460D01*
X18013039Y-14224460D02*
X18003515Y-14205412D01*
X18003515Y-14205412D02*
X18003515Y-14033984D01*
X18184468Y-14224460D02*
X18165420Y-14233984D01*
X18165420Y-14233984D02*
X18127325Y-14233984D01*
X18127325Y-14233984D02*
X18108277Y-14224460D01*
X18108277Y-14224460D02*
X18098753Y-14205412D01*
X18098753Y-14205412D02*
X18098753Y-14129222D01*
X18098753Y-14129222D02*
X18108277Y-14110174D01*
X18108277Y-14110174D02*
X18127325Y-14100650D01*
X18127325Y-14100650D02*
X18165420Y-14100650D01*
X18165420Y-14100650D02*
X18184468Y-14110174D01*
X18184468Y-14110174D02*
X18193992Y-14129222D01*
X18193992Y-14129222D02*
X18193992Y-14148269D01*
X18193992Y-14148269D02*
X18098753Y-14167317D01*
X18270182Y-14224460D02*
X18289230Y-14233984D01*
X18289230Y-14233984D02*
X18327325Y-14233984D01*
X18327325Y-14233984D02*
X18346373Y-14224460D01*
X18346373Y-14224460D02*
X18355896Y-14205412D01*
X18355896Y-14205412D02*
X18355896Y-14195888D01*
X18355896Y-14195888D02*
X18346373Y-14176841D01*
X18346373Y-14176841D02*
X18327325Y-14167317D01*
X18327325Y-14167317D02*
X18298753Y-14167317D01*
X18298753Y-14167317D02*
X18279706Y-14157793D01*
X18279706Y-14157793D02*
X18270182Y-14138746D01*
X18270182Y-14138746D02*
X18270182Y-14129222D01*
X18270182Y-14129222D02*
X18279706Y-14110174D01*
X18279706Y-14110174D02*
X18298753Y-14100650D01*
X18298753Y-14100650D02*
X18327325Y-14100650D01*
X18327325Y-14100650D02*
X18346373Y-14110174D01*
X18422563Y-14310174D02*
X18432087Y-14300650D01*
X18432087Y-14300650D02*
X18451134Y-14272079D01*
X18451134Y-14272079D02*
X18460658Y-14253031D01*
X18460658Y-14253031D02*
X18470182Y-14224460D01*
X18470182Y-14224460D02*
X18479706Y-14176841D01*
X18479706Y-14176841D02*
X18479706Y-14138746D01*
X18479706Y-14138746D02*
X18470182Y-14091127D01*
X18470182Y-14091127D02*
X18460658Y-14062555D01*
X18460658Y-14062555D02*
X18451134Y-14043508D01*
X18451134Y-14043508D02*
X18432087Y-14014936D01*
X18432087Y-14014936D02*
X18422563Y-14005412D01*
D12*
X13647500Y-14406500D02*
G75*
G02*
X13571300Y-14406500I-38100J0D01*
G01*
X13571300Y-14406500D02*
G75*
G02*
X13647500Y-14406500I38100J0D01*
G01*
D11*
X13946372Y-14297984D02*
X13965420Y-14297984D01*
X13965420Y-14297984D02*
X13984467Y-14307508D01*
X13984467Y-14307508D02*
X13993991Y-14317031D01*
X13993991Y-14317031D02*
X14003515Y-14336079D01*
X14003515Y-14336079D02*
X14013039Y-14374174D01*
X14013039Y-14374174D02*
X14013039Y-14421793D01*
X14013039Y-14421793D02*
X14003515Y-14459888D01*
X14003515Y-14459888D02*
X13993991Y-14478936D01*
X13993991Y-14478936D02*
X13984467Y-14488460D01*
X13984467Y-14488460D02*
X13965420Y-14497984D01*
X13965420Y-14497984D02*
X13946372Y-14497984D01*
X13946372Y-14497984D02*
X13927324Y-14488460D01*
X13927324Y-14488460D02*
X13917801Y-14478936D01*
X13917801Y-14478936D02*
X13908277Y-14459888D01*
X13908277Y-14459888D02*
X13898753Y-14421793D01*
X13898753Y-14421793D02*
X13898753Y-14374174D01*
X13898753Y-14374174D02*
X13908277Y-14336079D01*
X13908277Y-14336079D02*
X13917801Y-14317031D01*
X13917801Y-14317031D02*
X13927324Y-14307508D01*
X13927324Y-14307508D02*
X13946372Y-14297984D01*
X14098753Y-14478936D02*
X14108277Y-14488460D01*
X14108277Y-14488460D02*
X14098753Y-14497984D01*
X14098753Y-14497984D02*
X14089229Y-14488460D01*
X14089229Y-14488460D02*
X14098753Y-14478936D01*
X14098753Y-14478936D02*
X14098753Y-14497984D01*
X14174943Y-14297984D02*
X14308277Y-14297984D01*
X14308277Y-14297984D02*
X14222562Y-14497984D01*
X14470182Y-14297984D02*
X14432086Y-14297984D01*
X14432086Y-14297984D02*
X14413039Y-14307508D01*
X14413039Y-14307508D02*
X14403515Y-14317031D01*
X14403515Y-14317031D02*
X14384467Y-14345603D01*
X14384467Y-14345603D02*
X14374943Y-14383698D01*
X14374943Y-14383698D02*
X14374943Y-14459888D01*
X14374943Y-14459888D02*
X14384467Y-14478936D01*
X14384467Y-14478936D02*
X14393991Y-14488460D01*
X14393991Y-14488460D02*
X14413039Y-14497984D01*
X14413039Y-14497984D02*
X14451134Y-14497984D01*
X14451134Y-14497984D02*
X14470182Y-14488460D01*
X14470182Y-14488460D02*
X14479705Y-14478936D01*
X14479705Y-14478936D02*
X14489229Y-14459888D01*
X14489229Y-14459888D02*
X14489229Y-14412269D01*
X14489229Y-14412269D02*
X14479705Y-14393222D01*
X14479705Y-14393222D02*
X14470182Y-14383698D01*
X14470182Y-14383698D02*
X14451134Y-14374174D01*
X14451134Y-14374174D02*
X14413039Y-14374174D01*
X14413039Y-14374174D02*
X14393991Y-14383698D01*
X14393991Y-14383698D02*
X14384467Y-14393222D01*
X14384467Y-14393222D02*
X14374943Y-14412269D01*
X14565420Y-14317031D02*
X14574943Y-14307508D01*
X14574943Y-14307508D02*
X14593991Y-14297984D01*
X14593991Y-14297984D02*
X14641610Y-14297984D01*
X14641610Y-14297984D02*
X14660658Y-14307508D01*
X14660658Y-14307508D02*
X14670182Y-14317031D01*
X14670182Y-14317031D02*
X14679705Y-14336079D01*
X14679705Y-14336079D02*
X14679705Y-14355127D01*
X14679705Y-14355127D02*
X14670182Y-14383698D01*
X14670182Y-14383698D02*
X14555896Y-14497984D01*
X14555896Y-14497984D02*
X14679705Y-14497984D01*
X14765420Y-14497984D02*
X14765420Y-14364650D01*
X14765420Y-14383698D02*
X14774943Y-14374174D01*
X14774943Y-14374174D02*
X14793991Y-14364650D01*
X14793991Y-14364650D02*
X14822563Y-14364650D01*
X14822563Y-14364650D02*
X14841610Y-14374174D01*
X14841610Y-14374174D02*
X14851134Y-14393222D01*
X14851134Y-14393222D02*
X14851134Y-14497984D01*
X14851134Y-14393222D02*
X14860658Y-14374174D01*
X14860658Y-14374174D02*
X14879705Y-14364650D01*
X14879705Y-14364650D02*
X14908277Y-14364650D01*
X14908277Y-14364650D02*
X14927324Y-14374174D01*
X14927324Y-14374174D02*
X14936848Y-14393222D01*
X14936848Y-14393222D02*
X14936848Y-14497984D01*
X15032086Y-14497984D02*
X15032086Y-14364650D01*
X15032086Y-14383698D02*
X15041610Y-14374174D01*
X15041610Y-14374174D02*
X15060658Y-14364650D01*
X15060658Y-14364650D02*
X15089229Y-14364650D01*
X15089229Y-14364650D02*
X15108277Y-14374174D01*
X15108277Y-14374174D02*
X15117801Y-14393222D01*
X15117801Y-14393222D02*
X15117801Y-14497984D01*
X15117801Y-14393222D02*
X15127324Y-14374174D01*
X15127324Y-14374174D02*
X15146372Y-14364650D01*
X15146372Y-14364650D02*
X15174943Y-14364650D01*
X15174943Y-14364650D02*
X15193991Y-14374174D01*
X15193991Y-14374174D02*
X15203515Y-14393222D01*
X15203515Y-14393222D02*
X15203515Y-14497984D01*
X15593991Y-14288460D02*
X15422563Y-14545603D01*
X15851134Y-14297984D02*
X15870182Y-14297984D01*
X15870182Y-14297984D02*
X15889229Y-14307508D01*
X15889229Y-14307508D02*
X15898753Y-14317031D01*
X15898753Y-14317031D02*
X15908277Y-14336079D01*
X15908277Y-14336079D02*
X15917801Y-14374174D01*
X15917801Y-14374174D02*
X15917801Y-14421793D01*
X15917801Y-14421793D02*
X15908277Y-14459888D01*
X15908277Y-14459888D02*
X15898753Y-14478936D01*
X15898753Y-14478936D02*
X15889229Y-14488460D01*
X15889229Y-14488460D02*
X15870182Y-14497984D01*
X15870182Y-14497984D02*
X15851134Y-14497984D01*
X15851134Y-14497984D02*
X15832086Y-14488460D01*
X15832086Y-14488460D02*
X15822563Y-14478936D01*
X15822563Y-14478936D02*
X15813039Y-14459888D01*
X15813039Y-14459888D02*
X15803515Y-14421793D01*
X15803515Y-14421793D02*
X15803515Y-14374174D01*
X15803515Y-14374174D02*
X15813039Y-14336079D01*
X15813039Y-14336079D02*
X15822563Y-14317031D01*
X15822563Y-14317031D02*
X15832086Y-14307508D01*
X15832086Y-14307508D02*
X15851134Y-14297984D01*
X16003515Y-14478936D02*
X16013039Y-14488460D01*
X16013039Y-14488460D02*
X16003515Y-14497984D01*
X16003515Y-14497984D02*
X15993991Y-14488460D01*
X15993991Y-14488460D02*
X16003515Y-14478936D01*
X16003515Y-14478936D02*
X16003515Y-14497984D01*
X16136848Y-14297984D02*
X16155896Y-14297984D01*
X16155896Y-14297984D02*
X16174944Y-14307508D01*
X16174944Y-14307508D02*
X16184467Y-14317031D01*
X16184467Y-14317031D02*
X16193991Y-14336079D01*
X16193991Y-14336079D02*
X16203515Y-14374174D01*
X16203515Y-14374174D02*
X16203515Y-14421793D01*
X16203515Y-14421793D02*
X16193991Y-14459888D01*
X16193991Y-14459888D02*
X16184467Y-14478936D01*
X16184467Y-14478936D02*
X16174944Y-14488460D01*
X16174944Y-14488460D02*
X16155896Y-14497984D01*
X16155896Y-14497984D02*
X16136848Y-14497984D01*
X16136848Y-14497984D02*
X16117801Y-14488460D01*
X16117801Y-14488460D02*
X16108277Y-14478936D01*
X16108277Y-14478936D02*
X16098753Y-14459888D01*
X16098753Y-14459888D02*
X16089229Y-14421793D01*
X16089229Y-14421793D02*
X16089229Y-14374174D01*
X16089229Y-14374174D02*
X16098753Y-14336079D01*
X16098753Y-14336079D02*
X16108277Y-14317031D01*
X16108277Y-14317031D02*
X16117801Y-14307508D01*
X16117801Y-14307508D02*
X16136848Y-14297984D01*
X16270182Y-14297984D02*
X16393991Y-14297984D01*
X16393991Y-14297984D02*
X16327325Y-14374174D01*
X16327325Y-14374174D02*
X16355896Y-14374174D01*
X16355896Y-14374174D02*
X16374944Y-14383698D01*
X16374944Y-14383698D02*
X16384467Y-14393222D01*
X16384467Y-14393222D02*
X16393991Y-14412269D01*
X16393991Y-14412269D02*
X16393991Y-14459888D01*
X16393991Y-14459888D02*
X16384467Y-14478936D01*
X16384467Y-14478936D02*
X16374944Y-14488460D01*
X16374944Y-14488460D02*
X16355896Y-14497984D01*
X16355896Y-14497984D02*
X16298753Y-14497984D01*
X16298753Y-14497984D02*
X16279706Y-14488460D01*
X16279706Y-14488460D02*
X16270182Y-14478936D01*
X16517801Y-14297984D02*
X16536848Y-14297984D01*
X16536848Y-14297984D02*
X16555896Y-14307508D01*
X16555896Y-14307508D02*
X16565420Y-14317031D01*
X16565420Y-14317031D02*
X16574944Y-14336079D01*
X16574944Y-14336079D02*
X16584467Y-14374174D01*
X16584467Y-14374174D02*
X16584467Y-14421793D01*
X16584467Y-14421793D02*
X16574944Y-14459888D01*
X16574944Y-14459888D02*
X16565420Y-14478936D01*
X16565420Y-14478936D02*
X16555896Y-14488460D01*
X16555896Y-14488460D02*
X16536848Y-14497984D01*
X16536848Y-14497984D02*
X16517801Y-14497984D01*
X16517801Y-14497984D02*
X16498753Y-14488460D01*
X16498753Y-14488460D02*
X16489229Y-14478936D01*
X16489229Y-14478936D02*
X16479706Y-14459888D01*
X16479706Y-14459888D02*
X16470182Y-14421793D01*
X16470182Y-14421793D02*
X16470182Y-14374174D01*
X16470182Y-14374174D02*
X16479706Y-14336079D01*
X16479706Y-14336079D02*
X16489229Y-14317031D01*
X16489229Y-14317031D02*
X16498753Y-14307508D01*
X16498753Y-14307508D02*
X16517801Y-14297984D01*
X16708277Y-14297984D02*
X16727325Y-14297984D01*
X16727325Y-14297984D02*
X16746372Y-14307508D01*
X16746372Y-14307508D02*
X16755896Y-14317031D01*
X16755896Y-14317031D02*
X16765420Y-14336079D01*
X16765420Y-14336079D02*
X16774944Y-14374174D01*
X16774944Y-14374174D02*
X16774944Y-14421793D01*
X16774944Y-14421793D02*
X16765420Y-14459888D01*
X16765420Y-14459888D02*
X16755896Y-14478936D01*
X16755896Y-14478936D02*
X16746372Y-14488460D01*
X16746372Y-14488460D02*
X16727325Y-14497984D01*
X16727325Y-14497984D02*
X16708277Y-14497984D01*
X16708277Y-14497984D02*
X16689229Y-14488460D01*
X16689229Y-14488460D02*
X16679706Y-14478936D01*
X16679706Y-14478936D02*
X16670182Y-14459888D01*
X16670182Y-14459888D02*
X16660658Y-14421793D01*
X16660658Y-14421793D02*
X16660658Y-14374174D01*
X16660658Y-14374174D02*
X16670182Y-14336079D01*
X16670182Y-14336079D02*
X16679706Y-14317031D01*
X16679706Y-14317031D02*
X16689229Y-14307508D01*
X16689229Y-14307508D02*
X16708277Y-14297984D01*
X16851134Y-14297984D02*
X16851134Y-14336079D01*
X16927325Y-14297984D02*
X16927325Y-14336079D01*
X17222563Y-14574174D02*
X17213039Y-14564650D01*
X17213039Y-14564650D02*
X17193991Y-14536079D01*
X17193991Y-14536079D02*
X17184468Y-14517031D01*
X17184468Y-14517031D02*
X17174944Y-14488460D01*
X17174944Y-14488460D02*
X17165420Y-14440841D01*
X17165420Y-14440841D02*
X17165420Y-14402746D01*
X17165420Y-14402746D02*
X17174944Y-14355127D01*
X17174944Y-14355127D02*
X17184468Y-14326555D01*
X17184468Y-14326555D02*
X17193991Y-14307508D01*
X17193991Y-14307508D02*
X17213039Y-14278936D01*
X17213039Y-14278936D02*
X17222563Y-14269412D01*
X17289230Y-14317031D02*
X17298753Y-14307508D01*
X17298753Y-14307508D02*
X17317801Y-14297984D01*
X17317801Y-14297984D02*
X17365420Y-14297984D01*
X17365420Y-14297984D02*
X17384468Y-14307508D01*
X17384468Y-14307508D02*
X17393991Y-14317031D01*
X17393991Y-14317031D02*
X17403515Y-14336079D01*
X17403515Y-14336079D02*
X17403515Y-14355127D01*
X17403515Y-14355127D02*
X17393991Y-14383698D01*
X17393991Y-14383698D02*
X17279706Y-14497984D01*
X17279706Y-14497984D02*
X17403515Y-14497984D01*
X17574944Y-14297984D02*
X17536849Y-14297984D01*
X17536849Y-14297984D02*
X17517801Y-14307508D01*
X17517801Y-14307508D02*
X17508277Y-14317031D01*
X17508277Y-14317031D02*
X17489230Y-14345603D01*
X17489230Y-14345603D02*
X17479706Y-14383698D01*
X17479706Y-14383698D02*
X17479706Y-14459888D01*
X17479706Y-14459888D02*
X17489230Y-14478936D01*
X17489230Y-14478936D02*
X17498753Y-14488460D01*
X17498753Y-14488460D02*
X17517801Y-14497984D01*
X17517801Y-14497984D02*
X17555896Y-14497984D01*
X17555896Y-14497984D02*
X17574944Y-14488460D01*
X17574944Y-14488460D02*
X17584468Y-14478936D01*
X17584468Y-14478936D02*
X17593991Y-14459888D01*
X17593991Y-14459888D02*
X17593991Y-14412269D01*
X17593991Y-14412269D02*
X17584468Y-14393222D01*
X17584468Y-14393222D02*
X17574944Y-14383698D01*
X17574944Y-14383698D02*
X17555896Y-14374174D01*
X17555896Y-14374174D02*
X17517801Y-14374174D01*
X17517801Y-14374174D02*
X17498753Y-14383698D01*
X17498753Y-14383698D02*
X17489230Y-14393222D01*
X17489230Y-14393222D02*
X17479706Y-14412269D01*
X17832087Y-14497984D02*
X17832087Y-14297984D01*
X17917801Y-14497984D02*
X17917801Y-14393222D01*
X17917801Y-14393222D02*
X17908277Y-14374174D01*
X17908277Y-14374174D02*
X17889230Y-14364650D01*
X17889230Y-14364650D02*
X17860658Y-14364650D01*
X17860658Y-14364650D02*
X17841611Y-14374174D01*
X17841611Y-14374174D02*
X17832087Y-14383698D01*
X18041611Y-14497984D02*
X18022563Y-14488460D01*
X18022563Y-14488460D02*
X18013039Y-14478936D01*
X18013039Y-14478936D02*
X18003515Y-14459888D01*
X18003515Y-14459888D02*
X18003515Y-14402746D01*
X18003515Y-14402746D02*
X18013039Y-14383698D01*
X18013039Y-14383698D02*
X18022563Y-14374174D01*
X18022563Y-14374174D02*
X18041611Y-14364650D01*
X18041611Y-14364650D02*
X18070182Y-14364650D01*
X18070182Y-14364650D02*
X18089230Y-14374174D01*
X18089230Y-14374174D02*
X18098753Y-14383698D01*
X18098753Y-14383698D02*
X18108277Y-14402746D01*
X18108277Y-14402746D02*
X18108277Y-14459888D01*
X18108277Y-14459888D02*
X18098753Y-14478936D01*
X18098753Y-14478936D02*
X18089230Y-14488460D01*
X18089230Y-14488460D02*
X18070182Y-14497984D01*
X18070182Y-14497984D02*
X18041611Y-14497984D01*
X18222563Y-14497984D02*
X18203515Y-14488460D01*
X18203515Y-14488460D02*
X18193992Y-14469412D01*
X18193992Y-14469412D02*
X18193992Y-14297984D01*
X18374944Y-14488460D02*
X18355896Y-14497984D01*
X18355896Y-14497984D02*
X18317801Y-14497984D01*
X18317801Y-14497984D02*
X18298753Y-14488460D01*
X18298753Y-14488460D02*
X18289230Y-14469412D01*
X18289230Y-14469412D02*
X18289230Y-14393222D01*
X18289230Y-14393222D02*
X18298753Y-14374174D01*
X18298753Y-14374174D02*
X18317801Y-14364650D01*
X18317801Y-14364650D02*
X18355896Y-14364650D01*
X18355896Y-14364650D02*
X18374944Y-14374174D01*
X18374944Y-14374174D02*
X18384468Y-14393222D01*
X18384468Y-14393222D02*
X18384468Y-14412269D01*
X18384468Y-14412269D02*
X18289230Y-14431317D01*
X18460658Y-14488460D02*
X18479706Y-14497984D01*
X18479706Y-14497984D02*
X18517801Y-14497984D01*
X18517801Y-14497984D02*
X18536849Y-14488460D01*
X18536849Y-14488460D02*
X18546373Y-14469412D01*
X18546373Y-14469412D02*
X18546373Y-14459888D01*
X18546373Y-14459888D02*
X18536849Y-14440841D01*
X18536849Y-14440841D02*
X18517801Y-14431317D01*
X18517801Y-14431317D02*
X18489230Y-14431317D01*
X18489230Y-14431317D02*
X18470182Y-14421793D01*
X18470182Y-14421793D02*
X18460658Y-14402746D01*
X18460658Y-14402746D02*
X18460658Y-14393222D01*
X18460658Y-14393222D02*
X18470182Y-14374174D01*
X18470182Y-14374174D02*
X18489230Y-14364650D01*
X18489230Y-14364650D02*
X18517801Y-14364650D01*
X18517801Y-14364650D02*
X18536849Y-14374174D01*
X18613039Y-14574174D02*
X18622563Y-14564650D01*
X18622563Y-14564650D02*
X18641611Y-14536079D01*
X18641611Y-14536079D02*
X18651134Y-14517031D01*
X18651134Y-14517031D02*
X18660658Y-14488460D01*
X18660658Y-14488460D02*
X18670182Y-14440841D01*
X18670182Y-14440841D02*
X18670182Y-14402746D01*
X18670182Y-14402746D02*
X18660658Y-14355127D01*
X18660658Y-14355127D02*
X18651134Y-14326555D01*
X18651134Y-14326555D02*
X18641611Y-14307508D01*
X18641611Y-14307508D02*
X18622563Y-14278936D01*
X18622563Y-14278936D02*
X18613039Y-14269412D01*
M02*
